<?xml version="1.0" encoding="UTF-8" standalone="no"?>
<!DOCTYPE svg PUBLIC "-//W3C//DTD SVG 1.1//EN"
 "http://www.w3.org/Graphics/SVG/1.1/DTD/svg11.dtd">
<!-- Generated by graphviz version 2.49.0 (0)
 -->
<!-- Pages: 1 -->
<svg width="380pt" height="784pt"
 viewBox="0.00 0.00 380.38 784.00" xmlns="http://www.w3.org/2000/svg" xmlns:xlink="http://www.w3.org/1999/xlink">
<g id="graph0" class="graph" transform="scale(1 1) rotate(0) translate(4 780)">
<polygon fill="white" stroke="transparent" points="-4,4 -4,-780 376.38,-780 376.38,4 -4,4"/>
<!-- f11 -->
<g id="node1" class="node">
<title>f11</title>
<ellipse fill="none" stroke="black" cx="255.38" cy="-450" rx="27" ry="18"/>
<text text-anchor="middle" x="255.38" y="-446.3" font-family="Times,serif" font-size="14.00">f11</text>
</g>
<!-- y -->
<g id="node2" class="node">
<title>y</title>
<ellipse fill="none" stroke="black" cx="345.38" cy="-396" rx="27" ry="18"/>
<text text-anchor="middle" x="345.38" y="-392.3" font-family="Times,serif" font-size="14.00">y</text>
</g>
<!-- f11&#45;&gt;y -->
<g id="edge1" class="edge">
<title>f11&#45;&gt;y</title>
<path fill="none" stroke="black" d="M275.91,-438.02C287.76,-430.74 303.08,-421.34 316.23,-413.28"/>
<polygon fill="black" stroke="black" points="318.21,-416.16 324.91,-407.95 314.55,-410.2 318.21,-416.16"/>
</g>
<!-- P -->
<g id="node3" class="node">
<title>P</title>
<ellipse fill="none" stroke="black" cx="96.19" cy="-396" rx="27" ry="18"/>
<text text-anchor="middle" x="96.19" y="-392.3" font-family="Times,serif" font-size="14.00">P</text>
</g>
<!-- P&#45;&gt;f11 -->
<g id="edge2" class="edge">
<title>P&#45;&gt;f11</title>
<path fill="none" stroke="black" d="M120.72,-404.08C147.43,-413.26 191.17,-428.28 221.29,-438.63"/>
<polygon fill="black" stroke="black" points="220.35,-442.01 230.95,-441.95 222.63,-435.39 220.35,-442.01"/>
</g>
<!-- P&#45;&gt;y -->
<g id="edge14" class="edge">
<title>P&#45;&gt;y</title>
<path fill="none" stroke="black" d="M113.15,-410.02C136.51,-429.53 182.29,-463.92 228.38,-477 251.47,-483.55 260.86,-487.63 282.38,-477 305.2,-465.73 321.94,-441.58 332.23,-422.57"/>
<polygon fill="black" stroke="black" points="335.46,-423.96 336.9,-413.46 329.23,-420.77 335.46,-423.96"/>
</g>
<!-- f8 -->
<g id="node4" class="node">
<title>f8</title>
<ellipse fill="none" stroke="black" cx="255.38" cy="-596" rx="27" ry="18"/>
<text text-anchor="middle" x="255.38" y="-592.3" font-family="Times,serif" font-size="14.00">f8</text>
</g>
<!-- P&#45;&gt;f8 -->
<g id="edge3" class="edge">
<title>P&#45;&gt;f8</title>
<path fill="none" stroke="black" d="M110.26,-411.45C129.03,-433.82 164.43,-476.77 192.38,-515 209.41,-538.28 210.31,-546.52 228.38,-569 229.64,-570.56 230.96,-572.13 232.33,-573.7"/>
<polygon fill="black" stroke="black" points="229.97,-576.3 239.31,-581.3 235.13,-571.57 229.97,-576.3"/>
</g>
<!-- f5 -->
<g id="node5" class="node">
<title>f5</title>
<ellipse fill="none" stroke="black" cx="255.38" cy="-650" rx="27" ry="18"/>
<text text-anchor="middle" x="255.38" y="-646.3" font-family="Times,serif" font-size="14.00">f5</text>
</g>
<!-- P&#45;&gt;f5 -->
<g id="edge4" class="edge">
<title>P&#45;&gt;f5</title>
<path fill="none" stroke="black" d="M112.05,-410.89C132.65,-432.26 169.88,-473.63 192.38,-515 216.56,-559.45 202.19,-579.71 228.38,-623 229.42,-624.71 230.58,-626.4 231.82,-628.05"/>
<polygon fill="black" stroke="black" points="229.35,-630.54 238.51,-635.86 234.67,-625.99 229.35,-630.54"/>
</g>
<!-- f12 -->
<g id="node6" class="node">
<title>f12</title>
<ellipse fill="none" stroke="black" cx="255.38" cy="-396" rx="27" ry="18"/>
<text text-anchor="middle" x="255.38" y="-392.3" font-family="Times,serif" font-size="14.00">f12</text>
</g>
<!-- P&#45;&gt;f12 -->
<g id="edge5" class="edge">
<title>P&#45;&gt;f12</title>
<path fill="none" stroke="black" d="M123.5,-396C149.42,-396 189.23,-396 218.14,-396"/>
<polygon fill="black" stroke="black" points="218.25,-399.5 228.25,-396 218.25,-392.5 218.25,-399.5"/>
</g>
<!-- f4 -->
<g id="node7" class="node">
<title>f4</title>
<ellipse fill="none" stroke="black" cx="255.38" cy="-342" rx="27" ry="18"/>
<text text-anchor="middle" x="255.38" y="-338.3" font-family="Times,serif" font-size="14.00">f4</text>
</g>
<!-- P&#45;&gt;f4 -->
<g id="edge6" class="edge">
<title>P&#45;&gt;f4</title>
<path fill="none" stroke="black" d="M121.73,-390.01C141.13,-385.04 168.77,-377.45 192.38,-369 202.66,-365.32 213.66,-360.75 223.49,-356.43"/>
<polygon fill="black" stroke="black" points="225.17,-359.51 232.86,-352.22 222.31,-353.12 225.17,-359.51"/>
</g>
<!-- f7 -->
<g id="node8" class="node">
<title>f7</title>
<ellipse fill="none" stroke="black" cx="255.38" cy="-234" rx="27" ry="18"/>
<text text-anchor="middle" x="255.38" y="-230.3" font-family="Times,serif" font-size="14.00">f7</text>
</g>
<!-- P&#45;&gt;f7 -->
<g id="edge7" class="edge">
<title>P&#45;&gt;f7</title>
<path fill="none" stroke="black" d="M123.48,-395.06C144.67,-392.93 173.88,-386.68 192.38,-369 228.96,-334.04 202.19,-304.29 228.38,-261 229.42,-259.29 230.58,-257.6 231.82,-255.95"/>
<polygon fill="black" stroke="black" points="234.67,-258.01 238.51,-248.14 229.35,-253.46 234.67,-258.01"/>
</g>
<!-- f3 -->
<g id="node9" class="node">
<title>f3</title>
<ellipse fill="none" stroke="black" cx="255.38" cy="-180" rx="27" ry="18"/>
<text text-anchor="middle" x="255.38" y="-176.3" font-family="Times,serif" font-size="14.00">f3</text>
</g>
<!-- P&#45;&gt;f3 -->
<g id="edge8" class="edge">
<title>P&#45;&gt;f3</title>
<path fill="none" stroke="black" d="M123.54,-395.58C145.05,-393.79 174.7,-387.74 192.38,-369 243.01,-315.36 193.5,-271.99 228.38,-207 229.33,-205.24 230.42,-203.51 231.62,-201.83"/>
<polygon fill="black" stroke="black" points="234.47,-203.87 238.17,-193.95 229.09,-199.4 234.47,-203.87"/>
</g>
<!-- f6 -->
<g id="node10" class="node">
<title>f6</title>
<ellipse fill="none" stroke="black" cx="255.38" cy="-288" rx="27" ry="18"/>
<text text-anchor="middle" x="255.38" y="-284.3" font-family="Times,serif" font-size="14.00">f6</text>
</g>
<!-- P&#45;&gt;f6 -->
<g id="edge9" class="edge">
<title>P&#45;&gt;f6</title>
<path fill="none" stroke="black" d="M123.17,-393.57C143.61,-390.56 171.97,-383.87 192.38,-369 215.7,-352.02 210.31,-337.48 228.38,-315 229.64,-313.44 230.96,-311.87 232.33,-310.3"/>
<polygon fill="black" stroke="black" points="235.13,-312.43 239.31,-302.7 229.97,-307.7 235.13,-312.43"/>
</g>
<!-- f1 -->
<g id="node11" class="node">
<title>f1</title>
<ellipse fill="none" stroke="black" cx="255.38" cy="-126" rx="27" ry="18"/>
<text text-anchor="middle" x="255.38" y="-122.3" font-family="Times,serif" font-size="14.00">f1</text>
</g>
<!-- P&#45;&gt;f1 -->
<g id="edge10" class="edge">
<title>P&#45;&gt;f1</title>
<path fill="none" stroke="black" d="M123.37,-395.86C145.08,-394.25 175.09,-388.33 192.38,-369 257.27,-296.46 184.67,-239.95 228.38,-153 229.28,-151.21 230.34,-149.46 231.51,-147.77"/>
<polygon fill="black" stroke="black" points="234.36,-149.81 238,-139.86 228.95,-145.37 234.36,-149.81"/>
</g>
<!-- f10 -->
<g id="node12" class="node">
<title>f10</title>
<ellipse fill="none" stroke="black" cx="255.38" cy="-542" rx="27" ry="18"/>
<text text-anchor="middle" x="255.38" y="-538.3" font-family="Times,serif" font-size="14.00">f10</text>
</g>
<!-- P&#45;&gt;f10 -->
<g id="edge11" class="edge">
<title>P&#45;&gt;f10</title>
<path fill="none" stroke="black" d="M112.84,-410.53C140.61,-436.33 198.66,-490.25 231.13,-520.4"/>
<polygon fill="black" stroke="black" points="229.09,-523.29 238.8,-527.53 233.85,-518.16 229.09,-523.29"/>
</g>
<!-- f2 -->
<g id="node13" class="node">
<title>f2</title>
<ellipse fill="none" stroke="black" cx="255.38" cy="-704" rx="27" ry="18"/>
<text text-anchor="middle" x="255.38" y="-700.3" font-family="Times,serif" font-size="14.00">f2</text>
</g>
<!-- P&#45;&gt;f2 -->
<g id="edge12" class="edge">
<title>P&#45;&gt;f2</title>
<path fill="none" stroke="black" d="M112.65,-410.58C133.97,-431.59 172.04,-472.53 192.38,-515 224.24,-581.52 193.5,-612.01 228.38,-677 229.33,-678.76 230.42,-680.49 231.62,-682.17"/>
<polygon fill="black" stroke="black" points="229.09,-684.6 238.17,-690.05 234.47,-680.13 229.09,-684.6"/>
</g>
<!-- f9 -->
<g id="node14" class="node">
<title>f9</title>
<ellipse fill="none" stroke="black" cx="255.38" cy="-72" rx="27" ry="18"/>
<text text-anchor="middle" x="255.38" y="-68.3" font-family="Times,serif" font-size="14.00">f9</text>
</g>
<!-- P&#45;&gt;f9 -->
<g id="edge13" class="edge">
<title>P&#45;&gt;f9</title>
<path fill="none" stroke="black" d="M123.53,-396C145.34,-394.48 175.41,-388.61 192.38,-369 271.61,-277.47 175.78,-208.03 228.38,-99 229.25,-97.2 230.29,-95.44 231.44,-93.74"/>
<polygon fill="black" stroke="black" points="234.3,-95.77 237.89,-85.8 228.87,-91.35 234.3,-95.77"/>
</g>
<!-- f8&#45;&gt;y -->
<g id="edge15" class="edge">
<title>f8&#45;&gt;y</title>
<path fill="none" stroke="black" d="M272.19,-581.82C275.89,-577.93 279.57,-573.53 282.38,-569 311.5,-522.07 329.59,-459.51 338.25,-423.92"/>
<polygon fill="black" stroke="black" points="341.75,-424.32 340.64,-413.78 334.94,-422.71 341.75,-424.32"/>
</g>
<!-- f5&#45;&gt;y -->
<g id="edge18" class="edge">
<title>f5&#45;&gt;y</title>
<path fill="none" stroke="black" d="M272.44,-635.97C276.13,-632.08 279.75,-627.64 282.38,-623 319.57,-557.53 335.35,-468.67 341.27,-424.04"/>
<polygon fill="black" stroke="black" points="344.76,-424.29 342.54,-413.93 337.82,-423.42 344.76,-424.29"/>
</g>
<!-- f12&#45;&gt;y -->
<g id="edge21" class="edge">
<title>f12&#45;&gt;y</title>
<path fill="none" stroke="black" d="M282.79,-396C290.78,-396 299.69,-396 308.21,-396"/>
<polygon fill="black" stroke="black" points="308.3,-399.5 318.3,-396 308.3,-392.5 308.3,-399.5"/>
</g>
<!-- f4&#45;&gt;y -->
<g id="edge25" class="edge">
<title>f4&#45;&gt;y</title>
<path fill="none" stroke="black" d="M275.91,-353.98C287.76,-361.26 303.08,-370.66 316.23,-378.72"/>
<polygon fill="black" stroke="black" points="314.55,-381.8 324.91,-384.05 318.21,-375.84 314.55,-381.8"/>
</g>
<!-- f7&#45;&gt;y -->
<g id="edge28" class="edge">
<title>f7&#45;&gt;y</title>
<path fill="none" stroke="black" d="M271.92,-248.35C275.63,-252.24 279.38,-256.59 282.38,-261 305.94,-295.54 324.52,-340.46 334.98,-368.77"/>
<polygon fill="black" stroke="black" points="331.77,-370.19 338.47,-378.4 338.36,-367.81 331.77,-370.19"/>
</g>
<!-- f3&#45;&gt;y -->
<g id="edge34" class="edge">
<title>f3&#45;&gt;y</title>
<path fill="none" stroke="black" d="M272.28,-194.13C275.97,-198.01 279.63,-202.43 282.38,-207 313.88,-259.33 331.45,-329.57 339.3,-367.99"/>
<polygon fill="black" stroke="black" points="335.89,-368.81 341.26,-377.94 342.76,-367.45 335.89,-368.81"/>
</g>
<!-- f6&#45;&gt;y -->
<g id="edge36" class="edge">
<title>f6&#45;&gt;y</title>
<path fill="none" stroke="black" d="M271.27,-302.86C274.99,-306.73 278.9,-310.95 282.38,-315 298.06,-333.25 314.56,-354.93 326.59,-371.28"/>
<polygon fill="black" stroke="black" points="324.06,-373.74 332.78,-379.75 329.71,-369.61 324.06,-373.74"/>
</g>
<!-- f1&#45;&gt;y -->
<g id="edge40" class="edge">
<title>f1&#45;&gt;y</title>
<path fill="none" stroke="black" d="M272.49,-140C276.19,-143.89 279.79,-148.34 282.38,-153 321.99,-224.11 336.81,-320.94 341.93,-368.01"/>
<polygon fill="black" stroke="black" points="338.46,-368.48 342.95,-378.07 345.42,-367.77 338.46,-368.48"/>
</g>
<!-- f10&#45;&gt;y -->
<g id="edge41" class="edge">
<title>f10&#45;&gt;y</title>
<path fill="none" stroke="black" d="M269.94,-526.49C274.14,-521.39 278.64,-515.59 282.38,-510 301.67,-481.21 320.16,-445.86 331.85,-422.23"/>
<polygon fill="black" stroke="black" points="335.03,-423.7 336.28,-413.18 328.74,-420.62 335.03,-423.7"/>
</g>
<!-- f2&#45;&gt;y -->
<g id="edge43" class="edge">
<title>f2&#45;&gt;y</title>
<path fill="none" stroke="black" d="M272.6,-690.05C276.29,-686.16 279.86,-681.7 282.38,-677 327.54,-592.72 339.83,-477.4 343.16,-424.56"/>
<polygon fill="black" stroke="black" points="346.67,-424.45 343.74,-414.27 339.68,-424.05 346.67,-424.45"/>
</g>
<!-- f9&#45;&gt;y -->
<g id="edge46" class="edge">
<title>f9&#45;&gt;y</title>
<path fill="none" stroke="black" d="M272.63,-85.93C276.33,-89.82 279.89,-94.28 282.38,-99 330.03,-189.16 341.07,-312.8 343.62,-367.73"/>
<polygon fill="black" stroke="black" points="340.12,-367.92 344.03,-377.77 347.12,-367.64 340.12,-367.92"/>
</g>
<!-- lcd -->
<g id="node15" class="node">
<title>lcd</title>
<ellipse fill="none" stroke="black" cx="96.19" cy="-596" rx="27" ry="18"/>
<text text-anchor="middle" x="96.19" y="-592.3" font-family="Times,serif" font-size="14.00">lcd</text>
</g>
<!-- lcd&#45;&gt;f8 -->
<g id="edge16" class="edge">
<title>lcd&#45;&gt;f8</title>
<path fill="none" stroke="black" d="M123.5,-596C149.42,-596 189.23,-596 218.14,-596"/>
<polygon fill="black" stroke="black" points="218.25,-599.5 228.25,-596 218.25,-592.5 218.25,-599.5"/>
</g>
<!-- lcd&#45;&gt;f5 -->
<g id="edge17" class="edge">
<title>lcd&#45;&gt;f5</title>
<path fill="none" stroke="black" d="M121.73,-601.99C141.13,-606.96 168.77,-614.55 192.38,-623 202.66,-626.68 213.66,-631.25 223.49,-635.57"/>
<polygon fill="black" stroke="black" points="222.31,-638.88 232.86,-639.78 225.17,-632.49 222.31,-638.88"/>
</g>
<!-- largest_free_sphere -->
<g id="node16" class="node">
<title>largest_free_sphere</title>
<ellipse fill="none" stroke="black" cx="96.19" cy="-650" rx="79.09" ry="18"/>
<text text-anchor="middle" x="96.19" y="-646.3" font-family="Times,serif" font-size="14.00">largest_free_sphere</text>
</g>
<!-- largest_free_sphere&#45;&gt;f5 -->
<g id="edge19" class="edge">
<title>largest_free_sphere&#45;&gt;f5</title>
<path fill="none" stroke="black" d="M175.79,-650C190.54,-650 205.29,-650 217.96,-650"/>
<polygon fill="black" stroke="black" points="218.07,-653.5 228.07,-650 218.07,-646.5 218.07,-653.5"/>
</g>
<!-- largest_free_sphere&#45;&gt;f2 -->
<g id="edge20" class="edge">
<title>largest_free_sphere&#45;&gt;f2</title>
<path fill="none" stroke="black" d="M149.47,-663.46C163.52,-667.45 178.63,-672.08 192.38,-677 202.66,-680.68 213.66,-685.25 223.49,-689.57"/>
<polygon fill="black" stroke="black" points="222.31,-692.88 232.86,-693.78 225.17,-686.49 222.31,-692.88"/>
</g>
<!-- VolFrac -->
<g id="node17" class="node">
<title>VolFrac</title>
<ellipse fill="none" stroke="black" cx="96.19" cy="-342" rx="38.19" ry="18"/>
<text text-anchor="middle" x="96.19" y="-338.3" font-family="Times,serif" font-size="14.00">VolFrac</text>
</g>
<!-- VolFrac&#45;&gt;f12 -->
<g id="edge22" class="edge">
<title>VolFrac&#45;&gt;f12</title>
<path fill="none" stroke="black" d="M130.58,-350.29C149,-355.16 172.16,-361.77 192.38,-369 202.66,-372.68 213.66,-377.25 223.49,-381.57"/>
<polygon fill="black" stroke="black" points="222.31,-384.88 232.86,-385.78 225.17,-378.49 222.31,-384.88"/>
</g>
<!-- VolFrac&#45;&gt;f4 -->
<g id="edge23" class="edge">
<title>VolFrac&#45;&gt;f4</title>
<path fill="none" stroke="black" d="M134.84,-342C160.12,-342 193.22,-342 218.19,-342"/>
<polygon fill="black" stroke="black" points="218.34,-345.5 228.34,-342 218.34,-338.5 218.34,-345.5"/>
</g>
<!-- VolFrac&#45;&gt;f6 -->
<g id="edge24" class="edge">
<title>VolFrac&#45;&gt;f6</title>
<path fill="none" stroke="black" d="M130.58,-333.71C149,-328.84 172.16,-322.23 192.38,-315 202.66,-311.32 213.66,-306.75 223.49,-302.43"/>
<polygon fill="black" stroke="black" points="225.17,-305.51 232.86,-298.22 222.31,-299.12 225.17,-305.51"/>
</g>
<!-- density -->
<g id="node18" class="node">
<title>density</title>
<ellipse fill="none" stroke="black" cx="96.19" cy="-288" rx="36.29" ry="18"/>
<text text-anchor="middle" x="96.19" y="-284.3" font-family="Times,serif" font-size="14.00">density</text>
</g>
<!-- density&#45;&gt;f4 -->
<g id="edge26" class="edge">
<title>density&#45;&gt;f4</title>
<path fill="none" stroke="black" d="M129.26,-295.95C147.88,-300.84 171.68,-307.59 192.38,-315 202.66,-318.68 213.66,-323.25 223.49,-327.57"/>
<polygon fill="black" stroke="black" points="222.31,-330.88 232.86,-331.78 225.17,-324.49 222.31,-330.88"/>
</g>
<!-- density&#45;&gt;f6 -->
<g id="edge27" class="edge">
<title>density&#45;&gt;f6</title>
<path fill="none" stroke="black" d="M132.86,-288C158.34,-288 192.49,-288 218.11,-288"/>
<polygon fill="black" stroke="black" points="218.16,-291.5 228.16,-288 218.16,-284.5 218.16,-291.5"/>
</g>
<!-- NASA -->
<g id="node19" class="node">
<title>NASA</title>
<ellipse fill="none" stroke="black" cx="96.19" cy="-180" rx="34.39" ry="18"/>
<text text-anchor="middle" x="96.19" y="-176.3" font-family="Times,serif" font-size="14.00">NASA</text>
</g>
<!-- NASA&#45;&gt;f7 -->
<g id="edge29" class="edge">
<title>NASA&#45;&gt;f7</title>
<path fill="none" stroke="black" d="M127.53,-187.49C146.39,-192.42 171.03,-199.36 192.38,-207 202.66,-210.68 213.66,-215.25 223.49,-219.57"/>
<polygon fill="black" stroke="black" points="222.31,-222.88 232.86,-223.78 225.17,-216.49 222.31,-222.88"/>
</g>
<!-- NASA&#45;&gt;f3 -->
<g id="edge30" class="edge">
<title>NASA&#45;&gt;f3</title>
<path fill="none" stroke="black" d="M130.91,-180C156.44,-180 191.47,-180 217.7,-180"/>
<polygon fill="black" stroke="black" points="217.99,-183.5 227.99,-180 217.99,-176.5 217.99,-183.5"/>
</g>
<!-- NASA&#45;&gt;f1 -->
<g id="edge31" class="edge">
<title>NASA&#45;&gt;f1</title>
<path fill="none" stroke="black" d="M127.53,-172.51C146.39,-167.58 171.03,-160.64 192.38,-153 202.66,-149.32 213.66,-144.75 223.49,-140.43"/>
<polygon fill="black" stroke="black" points="225.17,-143.51 232.86,-136.22 222.31,-137.12 225.17,-143.51"/>
</g>
<!-- spg -->
<g id="node20" class="node">
<title>spg</title>
<ellipse fill="none" stroke="black" cx="96.19" cy="-234" rx="27" ry="18"/>
<text text-anchor="middle" x="96.19" y="-230.3" font-family="Times,serif" font-size="14.00">spg</text>
</g>
<!-- spg&#45;&gt;f7 -->
<g id="edge32" class="edge">
<title>spg&#45;&gt;f7</title>
<path fill="none" stroke="black" d="M123.5,-234C149.42,-234 189.23,-234 218.14,-234"/>
<polygon fill="black" stroke="black" points="218.25,-237.5 228.25,-234 218.25,-230.5 218.25,-237.5"/>
</g>
<!-- spg&#45;&gt;f3 -->
<g id="edge33" class="edge">
<title>spg&#45;&gt;f3</title>
<path fill="none" stroke="black" d="M121.73,-228.01C141.13,-223.04 168.77,-215.45 192.38,-207 202.66,-203.32 213.66,-198.75 223.49,-194.43"/>
<polygon fill="black" stroke="black" points="225.17,-197.51 232.86,-190.22 222.31,-191.12 225.17,-197.51"/>
</g>
<!-- AV -->
<g id="node21" class="node">
<title>AV</title>
<ellipse fill="none" stroke="black" cx="96.19" cy="-126" rx="27" ry="18"/>
<text text-anchor="middle" x="96.19" y="-122.3" font-family="Times,serif" font-size="14.00">AV</text>
</g>
<!-- AV&#45;&gt;f3 -->
<g id="edge35" class="edge">
<title>AV&#45;&gt;f3</title>
<path fill="none" stroke="black" d="M121.73,-131.99C141.13,-136.96 168.77,-144.55 192.38,-153 202.66,-156.68 213.66,-161.25 223.49,-165.57"/>
<polygon fill="black" stroke="black" points="222.31,-168.88 232.86,-169.78 225.17,-162.49 222.31,-168.88"/>
</g>
<!-- volume -->
<g id="node22" class="node">
<title>volume</title>
<ellipse fill="none" stroke="black" cx="96.19" cy="-72" rx="37.89" ry="18"/>
<text text-anchor="middle" x="96.19" y="-68.3" font-family="Times,serif" font-size="14.00">volume</text>
</g>
<!-- volume&#45;&gt;f6 -->
<g id="edge37" class="edge">
<title>volume&#45;&gt;f6</title>
<path fill="none" stroke="black" d="M133.94,-73.57C153.86,-76.37 177.41,-83.13 192.38,-99 243.01,-152.64 193.5,-196.01 228.38,-261 229.33,-262.76 230.42,-264.49 231.62,-266.17"/>
<polygon fill="black" stroke="black" points="229.09,-268.6 238.17,-274.05 234.47,-264.13 229.09,-268.6"/>
</g>
<!-- volume&#45;&gt;f1 -->
<g id="edge38" class="edge">
<title>volume&#45;&gt;f1</title>
<path fill="none" stroke="black" d="M130.14,-80.18C148.62,-85.05 172,-91.71 192.38,-99 202.66,-102.68 213.66,-107.25 223.49,-111.57"/>
<polygon fill="black" stroke="black" points="222.31,-114.88 232.86,-115.78 225.17,-108.49 222.31,-114.88"/>
</g>
<!-- volume&#45;&gt;f9 -->
<g id="edge39" class="edge">
<title>volume&#45;&gt;f9</title>
<path fill="none" stroke="black" d="M134.05,-72C159.3,-72 192.64,-72 217.83,-72"/>
<polygon fill="black" stroke="black" points="218.07,-75.5 228.07,-72 218.07,-68.5 218.07,-75.5"/>
</g>
<!-- void_frac -->
<g id="node23" class="node">
<title>void_frac</title>
<ellipse fill="none" stroke="black" cx="96.19" cy="-542" rx="44.39" ry="18"/>
<text text-anchor="middle" x="96.19" y="-538.3" font-family="Times,serif" font-size="14.00">void_frac</text>
</g>
<!-- void_frac&#45;&gt;f10 -->
<g id="edge42" class="edge">
<title>void_frac&#45;&gt;f10</title>
<path fill="none" stroke="black" d="M140.56,-542C164.99,-542 195.15,-542 218.28,-542"/>
<polygon fill="black" stroke="black" points="218.37,-545.5 228.37,-542 218.37,-538.5 218.37,-545.5"/>
</g>
<!-- NAV -->
<g id="node24" class="node">
<title>NAV</title>
<ellipse fill="none" stroke="black" cx="96.19" cy="-704" rx="28.7" ry="18"/>
<text text-anchor="middle" x="96.19" y="-700.3" font-family="Times,serif" font-size="14.00">NAV</text>
</g>
<!-- NAV&#45;&gt;f2 -->
<g id="edge44" class="edge">
<title>NAV&#45;&gt;f2</title>
<path fill="none" stroke="black" d="M124.93,-704C150.8,-704 189.55,-704 217.91,-704"/>
<polygon fill="black" stroke="black" points="218.23,-707.5 228.23,-704 218.23,-700.5 218.23,-707.5"/>
</g>
<!-- largest_included_sphere -->
<g id="node25" class="node">
<title>largest_included_sphere</title>
<ellipse fill="none" stroke="black" cx="96.19" cy="-758" rx="96.38" ry="18"/>
<text text-anchor="middle" x="96.19" y="-754.3" font-family="Times,serif" font-size="14.00">largest_included_sphere</text>
</g>
<!-- largest_included_sphere&#45;&gt;f2 -->
<g id="edge45" class="edge">
<title>largest_included_sphere&#45;&gt;f2</title>
<path fill="none" stroke="black" d="M153.21,-743.47C166.18,-739.73 179.85,-735.48 192.38,-731 202.66,-727.32 213.66,-722.75 223.49,-718.43"/>
<polygon fill="black" stroke="black" points="225.17,-721.51 232.86,-714.22 222.31,-715.12 225.17,-721.51"/>
</g>
<!-- pld -->
<g id="node26" class="node">
<title>pld</title>
<ellipse fill="none" stroke="black" cx="96.19" cy="-18" rx="27" ry="18"/>
<text text-anchor="middle" x="96.19" y="-14.3" font-family="Times,serif" font-size="14.00">pld</text>
</g>
<!-- pld&#45;&gt;f9 -->
<g id="edge47" class="edge">
<title>pld&#45;&gt;f9</title>
<path fill="none" stroke="black" d="M121.73,-23.99C141.13,-28.96 168.77,-36.55 192.38,-45 202.66,-48.68 213.66,-53.25 223.49,-57.57"/>
<polygon fill="black" stroke="black" points="222.31,-60.88 232.86,-61.78 225.17,-54.49 222.31,-60.88"/>
</g>
</g>
</svg>
