<?xml version="1.0" encoding="UTF-8" standalone="no"?>
<!DOCTYPE svg PUBLIC "-//W3C//DTD SVG 1.1//EN"
 "http://www.w3.org/Graphics/SVG/1.1/DTD/svg11.dtd">
<!-- Generated by graphviz version 2.49.0 (0)
 -->
<!-- Pages: 1 -->
<svg width="1756pt" height="218pt"
 viewBox="0.00 0.00 1756.07 218.00" xmlns="http://www.w3.org/2000/svg" xmlns:xlink="http://www.w3.org/1999/xlink">
<g id="graph0" class="graph" transform="scale(1 1) rotate(0) translate(4 214)">
<polygon fill="white" stroke="transparent" points="-4,4 -4,-214 1752.07,-214 1752.07,4 -4,4"/>
<!-- f8 -->
<g id="node1" class="node">
<title>f8</title>
<ellipse fill="none" stroke="black" cx="1262.07" cy="-105" rx="27" ry="18"/>
<text text-anchor="middle" x="1262.07" y="-101.3" font-family="Times,serif" font-size="14.00">f8</text>
</g>
<!-- y -->
<g id="node2" class="node">
<title>y</title>
<ellipse fill="none" stroke="black" cx="115.07" cy="-18" rx="27" ry="18"/>
<text text-anchor="middle" x="115.07" y="-14.3" font-family="Times,serif" font-size="14.00">y</text>
</g>
<!-- f8&#45;&gt;y -->
<g id="edge1" class="edge">
<title>f8&#45;&gt;y</title>
<path fill="none" stroke="#ff0051" stroke-width="0.68" d="M1237.58,-97.15C1195.95,-85.86 1108.55,-63.6 1033.07,-54 858.28,-31.76 301.38,-21.84 152.15,-19.54"/>
<polygon fill="#ff0051" stroke="#ff0051" stroke-width="0.68" points="152.18,-16.04 142.13,-19.39 152.07,-23.04 152.18,-16.04"/>
<text text-anchor="middle" x="1127.57" y="-57.8" font-family="Times,serif" font-size="14.00" fill="#ff0051" fill-opacity="0.329412">0.06</text>
</g>
<!-- f7 -->
<g id="node3" class="node">
<title>f7</title>
<ellipse fill="none" stroke="black" cx="160.07" cy="-105" rx="27" ry="18"/>
<text text-anchor="middle" x="160.07" y="-101.3" font-family="Times,serif" font-size="14.00">f7</text>
</g>
<!-- f7&#45;&gt;y -->
<g id="edge2" class="edge">
<title>f7&#45;&gt;y</title>
<path fill="none" stroke="#ff0051" stroke-width="0.05" d="M151.39,-87.61C144.91,-75.38 135.95,-58.44 128.54,-44.46"/>
<polygon fill="#ff0051" stroke="#ff0051" stroke-width="0.05" points="131.49,-42.54 123.72,-35.34 125.3,-45.81 131.49,-42.54"/>
<text text-anchor="middle" x="153.57" y="-57.8" font-family="Times,serif" font-size="14.00" fill="#ff0051" fill-opacity="0.235294">0.00</text>
</g>
<!-- NASA -->
<g id="node4" class="node">
<title>NASA</title>
<ellipse fill="none" stroke="black" cx="235.07" cy="-192" rx="34.39" ry="18"/>
<text text-anchor="middle" x="235.07" y="-188.3" font-family="Times,serif" font-size="14.00">NASA</text>
</g>
<!-- NASA&#45;&gt;f7 -->
<g id="edge3" class="edge">
<title>NASA&#45;&gt;f7</title>
<path fill="none" stroke="#ff0051" stroke-width="0.05" d="M221.31,-175.41C209.75,-162.31 193.07,-143.41 180.04,-128.64"/>
<polygon fill="#ff0051" stroke="#ff0051" stroke-width="0.05" points="182.47,-126.1 173.23,-120.92 177.22,-130.74 182.47,-126.1"/>
<text text-anchor="middle" x="214.57" y="-144.8" font-family="Times,serif" font-size="14.00" fill="#ff0051" fill-opacity="0.235294">0.00</text>
</g>
<!-- f1 -->
<g id="node5" class="node">
<title>f1</title>
<ellipse fill="none" stroke="black" cx="402.07" cy="-105" rx="27" ry="18"/>
<text text-anchor="middle" x="402.07" y="-101.3" font-family="Times,serif" font-size="14.00">f1</text>
</g>
<!-- NASA&#45;&gt;f1 -->
<g id="edge4" class="edge">
<title>NASA&#45;&gt;f1</title>
<path fill="none" stroke="#ff0051" stroke-width="5" d="M262.25,-180.88C286.85,-171.67 320.12,-159.06 326.07,-156 343.52,-147.04 361.93,-135 376.25,-124.98"/>
<polygon fill="#ff0051" stroke="#ff0051" stroke-width="5" points="378.99,-128.41 384.6,-119.05 373.92,-121.27 378.99,-128.41"/>
<text text-anchor="middle" x="364.57" y="-144.8" font-family="Times,serif" font-size="14.00" fill="#ff0051" fill-opacity="0.996078">0.48</text>
</g>
<!-- f3 -->
<g id="node6" class="node">
<title>f3</title>
<ellipse fill="none" stroke="black" cx="79.07" cy="-105" rx="27" ry="18"/>
<text text-anchor="middle" x="79.07" y="-101.3" font-family="Times,serif" font-size="14.00">f3</text>
</g>
<!-- NASA&#45;&gt;f3 -->
<g id="edge5" class="edge">
<title>NASA&#45;&gt;f3</title>
<path fill="none" stroke="#008bfb" stroke-width="3.84" d="M207.12,-181.2C199.96,-178.77 192.25,-176.23 185.07,-174 156.85,-165.24 145.89,-172.02 121.07,-156 110.86,-149.41 101.83,-139.57 94.79,-130.36"/>
<polygon fill="#008bfb" stroke="#008bfb" stroke-width="3.84" points="97.59,-128.26 88.91,-122.19 91.91,-132.35 97.59,-128.26"/>
<text text-anchor="middle" x="135.57" y="-144.8" font-family="Times,serif" font-size="14.00" fill="#008bfb" fill-opacity="0.819608">&#45;0.37</text>
</g>
<!-- f1&#45;&gt;y -->
<g id="edge6" class="edge">
<title>f1&#45;&gt;y</title>
<path fill="none" stroke="#ff0051" stroke-width="5" d="M377.6,-96.75C326.44,-81.6 208.09,-46.55 149.38,-29.16"/>
<polygon fill="#ff0051" stroke="#ff0051" stroke-width="5" points="150.3,-24.87 139.47,-26.23 147.82,-33.26 150.3,-24.87"/>
<text text-anchor="middle" x="288.57" y="-57.8" font-family="Times,serif" font-size="14.00" fill="#ff0051">0.48</text>
</g>
<!-- f3&#45;&gt;y -->
<g id="edge7" class="edge">
<title>f3&#45;&gt;y</title>
<path fill="none" stroke="#008bfb" stroke-width="3.84" d="M85.53,-87.25C89.35,-77.5 94.35,-65 99.07,-54 100.38,-50.93 101.79,-47.72 103.21,-44.55"/>
<polygon fill="#008bfb" stroke="#008bfb" stroke-width="3.84" points="106.46,-45.86 107.41,-35.31 100.09,-42.96 106.46,-45.86"/>
<text text-anchor="middle" x="113.57" y="-57.8" font-family="Times,serif" font-size="14.00" fill="#008bfb" fill-opacity="0.819608">&#45;0.37</text>
</g>
<!-- f9 -->
<g id="node7" class="node">
<title>f9</title>
<ellipse fill="none" stroke="black" cx="521.07" cy="-105" rx="27" ry="18"/>
<text text-anchor="middle" x="521.07" y="-101.3" font-family="Times,serif" font-size="14.00">f9</text>
</g>
<!-- f9&#45;&gt;y -->
<g id="edge8" class="edge">
<title>f9&#45;&gt;y</title>
<path fill="none" stroke="#ff0051" stroke-width="0.88" d="M496.2,-97.86C456.1,-88.04 374.6,-68.44 305.07,-54 251.63,-42.9 189.37,-31.77 151.09,-25.13"/>
<polygon fill="#ff0051" stroke="#ff0051" stroke-width="0.88" points="151.4,-21.64 140.95,-23.39 150.21,-28.54 151.4,-21.64"/>
<text text-anchor="middle" x="383.57" y="-57.8" font-family="Times,serif" font-size="14.00" fill="#ff0051" fill-opacity="0.360784">0.08</text>
</g>
<!-- AV -->
<g id="node8" class="node">
<title>AV</title>
<ellipse fill="none" stroke="black" cx="64.07" cy="-192" rx="27" ry="18"/>
<text text-anchor="middle" x="64.07" y="-188.3" font-family="Times,serif" font-size="14.00">AV</text>
</g>
<!-- AV&#45;&gt;f3 -->
<g id="edge9" class="edge">
<title>AV&#45;&gt;f3</title>
<path fill="none" stroke="#ff0051" stroke-width="0.05" d="M40.19,-183.12C18.37,-174.56 -8.82,-159.57 3.07,-141 12.06,-126.95 28.28,-118.46 43.43,-113.37"/>
<polygon fill="#ff0051" stroke="#ff0051" stroke-width="0.05" points="44.55,-116.69 53.15,-110.5 42.57,-109.98 44.55,-116.69"/>
<text text-anchor="middle" x="15.57" y="-144.8" font-family="Times,serif" font-size="14.00" fill="#ff0051" fill-opacity="0.235294">0.00</text>
</g>
<!-- f4 -->
<g id="node9" class="node">
<title>f4</title>
<ellipse fill="none" stroke="black" cx="1130.07" cy="-105" rx="27" ry="18"/>
<text text-anchor="middle" x="1130.07" y="-101.3" font-family="Times,serif" font-size="14.00">f4</text>
</g>
<!-- f4&#45;&gt;y -->
<g id="edge10" class="edge">
<title>f4&#45;&gt;y</title>
<path fill="none" stroke="#ff0051" stroke-width="1.6" d="M1106.13,-96.22C1069.37,-84.66 996.61,-63.32 933.07,-54 779.21,-31.43 290.81,-21.87 152.12,-19.57"/>
<polygon fill="#ff0051" stroke="#ff0051" stroke-width="1.6" points="152.06,-16.07 142,-19.41 151.94,-23.07 152.06,-16.07"/>
<text text-anchor="middle" x="1016.57" y="-57.8" font-family="Times,serif" font-size="14.00" fill="#ff0051" fill-opacity="0.474510">0.15</text>
</g>
<!-- density -->
<g id="node10" class="node">
<title>density</title>
<ellipse fill="none" stroke="black" cx="816.07" cy="-192" rx="36.29" ry="18"/>
<text text-anchor="middle" x="816.07" y="-188.3" font-family="Times,serif" font-size="14.00">density</text>
</g>
<!-- density&#45;&gt;f4 -->
<g id="edge11" class="edge">
<title>density&#45;&gt;f4</title>
<path fill="none" stroke="#ff0051" stroke-width="0.11" d="M850.09,-185.46C873.85,-181.75 906.32,-177.03 935.07,-174 964.42,-170.91 1179.92,-177.56 1200.07,-156 1215.28,-139.72 1188.98,-125.43 1164.39,-116.35"/>
<polygon fill="#ff0051" stroke="#ff0051" stroke-width="0.11" points="1165.39,-112.99 1154.79,-113.01 1163.09,-119.6 1165.39,-112.99"/>
<text text-anchor="middle" x="1216.57" y="-144.8" font-family="Times,serif" font-size="14.00" fill="#ff0051" fill-opacity="0.243137">0.01</text>
</g>
<!-- f6 -->
<g id="node11" class="node">
<title>f6</title>
<ellipse fill="none" stroke="black" cx="880.07" cy="-105" rx="27" ry="18"/>
<text text-anchor="middle" x="880.07" y="-101.3" font-family="Times,serif" font-size="14.00">f6</text>
</g>
<!-- density&#45;&gt;f6 -->
<g id="edge12" class="edge">
<title>density&#45;&gt;f6</title>
<path fill="none" stroke="#ff0051" stroke-width="0.49" d="M850.58,-185.87C904.48,-177.7 1003.03,-162.03 1008.07,-156 1012.34,-150.88 1012.11,-146.3 1008.07,-141 996.95,-126.44 950.24,-116.46 916.45,-110.99"/>
<polygon fill="#ff0051" stroke="#ff0051" stroke-width="0.49" points="916.86,-107.51 906.44,-109.44 915.78,-114.43 916.86,-107.51"/>
<text text-anchor="middle" x="1023.57" y="-144.8" font-family="Times,serif" font-size="14.00" fill="#ff0051" fill-opacity="0.301961">0.04</text>
</g>
<!-- f6&#45;&gt;y -->
<g id="edge13" class="edge">
<title>f6&#45;&gt;y</title>
<path fill="none" stroke="#ff0051" stroke-width="1.29" d="M859.68,-92.67C836.91,-80.65 798.56,-62.27 763.07,-54 645.64,-26.64 271.58,-20.56 152.12,-19.31"/>
<polygon fill="#ff0051" stroke="#ff0051" stroke-width="1.29" points="152.05,-15.81 142.01,-19.21 151.98,-22.81 152.05,-15.81"/>
<text text-anchor="middle" x="818.57" y="-57.8" font-family="Times,serif" font-size="14.00" fill="#ff0051" fill-opacity="0.427451">0.12</text>
</g>
<!-- pld -->
<g id="node12" class="node">
<title>pld</title>
<ellipse fill="none" stroke="black" cx="317.07" cy="-192" rx="27" ry="18"/>
<text text-anchor="middle" x="317.07" y="-188.3" font-family="Times,serif" font-size="14.00">pld</text>
</g>
<!-- pld&#45;&gt;f9 -->
<g id="edge14" class="edge">
<title>pld&#45;&gt;f9</title>
<path fill="none" stroke="#ff0051" stroke-width="0.83" d="M337.92,-180.2C343.37,-177.79 349.33,-175.51 355.07,-174 396.51,-163.1 518.21,-187.68 547.07,-156 554.5,-147.83 550.32,-137.14 543.32,-127.74"/>
<polygon fill="#ff0051" stroke="#ff0051" stroke-width="0.83" points="545.81,-125.27 536.67,-119.91 540.48,-129.8 545.81,-125.27"/>
<text text-anchor="middle" x="562.57" y="-144.8" font-family="Times,serif" font-size="14.00" fill="#ff0051" fill-opacity="0.352941">0.08</text>
</g>
<!-- P -->
<g id="node13" class="node">
<title>P</title>
<ellipse fill="none" stroke="black" cx="593.07" cy="-192" rx="27" ry="18"/>
<text text-anchor="middle" x="593.07" y="-188.3" font-family="Times,serif" font-size="14.00">P</text>
</g>
<!-- P&#45;&gt;f8 -->
<g id="edge15" class="edge">
<title>P&#45;&gt;f8</title>
<path fill="none" stroke="#ff0051" stroke-width="0.05" d="M619.56,-187.97C654.3,-184.11 717.16,-177.52 771.07,-174 799.52,-172.14 1264.26,-176.52 1284.07,-156 1291.33,-148.48 1288.25,-138.16 1282.4,-128.85"/>
<polygon fill="#ff0051" stroke="#ff0051" stroke-width="0.05" points="1285.18,-126.72 1276.46,-120.7 1279.52,-130.84 1285.18,-126.72"/>
<text text-anchor="middle" x="1300.57" y="-144.8" font-family="Times,serif" font-size="14.00" fill="#ff0051" fill-opacity="0.235294">0.00</text>
</g>
<!-- P&#45;&gt;y -->
<g id="edge16" class="edge">
<title>P&#45;&gt;y</title>
<path fill="none" stroke="#ff0051" stroke-width="0.05" d="M620.07,-189.03C679.86,-184.39 819.26,-171.97 833.07,-156 837.43,-150.96 837.3,-146.15 833.07,-141 806.89,-109.14 780.96,-136.67 742.07,-123 709.43,-111.53 705.68,-98.53 673.07,-87 602.96,-62.22 582.65,-64.64 509.07,-54 378.48,-35.12 221.97,-24.86 152.01,-20.92"/>
<polygon fill="#ff0051" stroke="#ff0051" stroke-width="0.05" points="152.11,-17.42 141.94,-20.37 151.73,-24.41 152.11,-17.42"/>
<text text-anchor="middle" x="754.57" y="-101.3" font-family="Times,serif" font-size="14.00" fill="#ff0051" fill-opacity="0.235294">0.00</text>
</g>
<!-- P&#45;&gt;f7 -->
<g id="edge17" class="edge">
<title>P&#45;&gt;f7</title>
<path fill="none" stroke="#ff0051" stroke-width="0.05" d="M571.8,-180.47C566.72,-178.17 561.26,-175.86 556.07,-174 429.6,-128.64 269.26,-113.04 197.62,-108.1"/>
<polygon fill="#ff0051" stroke="#ff0051" stroke-width="0.05" points="197.51,-104.58 187.3,-107.42 197.05,-111.57 197.51,-104.58"/>
<text text-anchor="middle" x="505.57" y="-144.8" font-family="Times,serif" font-size="14.00" fill="#ff0051" fill-opacity="0.235294">0.00</text>
</g>
<!-- P&#45;&gt;f1 -->
<g id="edge18" class="edge">
<title>P&#45;&gt;f1</title>
<path fill="none" stroke="#ff0051" stroke-width="0.05" d="M611.51,-178.51C624.76,-168.04 638.58,-152.92 628.07,-141 606.88,-116.98 516.67,-128.22 485.07,-123 469.42,-120.42 452.23,-116.99 437.57,-113.9"/>
<polygon fill="#ff0051" stroke="#ff0051" stroke-width="0.05" points="437.91,-110.39 427.4,-111.72 436.44,-117.23 437.91,-110.39"/>
<text text-anchor="middle" x="643.57" y="-144.8" font-family="Times,serif" font-size="14.00" fill="#ff0051" fill-opacity="0.235294">0.00</text>
</g>
<!-- P&#45;&gt;f3 -->
<g id="edge19" class="edge">
<title>P&#45;&gt;f3</title>
<path fill="none" stroke="#ff0051" stroke-width="0.05" d="M572.42,-179.93C567.21,-177.58 561.54,-175.4 556.07,-174 444.26,-145.45 411.22,-172.84 297.07,-156 267.31,-151.61 260.58,-146.83 231.07,-141 183.76,-131.65 170.62,-135.58 124.07,-123 119.68,-121.82 115.13,-120.37 110.69,-118.82"/>
<polygon fill="#ff0051" stroke="#ff0051" stroke-width="0.05" points="111.81,-115.51 101.21,-115.35 109.4,-122.08 111.81,-115.51"/>
<text text-anchor="middle" x="309.57" y="-144.8" font-family="Times,serif" font-size="14.00" fill="#ff0051" fill-opacity="0.235294">0.00</text>
</g>
<!-- P&#45;&gt;f9 -->
<g id="edge20" class="edge">
<title>P&#45;&gt;f9</title>
<path fill="none" stroke="#ff0051" stroke-width="0.05" d="M620.18,-190.69C672.36,-189.19 778.55,-181.26 743.07,-141 722.04,-117.14 632.43,-128.31 601.07,-123 586.34,-120.51 570.21,-117.19 556.31,-114.15"/>
<polygon fill="#ff0051" stroke="#ff0051" stroke-width="0.05" points="556.71,-110.65 546.18,-111.9 555.19,-117.49 556.71,-110.65"/>
<text text-anchor="middle" x="762.57" y="-144.8" font-family="Times,serif" font-size="14.00" fill="#ff0051" fill-opacity="0.235294">0.00</text>
</g>
<!-- P&#45;&gt;f4 -->
<g id="edge21" class="edge">
<title>P&#45;&gt;f4</title>
<path fill="none" stroke="#ff0051" stroke-width="0.05" d="M619.57,-188.08C654.32,-184.35 717.19,-177.89 771.07,-174 791.43,-172.53 1123.99,-170.78 1138.07,-156 1144.08,-149.69 1144.23,-140.76 1142.16,-132.19"/>
<polygon fill="#ff0051" stroke="#ff0051" stroke-width="0.05" points="1145.41,-130.86 1138.93,-122.48 1138.77,-133.07 1145.41,-130.86"/>
<text text-anchor="middle" x="1155.57" y="-144.8" font-family="Times,serif" font-size="14.00" fill="#ff0051" fill-opacity="0.235294">0.00</text>
</g>
<!-- P&#45;&gt;f6 -->
<g id="edge22" class="edge">
<title>P&#45;&gt;f6</title>
<path fill="none" stroke="#ff0051" stroke-width="0.05" d="M619.8,-188.43C703.14,-180.42 952.71,-156.39 953.07,-156 968.72,-138.75 940.22,-124.39 914.38,-115.55"/>
<polygon fill="#ff0051" stroke="#ff0051" stroke-width="0.05" points="915.29,-112.17 904.7,-112.44 913.15,-118.84 915.29,-112.17"/>
<text text-anchor="middle" x="969.57" y="-144.8" font-family="Times,serif" font-size="14.00" fill="#ff0051" fill-opacity="0.235294">0.00</text>
</g>
<!-- f11 -->
<g id="node14" class="node">
<title>f11</title>
<ellipse fill="none" stroke="black" cx="803.07" cy="-105" rx="27" ry="18"/>
<text text-anchor="middle" x="803.07" y="-101.3" font-family="Times,serif" font-size="14.00">f11</text>
</g>
<!-- P&#45;&gt;f11 -->
<g id="edge23" class="edge">
<title>P&#45;&gt;f11</title>
<path fill="none" stroke="#ff0051" stroke-width="0.05" d="M619.79,-188.54C695.65,-181.51 907.18,-161.45 912.07,-156 948.37,-115.49 917.22,-147.72 844.07,-123 840.93,-121.94 837.68,-120.75 834.46,-119.52"/>
<polygon fill="#ff0051" stroke="#ff0051" stroke-width="0.05" points="835.57,-116.19 824.99,-115.73 832.97,-122.69 835.57,-116.19"/>
<text text-anchor="middle" x="936.57" y="-144.8" font-family="Times,serif" font-size="14.00" fill="#ff0051" fill-opacity="0.235294">0.00</text>
</g>
<!-- f5 -->
<g id="node15" class="node">
<title>f5</title>
<ellipse fill="none" stroke="black" cx="1376.07" cy="-105" rx="27" ry="18"/>
<text text-anchor="middle" x="1376.07" y="-101.3" font-family="Times,serif" font-size="14.00">f5</text>
</g>
<!-- P&#45;&gt;f5 -->
<g id="edge24" class="edge">
<title>P&#45;&gt;f5</title>
<path fill="none" stroke="#ff0051" stroke-width="0.05" d="M619.56,-187.92C654.3,-184.01 717.15,-177.37 771.07,-174 804.85,-171.89 1356.49,-180.29 1380.07,-156 1386.08,-149.8 1386.84,-140.9 1385.5,-132.32"/>
<polygon fill="#ff0051" stroke="#ff0051" stroke-width="0.05" points="1388.9,-131.49 1383.17,-122.58 1382.09,-133.12 1388.9,-131.49"/>
<text text-anchor="middle" x="1397.57" y="-144.8" font-family="Times,serif" font-size="14.00" fill="#ff0051" fill-opacity="0.235294">0.00</text>
</g>
<!-- f10 -->
<g id="node16" class="node">
<title>f10</title>
<ellipse fill="none" stroke="black" cx="637.07" cy="-105" rx="27" ry="18"/>
<text text-anchor="middle" x="637.07" y="-101.3" font-family="Times,serif" font-size="14.00">f10</text>
</g>
<!-- P&#45;&gt;f10 -->
<g id="edge25" class="edge">
<title>P&#45;&gt;f10</title>
<path fill="none" stroke="#ff0051" stroke-width="0.05" d="M619.96,-190.35C668.92,-188.53 769.53,-181.68 791.07,-156 834.53,-104.18 840.96,-155.9 700.07,-123 690.67,-120.81 680.55,-118.19 671.23,-115.67"/>
<polygon fill="#ff0051" stroke="#ff0051" stroke-width="0.05" points="672.07,-112.28 661.5,-113.01 670.22,-119.03 672.07,-112.28"/>
<text text-anchor="middle" x="816.57" y="-144.8" font-family="Times,serif" font-size="14.00" fill="#ff0051" fill-opacity="0.235294">0.00</text>
</g>
<!-- f12 -->
<g id="node17" class="node">
<title>f12</title>
<ellipse fill="none" stroke="black" cx="1015.07" cy="-105" rx="27" ry="18"/>
<text text-anchor="middle" x="1015.07" y="-101.3" font-family="Times,serif" font-size="14.00">f12</text>
</g>
<!-- P&#45;&gt;f12 -->
<g id="edge26" class="edge">
<title>P&#45;&gt;f12</title>
<path fill="none" stroke="#ff0051" stroke-width="0.05" d="M619.58,-188.23C654.34,-184.65 717.23,-178.37 771.07,-174 800.92,-171.58 1019.6,-177.88 1040.07,-156 1047.55,-148 1043.57,-137.32 1036.78,-127.9"/>
<polygon fill="#ff0051" stroke="#ff0051" stroke-width="0.05" points="1039.36,-125.53 1030.31,-120.03 1033.96,-129.98 1039.36,-125.53"/>
<text text-anchor="middle" x="1056.57" y="-144.8" font-family="Times,serif" font-size="14.00" fill="#ff0051" fill-opacity="0.235294">0.00</text>
</g>
<!-- f2 -->
<g id="node18" class="node">
<title>f2</title>
<ellipse fill="none" stroke="black" cx="1505.07" cy="-105" rx="27" ry="18"/>
<text text-anchor="middle" x="1505.07" y="-101.3" font-family="Times,serif" font-size="14.00">f2</text>
</g>
<!-- P&#45;&gt;f2 -->
<g id="edge27" class="edge">
<title>P&#45;&gt;f2</title>
<path fill="none" stroke="#ff0051" stroke-width="0.05" d="M619.56,-187.88C654.29,-183.92 717.15,-177.23 771.07,-174 791.56,-172.77 1495.72,-170.7 1510.07,-156 1516.11,-149.81 1516.72,-140.91 1515.2,-132.33"/>
<polygon fill="#ff0051" stroke="#ff0051" stroke-width="0.05" points="1518.56,-131.36 1512.63,-122.58 1511.79,-133.15 1518.56,-131.36"/>
<text text-anchor="middle" x="1527.57" y="-144.8" font-family="Times,serif" font-size="14.00" fill="#ff0051" fill-opacity="0.235294">0.00</text>
</g>
<!-- f11&#45;&gt;y -->
<g id="edge28" class="edge">
<title>f11&#45;&gt;y</title>
<path fill="none" stroke="#ff0051" stroke-width="0.05" d="M783.4,-92.26C762.17,-80.26 726.99,-62.24 694.07,-54 590.79,-28.15 263.16,-21.13 152.21,-19.46"/>
<polygon fill="#ff0051" stroke="#ff0051" stroke-width="0.05" points="152.22,-15.96 142.17,-19.32 152.12,-22.96 152.22,-15.96"/>
<text text-anchor="middle" x="746.57" y="-57.8" font-family="Times,serif" font-size="14.00" fill="#ff0051" fill-opacity="0.235294">0.00</text>
</g>
<!-- f5&#45;&gt;y -->
<g id="edge29" class="edge">
<title>f5&#45;&gt;y</title>
<path fill="none" stroke="#008bfb" stroke-width="0.84" d="M1351.59,-97.2C1309.55,-85.88 1220.74,-63.44 1144.07,-54 946.36,-29.65 312.95,-21.17 152.35,-19.38"/>
<polygon fill="#008bfb" stroke="#008bfb" stroke-width="0.84" points="152.08,-15.88 142.04,-19.27 152,-22.88 152.08,-15.88"/>
<text text-anchor="middle" x="1241.57" y="-57.8" font-family="Times,serif" font-size="14.00" fill="#008bfb" fill-opacity="0.356863">&#45;0.08</text>
</g>
<!-- f10&#45;&gt;y -->
<g id="edge30" class="edge">
<title>f10&#45;&gt;y</title>
<path fill="none" stroke="#008bfb" stroke-width="0.62" d="M611.49,-98.55C595.79,-95.21 575.26,-90.85 557.07,-87 487.3,-72.26 470.4,-65.69 400.07,-54 311.55,-39.29 206.61,-27.96 152.1,-22.53"/>
<polygon fill="#008bfb" stroke="#008bfb" stroke-width="0.62" points="152.19,-19.02 141.89,-21.53 151.5,-25.99 152.19,-19.02"/>
<text text-anchor="middle" x="490.57" y="-57.8" font-family="Times,serif" font-size="14.00" fill="#008bfb" fill-opacity="0.321569">&#45;0.06</text>
</g>
<!-- f12&#45;&gt;y -->
<g id="edge31" class="edge">
<title>f12&#45;&gt;y</title>
<path fill="none" stroke="#008bfb" stroke-width="1.04" d="M991.85,-95.75C957.91,-84.12 892.54,-63.26 835.07,-54 701.52,-32.48 280.11,-22.35 152.23,-19.72"/>
<polygon fill="#008bfb" stroke="#008bfb" stroke-width="1.04" points="152.22,-16.21 142.15,-19.51 152.08,-23.21 152.22,-16.21"/>
<text text-anchor="middle" x="914.57" y="-57.8" font-family="Times,serif" font-size="14.00" fill="#008bfb" fill-opacity="0.384314">&#45;0.10</text>
</g>
<!-- f2&#45;&gt;y -->
<g id="edge32" class="edge">
<title>f2&#45;&gt;y</title>
<path fill="none" stroke="#ff0051" stroke-width="0.05" d="M1480.25,-97.47C1436.26,-86.22 1341.56,-63.49 1260.07,-54 1038.03,-28.14 323.07,-20.71 152.06,-19.28"/>
<polygon fill="#ff0051" stroke="#ff0051" stroke-width="0.05" points="152.07,-15.78 142.05,-19.2 152.02,-22.78 152.07,-15.78"/>
<text text-anchor="middle" x="1360.57" y="-57.8" font-family="Times,serif" font-size="14.00" fill="#ff0051" fill-opacity="0.235294">0.00</text>
</g>
<!-- volume -->
<g id="node19" class="node">
<title>volume</title>
<ellipse fill="none" stroke="black" cx="402.07" cy="-192" rx="37.89" ry="18"/>
<text text-anchor="middle" x="402.07" y="-188.3" font-family="Times,serif" font-size="14.00">volume</text>
</g>
<!-- volume&#45;&gt;f1 -->
<g id="edge33" class="edge">
<title>volume&#45;&gt;f1</title>
<path fill="none" stroke="#ff0051" stroke-width="0.05" d="M402.07,-173.8C402.07,-162.16 402.07,-146.55 402.07,-133.24"/>
<polygon fill="#ff0051" stroke="#ff0051" stroke-width="0.05" points="405.57,-133.18 402.07,-123.18 398.57,-133.18 405.57,-133.18"/>
<text text-anchor="middle" x="414.57" y="-144.8" font-family="Times,serif" font-size="14.00" fill="#ff0051" fill-opacity="0.235294">0.00</text>
</g>
<!-- volume&#45;&gt;f9 -->
<g id="edge34" class="edge">
<title>volume&#45;&gt;f9</title>
<path fill="none" stroke="#ff0051" stroke-width="0.1" d="M430.19,-179.9C436.64,-177.67 443.53,-175.54 450.07,-174 481.67,-166.54 573.57,-180.33 595.07,-156 610.63,-138.38 581.8,-124.09 555.7,-115.37"/>
<polygon fill="#ff0051" stroke="#ff0051" stroke-width="0.1" points="556.52,-111.96 545.93,-112.3 554.42,-118.64 556.52,-111.96"/>
<text text-anchor="middle" x="611.57" y="-144.8" font-family="Times,serif" font-size="14.00" fill="#ff0051" fill-opacity="0.239216">0.00</text>
</g>
<!-- volume&#45;&gt;f6 -->
<g id="edge35" class="edge">
<title>volume&#45;&gt;f6</title>
<path fill="none" stroke="#ff0051" stroke-width="0.32" d="M429.6,-179.7C436.2,-177.42 443.3,-175.33 450.07,-174 533.68,-157.6 755.68,-191.65 833.07,-156 845.24,-150.39 855.79,-140.06 863.79,-130.23"/>
<polygon fill="#ff0051" stroke="#ff0051" stroke-width="0.32" points="866.62,-132.29 869.9,-122.22 861.05,-128.05 866.62,-132.29"/>
<text text-anchor="middle" x="864.57" y="-144.8" font-family="Times,serif" font-size="14.00" fill="#ff0051" fill-opacity="0.274510">0.03</text>
</g>
<!-- void_frac -->
<g id="node20" class="node">
<title>void_frac</title>
<ellipse fill="none" stroke="black" cx="503.07" cy="-192" rx="44.39" ry="18"/>
<text text-anchor="middle" x="503.07" y="-188.3" font-family="Times,serif" font-size="14.00">void_frac</text>
</g>
<!-- void_frac&#45;&gt;f10 -->
<g id="edge36" class="edge">
<title>void_frac&#45;&gt;f10</title>
<path fill="none" stroke="#008bfb" stroke-width="0.62" d="M535.66,-179.75C542.66,-177.61 550.06,-175.56 557.07,-174 586.39,-167.46 671.28,-178.62 691.07,-156 702.6,-142.81 686.29,-129.41 668.65,-119.81"/>
<polygon fill="#008bfb" stroke="#008bfb" stroke-width="0.62" points="669.95,-116.54 659.45,-115.15 666.79,-122.79 669.95,-116.54"/>
<text text-anchor="middle" x="708.57" y="-144.8" font-family="Times,serif" font-size="14.00" fill="#008bfb" fill-opacity="0.321569">&#45;0.06</text>
</g>
<!-- VolFrac -->
<g id="node21" class="node">
<title>VolFrac</title>
<ellipse fill="none" stroke="black" cx="982.07" cy="-192" rx="38.19" ry="18"/>
<text text-anchor="middle" x="982.07" y="-188.3" font-family="Times,serif" font-size="14.00">VolFrac</text>
</g>
<!-- VolFrac&#45;&gt;f4 -->
<g id="edge37" class="edge">
<title>VolFrac&#45;&gt;f4</title>
<path fill="none" stroke="#ff0051" stroke-width="1.54" d="M1018.14,-185.65C1043.75,-182 1078.96,-177.24 1110.07,-174 1136.44,-171.25 1330.03,-175.45 1348.07,-156 1352.6,-151.11 1352.42,-146.05 1348.07,-141 1330.16,-120.26 1253.12,-127.39 1226.07,-123 1206.09,-119.76 1183.84,-115.84 1165.79,-112.58"/>
<polygon fill="#ff0051" stroke="#ff0051" stroke-width="1.54" points="1166.17,-109.09 1155.7,-110.75 1164.92,-115.98 1166.17,-109.09"/>
<text text-anchor="middle" x="1363.57" y="-144.8" font-family="Times,serif" font-size="14.00" fill="#ff0051" fill-opacity="0.462745">0.15</text>
</g>
<!-- VolFrac&#45;&gt;f6 -->
<g id="edge38" class="edge">
<title>VolFrac&#45;&gt;f6</title>
<path fill="none" stroke="#ff0051" stroke-width="0.59" d="M1019.63,-188.16C1064.41,-183.38 1130.14,-171.1 1104.07,-141 1085.69,-119.79 1006.79,-127.38 979.07,-123 958.14,-119.7 934.77,-115.7 916,-112.41"/>
<polygon fill="#ff0051" stroke="#ff0051" stroke-width="0.59" points="916.54,-108.95 906.09,-110.67 915.33,-115.85 916.54,-108.95"/>
<text text-anchor="middle" x="1121.57" y="-144.8" font-family="Times,serif" font-size="14.00" fill="#ff0051" fill-opacity="0.317647">0.05</text>
</g>
<!-- VolFrac&#45;&gt;f12 -->
<g id="edge39" class="edge">
<title>VolFrac&#45;&gt;f12</title>
<path fill="none" stroke="#008bfb" stroke-width="1.04" d="M1018.48,-186.14C1044.09,-182.73 1079.17,-178.07 1110.07,-174 1140.73,-169.96 1227.66,-179.24 1248.07,-156 1252.46,-150.99 1252.5,-145.98 1248.07,-141 1225.16,-115.26 1128.06,-128.63 1094.07,-123 1079.62,-120.61 1063.82,-117.34 1050.17,-114.31"/>
<polygon fill="#008bfb" stroke="#008bfb" stroke-width="1.04" points="1050.73,-110.85 1040.21,-112.05 1049.19,-117.67 1050.73,-110.85"/>
<text text-anchor="middle" x="1265.57" y="-144.8" font-family="Times,serif" font-size="14.00" fill="#008bfb" fill-opacity="0.384314">&#45;0.10</text>
</g>
<!-- NAV -->
<g id="node22" class="node">
<title>NAV</title>
<ellipse fill="none" stroke="black" cx="1676.07" cy="-192" rx="28.7" ry="18"/>
<text text-anchor="middle" x="1676.07" y="-188.3" font-family="Times,serif" font-size="14.00">NAV</text>
</g>
<!-- NAV&#45;&gt;f2 -->
<g id="edge40" class="edge">
<title>NAV&#45;&gt;f2</title>
<path fill="none" stroke="#ff0051" stroke-width="0.05" d="M1697.27,-179.78C1713.57,-169.7 1731.53,-154.48 1720.07,-141 1697.68,-114.68 1597.72,-108.1 1542.32,-106.49"/>
<polygon fill="#ff0051" stroke="#ff0051" stroke-width="0.05" points="1542.29,-102.99 1532.2,-106.24 1542.11,-109.99 1542.29,-102.99"/>
<text text-anchor="middle" x="1735.57" y="-144.8" font-family="Times,serif" font-size="14.00" fill="#ff0051" fill-opacity="0.235294">0.00</text>
</g>
<!-- spg -->
<g id="node23" class="node">
<title>spg</title>
<ellipse fill="none" stroke="black" cx="149.07" cy="-192" rx="27" ry="18"/>
<text text-anchor="middle" x="149.07" y="-188.3" font-family="Times,serif" font-size="14.00">spg</text>
</g>
<!-- spg&#45;&gt;f7 -->
<g id="edge41" class="edge">
<title>spg&#45;&gt;f7</title>
<path fill="none" stroke="#ff0051" stroke-width="0.05" d="M151.29,-173.8C152.8,-162.16 154.82,-146.55 156.54,-133.24"/>
<polygon fill="#ff0051" stroke="#ff0051" stroke-width="0.05" points="160.03,-133.54 157.84,-123.18 153.09,-132.64 160.03,-133.54"/>
<text text-anchor="middle" x="168.57" y="-144.8" font-family="Times,serif" font-size="14.00" fill="#ff0051" fill-opacity="0.235294">0.00</text>
</g>
<!-- spg&#45;&gt;f3 -->
<g id="edge42" class="edge">
<title>spg&#45;&gt;f3</title>
<path fill="none" stroke="#ff0051" stroke-width="0.05" d="M125.52,-182.77C96.7,-172.68 51.63,-156.8 51.07,-156 44.68,-146.94 49.15,-136.3 56.24,-127.17"/>
<polygon fill="#ff0051" stroke="#ff0051" stroke-width="0.05" points="58.93,-129.42 62.94,-119.61 53.69,-124.78 58.93,-129.42"/>
<text text-anchor="middle" x="63.57" y="-144.8" font-family="Times,serif" font-size="14.00" fill="#ff0051" fill-opacity="0.235294">0.00</text>
</g>
<!-- largest_included_sphere -->
<g id="node24" class="node">
<title>largest_included_sphere</title>
<ellipse fill="none" stroke="black" cx="1523.07" cy="-192" rx="96.38" ry="18"/>
<text text-anchor="middle" x="1523.07" y="-188.3" font-family="Times,serif" font-size="14.00">largest_included_sphere</text>
</g>
<!-- largest_included_sphere&#45;&gt;f2 -->
<g id="edge43" class="edge">
<title>largest_included_sphere&#45;&gt;f2</title>
<path fill="none" stroke="#ff0051" stroke-width="0.05" d="M1595.1,-180C1636.64,-172.92 1681.87,-163.65 1688.07,-156 1692.26,-150.82 1692.31,-146.14 1688.07,-141 1669.92,-119.05 1590.16,-110.74 1542.13,-107.69"/>
<polygon fill="#ff0051" stroke="#ff0051" stroke-width="0.05" points="1542.29,-104.19 1532.11,-107.1 1541.88,-111.18 1542.29,-104.19"/>
<text text-anchor="middle" x="1703.57" y="-144.8" font-family="Times,serif" font-size="14.00" fill="#ff0051" fill-opacity="0.235294">0.00</text>
</g>
<!-- largest_free_sphere -->
<g id="node25" class="node">
<title>largest_free_sphere</title>
<ellipse fill="none" stroke="black" cx="1310.07" cy="-192" rx="79.09" ry="18"/>
<text text-anchor="middle" x="1310.07" y="-188.3" font-family="Times,serif" font-size="14.00">largest_free_sphere</text>
</g>
<!-- largest_free_sphere&#45;&gt;f5 -->
<g id="edge44" class="edge">
<title>largest_free_sphere&#45;&gt;f5</title>
<path fill="none" stroke="#008bfb" stroke-width="1.17" d="M1371.95,-180.71C1387.02,-178.35 1403.1,-175.97 1418.07,-174 1455.73,-169.04 1562.66,-184.24 1588.07,-156 1592.52,-151.04 1592.41,-146.05 1588.07,-141 1570.62,-120.72 1495.45,-127.41 1469.07,-123 1450.16,-119.84 1429.15,-116.03 1411.9,-112.81"/>
<polygon fill="#008bfb" stroke="#008bfb" stroke-width="1.17" points="1412.16,-109.3 1401.69,-110.9 1410.87,-116.18 1412.16,-109.3"/>
<text text-anchor="middle" x="1605.57" y="-144.8" font-family="Times,serif" font-size="14.00" fill="#008bfb" fill-opacity="0.407843">&#45;0.11</text>
</g>
<!-- largest_free_sphere&#45;&gt;f2 -->
<g id="edge45" class="edge">
<title>largest_free_sphere&#45;&gt;f2</title>
<path fill="none" stroke="#ff0051" stroke-width="0.05" d="M1371.64,-180.56C1386.79,-178.19 1402.99,-175.84 1418.07,-174 1440.87,-171.21 1608.54,-172.94 1624.07,-156 1650.42,-127.25 1585.93,-114.48 1541.95,-109.25"/>
<polygon fill="#ff0051" stroke="#ff0051" stroke-width="0.05" points="1542.14,-105.75 1531.82,-108.13 1541.37,-112.71 1542.14,-105.75"/>
<text text-anchor="middle" x="1642.57" y="-144.8" font-family="Times,serif" font-size="14.00" fill="#ff0051" fill-opacity="0.235294">0.00</text>
</g>
<!-- lcd -->
<g id="node26" class="node">
<title>lcd</title>
<ellipse fill="none" stroke="black" cx="1146.07" cy="-192" rx="27" ry="18"/>
<text text-anchor="middle" x="1146.07" y="-188.3" font-family="Times,serif" font-size="14.00">lcd</text>
</g>
<!-- lcd&#45;&gt;f8 -->
<g id="edge46" class="edge">
<title>lcd&#45;&gt;f8</title>
<path fill="none" stroke="#ff0051" stroke-width="0.68" d="M1170.89,-184.53C1185.66,-180.91 1204.82,-176.61 1222.07,-174 1246.53,-170.29 1427.29,-174.19 1444.07,-156 1448.58,-151.1 1448.36,-146.1 1444.07,-141 1428.96,-123.06 1363.08,-127.5 1340.07,-123 1325.97,-120.25 1310.51,-116.94 1297.1,-113.97"/>
<polygon fill="#ff0051" stroke="#ff0051" stroke-width="0.68" points="1297.82,-110.55 1287.3,-111.79 1296.3,-117.38 1297.82,-110.55"/>
<text text-anchor="middle" x="1459.57" y="-144.8" font-family="Times,serif" font-size="14.00" fill="#ff0051" fill-opacity="0.329412">0.06</text>
</g>
<!-- lcd&#45;&gt;f5 -->
<g id="edge47" class="edge">
<title>lcd&#45;&gt;f5</title>
<path fill="none" stroke="#ff0051" stroke-width="0.38" d="M1170.88,-184.47C1185.64,-180.82 1204.81,-176.53 1222.07,-174 1250.06,-169.9 1456.78,-176.7 1476.07,-156 1498.08,-132.37 1449.25,-118.34 1412.36,-111.41"/>
<polygon fill="#ff0051" stroke="#ff0051" stroke-width="0.38" points="1412.79,-107.93 1402.34,-109.64 1411.58,-114.82 1412.79,-107.93"/>
<text text-anchor="middle" x="1493.57" y="-144.8" font-family="Times,serif" font-size="14.00" fill="#ff0051" fill-opacity="0.282353">0.03</text>
</g>
</g>
</svg>
