<?xml version="1.0" encoding="UTF-8" standalone="no"?>
<!DOCTYPE svg PUBLIC "-//W3C//DTD SVG 1.1//EN"
 "http://www.w3.org/Graphics/SVG/1.1/DTD/svg11.dtd">
<!-- Generated by graphviz version 2.49.0 (0)
 -->
<!-- Pages: 1 -->
<svg width="380pt" height="638pt"
 viewBox="0.00 0.00 380.38 638.00" xmlns="http://www.w3.org/2000/svg" xmlns:xlink="http://www.w3.org/1999/xlink">
<g id="graph0" class="graph" transform="scale(1 1) rotate(0) translate(4 634)">
<polygon fill="white" stroke="transparent" points="-4,4 -4,-634 376.38,-634 376.38,4 -4,4"/>
<!-- f8 -->
<g id="node1" class="node">
<title>f8</title>
<ellipse fill="none" stroke="black" cx="255.38" cy="-504" rx="27" ry="18"/>
<text text-anchor="middle" x="255.38" y="-500.3" font-family="Times,serif" font-size="14.00">f8</text>
</g>
<!-- y -->
<g id="node2" class="node">
<title>y</title>
<ellipse fill="none" stroke="black" cx="345.38" cy="-342" rx="27" ry="18"/>
<text text-anchor="middle" x="345.38" y="-338.3" font-family="Times,serif" font-size="14.00">y</text>
</g>
<!-- f8&#45;&gt;y -->
<g id="edge1" class="edge">
<title>f8&#45;&gt;y</title>
<path fill="none" stroke="black" d="M271.92,-489.65C275.63,-485.76 279.38,-481.41 282.38,-477 305.94,-442.46 324.52,-397.54 334.98,-369.23"/>
<polygon fill="black" stroke="black" points="338.36,-370.19 338.47,-359.6 331.77,-367.81 338.36,-370.19"/>
</g>
<!-- VolFrac -->
<g id="node3" class="node">
<title>VolFrac</title>
<ellipse fill="none" stroke="black" cx="96.19" cy="-504" rx="38.19" ry="18"/>
<text text-anchor="middle" x="96.19" y="-500.3" font-family="Times,serif" font-size="14.00">VolFrac</text>
</g>
<!-- VolFrac&#45;&gt;f8 -->
<g id="edge2" class="edge">
<title>VolFrac&#45;&gt;f8</title>
<path fill="none" stroke="black" d="M134.84,-504C160.12,-504 193.22,-504 218.19,-504"/>
<polygon fill="black" stroke="black" points="218.34,-507.5 228.34,-504 218.34,-500.5 218.34,-507.5"/>
</g>
<!-- f4 -->
<g id="node4" class="node">
<title>f4</title>
<ellipse fill="none" stroke="black" cx="255.38" cy="-396" rx="27" ry="18"/>
<text text-anchor="middle" x="255.38" y="-392.3" font-family="Times,serif" font-size="14.00">f4</text>
</g>
<!-- VolFrac&#45;&gt;f4 -->
<g id="edge3" class="edge">
<title>VolFrac&#45;&gt;f4</title>
<path fill="none" stroke="black" d="M133.75,-499.78C152.66,-496.16 175.3,-489.44 192.38,-477 215.7,-460.02 210.31,-445.48 228.38,-423 229.64,-421.44 230.96,-419.87 232.33,-418.3"/>
<polygon fill="black" stroke="black" points="235.13,-420.43 239.31,-410.7 229.97,-415.7 235.13,-420.43"/>
</g>
<!-- f2 -->
<g id="node5" class="node">
<title>f2</title>
<ellipse fill="none" stroke="black" cx="255.38" cy="-450" rx="27" ry="18"/>
<text text-anchor="middle" x="255.38" y="-446.3" font-family="Times,serif" font-size="14.00">f2</text>
</g>
<!-- VolFrac&#45;&gt;f2 -->
<g id="edge4" class="edge">
<title>VolFrac&#45;&gt;f2</title>
<path fill="none" stroke="black" d="M130.58,-495.71C149,-490.84 172.16,-484.23 192.38,-477 202.66,-473.32 213.66,-468.75 223.49,-464.43"/>
<polygon fill="black" stroke="black" points="225.17,-467.51 232.86,-460.22 222.31,-461.12 225.17,-467.51"/>
</g>
<!-- f4&#45;&gt;y -->
<g id="edge26" class="edge">
<title>f4&#45;&gt;y</title>
<path fill="none" stroke="black" d="M275.91,-384.02C287.76,-376.74 303.08,-367.34 316.23,-359.28"/>
<polygon fill="black" stroke="black" points="318.21,-362.16 324.91,-353.95 314.55,-356.2 318.21,-362.16"/>
</g>
<!-- f2&#45;&gt;y -->
<g id="edge32" class="edge">
<title>f2&#45;&gt;y</title>
<path fill="none" stroke="black" d="M271.27,-435.14C274.99,-431.27 278.9,-427.05 282.38,-423 298.06,-404.75 314.56,-383.07 326.59,-366.72"/>
<polygon fill="black" stroke="black" points="329.71,-368.39 332.78,-358.25 324.06,-364.26 329.71,-368.39"/>
</g>
<!-- pld -->
<g id="node6" class="node">
<title>pld</title>
<ellipse fill="none" stroke="black" cx="96.19" cy="-558" rx="27" ry="18"/>
<text text-anchor="middle" x="96.19" y="-554.3" font-family="Times,serif" font-size="14.00">pld</text>
</g>
<!-- pld&#45;&gt;f8 -->
<g id="edge5" class="edge">
<title>pld&#45;&gt;f8</title>
<path fill="none" stroke="black" d="M121.73,-552.01C141.13,-547.04 168.77,-539.45 192.38,-531 202.66,-527.32 213.66,-522.75 223.49,-518.43"/>
<polygon fill="black" stroke="black" points="225.17,-521.51 232.86,-514.22 222.31,-515.12 225.17,-521.51"/>
</g>
<!-- f7 -->
<g id="node7" class="node">
<title>f7</title>
<ellipse fill="none" stroke="black" cx="255.38" cy="-558" rx="27" ry="18"/>
<text text-anchor="middle" x="255.38" y="-554.3" font-family="Times,serif" font-size="14.00">f7</text>
</g>
<!-- pld&#45;&gt;f7 -->
<g id="edge6" class="edge">
<title>pld&#45;&gt;f7</title>
<path fill="none" stroke="black" d="M123.5,-558C149.42,-558 189.23,-558 218.14,-558"/>
<polygon fill="black" stroke="black" points="218.25,-561.5 228.25,-558 218.25,-554.5 218.25,-561.5"/>
</g>
<!-- f7&#45;&gt;y -->
<g id="edge16" class="edge">
<title>f7&#45;&gt;y</title>
<path fill="none" stroke="black" d="M272.28,-543.87C275.97,-539.99 279.63,-535.57 282.38,-531 313.88,-478.67 331.45,-408.43 339.3,-370.01"/>
<polygon fill="black" stroke="black" points="342.76,-370.55 341.26,-360.06 335.89,-369.19 342.76,-370.55"/>
</g>
<!-- P -->
<g id="node8" class="node">
<title>P</title>
<ellipse fill="none" stroke="black" cx="96.19" cy="-342" rx="27" ry="18"/>
<text text-anchor="middle" x="96.19" y="-338.3" font-family="Times,serif" font-size="14.00">P</text>
</g>
<!-- P&#45;&gt;f8 -->
<g id="edge7" class="edge">
<title>P&#45;&gt;f8</title>
<path fill="none" stroke="black" d="M123.48,-342.94C144.67,-345.07 173.88,-351.32 192.38,-369 228.96,-403.96 202.19,-433.71 228.38,-477 229.42,-478.71 230.58,-480.4 231.82,-482.05"/>
<polygon fill="black" stroke="black" points="229.35,-484.54 238.51,-489.86 234.67,-479.99 229.35,-484.54"/>
</g>
<!-- P&#45;&gt;y -->
<g id="edge15" class="edge">
<title>P&#45;&gt;y</title>
<path fill="none" stroke="black" d="M120.16,-333.51C155.31,-321.68 224.49,-302.94 282.38,-315 293.44,-317.3 304.95,-321.69 315.01,-326.27"/>
<polygon fill="black" stroke="black" points="313.61,-329.48 324.14,-330.66 316.64,-323.17 313.61,-329.48"/>
</g>
<!-- P&#45;&gt;f4 -->
<g id="edge11" class="edge">
<title>P&#45;&gt;f4</title>
<path fill="none" stroke="black" d="M121.73,-347.99C141.13,-352.96 168.77,-360.55 192.38,-369 202.66,-372.68 213.66,-377.25 223.49,-381.57"/>
<polygon fill="black" stroke="black" points="222.31,-384.88 232.86,-385.78 225.17,-378.49 222.31,-384.88"/>
</g>
<!-- P&#45;&gt;f2 -->
<g id="edge13" class="edge">
<title>P&#45;&gt;f2</title>
<path fill="none" stroke="black" d="M123.17,-344.43C143.61,-347.44 171.97,-354.13 192.38,-369 215.7,-385.98 210.31,-400.52 228.38,-423 229.64,-424.56 230.96,-426.13 232.33,-427.7"/>
<polygon fill="black" stroke="black" points="229.97,-430.3 239.31,-435.3 235.13,-425.57 229.97,-430.3"/>
</g>
<!-- P&#45;&gt;f7 -->
<g id="edge8" class="edge">
<title>P&#45;&gt;f7</title>
<path fill="none" stroke="black" d="M123.54,-342.42C145.05,-344.21 174.7,-350.26 192.38,-369 243.01,-422.64 193.5,-466.01 228.38,-531 229.33,-532.76 230.42,-534.49 231.62,-536.17"/>
<polygon fill="black" stroke="black" points="229.09,-538.6 238.17,-544.05 234.47,-534.13 229.09,-538.6"/>
</g>
<!-- f6 -->
<g id="node9" class="node">
<title>f6</title>
<ellipse fill="none" stroke="black" cx="255.38" cy="-250" rx="27" ry="18"/>
<text text-anchor="middle" x="255.38" y="-246.3" font-family="Times,serif" font-size="14.00">f6</text>
</g>
<!-- P&#45;&gt;f6 -->
<g id="edge9" class="edge">
<title>P&#45;&gt;f6</title>
<path fill="none" stroke="black" d="M122.92,-338.5C142.96,-334.91 170.91,-327.95 192.38,-315 201.97,-309.22 220.29,-289.49 234.54,-273.27"/>
<polygon fill="black" stroke="black" points="237.23,-275.51 241.16,-265.67 231.95,-270.92 237.23,-275.51"/>
</g>
<!-- f5 -->
<g id="node10" class="node">
<title>f5</title>
<ellipse fill="none" stroke="black" cx="255.38" cy="-196" rx="27" ry="18"/>
<text text-anchor="middle" x="255.38" y="-192.3" font-family="Times,serif" font-size="14.00">f5</text>
</g>
<!-- P&#45;&gt;f5 -->
<g id="edge10" class="edge">
<title>P&#45;&gt;f5</title>
<path fill="none" stroke="black" d="M123.25,-340.81C144.29,-338.53 173.43,-332.2 192.38,-315 224.89,-285.49 204.7,-259.97 228.38,-223 229.46,-221.32 230.66,-219.65 231.93,-218.01"/>
<polygon fill="black" stroke="black" points="234.76,-220.09 238.67,-210.24 229.47,-215.5 234.76,-220.09"/>
</g>
<!-- f3 -->
<g id="node11" class="node">
<title>f3</title>
<ellipse fill="none" stroke="black" cx="255.38" cy="-342" rx="27" ry="18"/>
<text text-anchor="middle" x="255.38" y="-338.3" font-family="Times,serif" font-size="14.00">f3</text>
</g>
<!-- P&#45;&gt;f3 -->
<g id="edge12" class="edge">
<title>P&#45;&gt;f3</title>
<path fill="none" stroke="black" d="M123.5,-342C149.42,-342 189.23,-342 218.14,-342"/>
<polygon fill="black" stroke="black" points="218.25,-345.5 228.25,-342 218.25,-338.5 218.25,-345.5"/>
</g>
<!-- f1 -->
<g id="node12" class="node">
<title>f1</title>
<ellipse fill="none" stroke="black" cx="255.38" cy="-126" rx="27" ry="18"/>
<text text-anchor="middle" x="255.38" y="-122.3" font-family="Times,serif" font-size="14.00">f1</text>
</g>
<!-- P&#45;&gt;f1 -->
<g id="edge14" class="edge">
<title>P&#45;&gt;f1</title>
<path fill="none" stroke="black" d="M123.43,-341.48C144.88,-339.62 174.48,-333.53 192.38,-315 238.82,-266.93 202.8,-230.74 228.38,-169 230.92,-162.86 234.25,-156.58 237.68,-150.77"/>
<polygon fill="black" stroke="black" points="240.74,-152.47 243.04,-142.13 234.79,-148.78 240.74,-152.47"/>
</g>
<!-- f6&#45;&gt;y -->
<g id="edge18" class="edge">
<title>f6&#45;&gt;y</title>
<path fill="none" stroke="black" d="M270.91,-265.19C285.14,-280.06 306.97,-302.88 323.14,-319.79"/>
<polygon fill="black" stroke="black" points="320.68,-322.28 330.12,-327.09 325.74,-317.45 320.68,-322.28"/>
</g>
<!-- f5&#45;&gt;y -->
<g id="edge23" class="edge">
<title>f5&#45;&gt;y</title>
<path fill="none" stroke="black" d="M271.77,-210.46C275.48,-214.34 279.27,-218.67 282.38,-223 303.63,-252.55 322.04,-290.36 333.16,-315.34"/>
<polygon fill="black" stroke="black" points="329.98,-316.8 337.19,-324.56 336.39,-314 329.98,-316.8"/>
</g>
<!-- f3&#45;&gt;y -->
<g id="edge31" class="edge">
<title>f3&#45;&gt;y</title>
<path fill="none" stroke="black" d="M282.79,-342C290.78,-342 299.69,-342 308.21,-342"/>
<polygon fill="black" stroke="black" points="308.3,-345.5 318.3,-342 308.3,-338.5 308.3,-345.5"/>
</g>
<!-- f1&#45;&gt;y -->
<g id="edge33" class="edge">
<title>f1&#45;&gt;y</title>
<path fill="none" stroke="black" d="M267.31,-142.32C272.29,-150.18 278.04,-159.86 282.38,-169 305.98,-218.61 325.88,-279.75 336.39,-314.47"/>
<polygon fill="black" stroke="black" points="333.12,-315.77 339.34,-324.35 339.83,-313.77 333.12,-315.77"/>
</g>
<!-- surf_area_m2g -->
<g id="node13" class="node">
<title>surf_area_m2g</title>
<ellipse fill="none" stroke="black" cx="96.19" cy="-612" rx="63.89" ry="18"/>
<text text-anchor="middle" x="96.19" y="-608.3" font-family="Times,serif" font-size="14.00">surf_area_m2g</text>
</g>
<!-- surf_area_m2g&#45;&gt;f7 -->
<g id="edge17" class="edge">
<title>surf_area_m2g&#45;&gt;f7</title>
<path fill="none" stroke="black" d="M144.07,-600.05C159.59,-595.74 176.86,-590.55 192.38,-585 202.66,-581.32 213.66,-576.75 223.49,-572.43"/>
<polygon fill="black" stroke="black" points="225.17,-575.51 232.86,-568.22 222.31,-569.12 225.17,-575.51"/>
</g>
<!-- surf_area_m2cm3 -->
<g id="node14" class="node">
<title>surf_area_m2cm3</title>
<ellipse fill="none" stroke="black" cx="96.19" cy="-126" rx="75.29" ry="18"/>
<text text-anchor="middle" x="96.19" y="-122.3" font-family="Times,serif" font-size="14.00">surf_area_m2cm3</text>
</g>
<!-- surf_area_m2cm3&#45;&gt;f6 -->
<g id="edge19" class="edge">
<title>surf_area_m2cm3&#45;&gt;f6</title>
<path fill="none" stroke="black" d="M159.69,-135.82C171.42,-139.76 182.95,-145.27 192.38,-153 219.45,-175.16 208.03,-194.54 228.38,-223 229.55,-224.63 230.81,-226.25 232.12,-227.86"/>
<polygon fill="black" stroke="black" points="229.71,-230.41 238.98,-235.55 234.94,-225.76 229.71,-230.41"/>
</g>
<!-- surf_area_m2cm3&#45;&gt;f5 -->
<g id="edge20" class="edge">
<title>surf_area_m2cm3&#45;&gt;f5</title>
<path fill="none" stroke="black" d="M152.19,-138.27C165.65,-142.17 179.8,-147.06 192.38,-153 205.37,-159.14 218.61,-167.91 229.5,-175.93"/>
<polygon fill="black" stroke="black" points="227.6,-178.88 237.69,-182.14 231.83,-173.31 227.6,-178.88"/>
</g>
<!-- surf_area_m2cm3&#45;&gt;f1 -->
<g id="edge21" class="edge">
<title>surf_area_m2cm3&#45;&gt;f1</title>
<path fill="none" stroke="black" d="M171.64,-126C187.83,-126 204.26,-126 218.16,-126"/>
<polygon fill="black" stroke="black" points="218.25,-129.5 228.25,-126 218.25,-122.5 218.25,-129.5"/>
</g>
<!-- volume -->
<g id="node15" class="node">
<title>volume</title>
<ellipse fill="none" stroke="black" cx="96.19" cy="-288" rx="37.89" ry="18"/>
<text text-anchor="middle" x="96.19" y="-284.3" font-family="Times,serif" font-size="14.00">volume</text>
</g>
<!-- volume&#45;&gt;f6 -->
<g id="edge22" class="edge">
<title>volume&#45;&gt;f6</title>
<path fill="none" stroke="black" d="M130.14,-280.03C156.37,-273.69 192.98,-264.84 219.66,-258.39"/>
<polygon fill="black" stroke="black" points="220.81,-261.72 229.71,-255.96 219.17,-254.91 220.81,-261.72"/>
</g>
<!-- NASA -->
<g id="node16" class="node">
<title>NASA</title>
<ellipse fill="none" stroke="black" cx="96.19" cy="-234" rx="34.39" ry="18"/>
<text text-anchor="middle" x="96.19" y="-230.3" font-family="Times,serif" font-size="14.00">NASA</text>
</g>
<!-- NASA&#45;&gt;f5 -->
<g id="edge24" class="edge">
<title>NASA&#45;&gt;f5</title>
<path fill="none" stroke="black" d="M127.87,-226.58C154.18,-220.22 192.06,-211.07 219.5,-204.43"/>
<polygon fill="black" stroke="black" points="220.57,-207.78 229.47,-202.02 218.92,-200.97 220.57,-207.78"/>
</g>
<!-- spg -->
<g id="node17" class="node">
<title>spg</title>
<ellipse fill="none" stroke="black" cx="96.19" cy="-180" rx="27" ry="18"/>
<text text-anchor="middle" x="96.19" y="-176.3" font-family="Times,serif" font-size="14.00">spg</text>
</g>
<!-- spg&#45;&gt;f5 -->
<g id="edge25" class="edge">
<title>spg&#45;&gt;f5</title>
<path fill="none" stroke="black" d="M123.15,-182.64C149.17,-185.29 189.42,-189.39 218.49,-192.35"/>
<polygon fill="black" stroke="black" points="218.35,-195.85 228.65,-193.38 219.05,-188.89 218.35,-195.85"/>
</g>
<!-- AV -->
<g id="node18" class="node">
<title>AV</title>
<ellipse fill="none" stroke="black" cx="96.19" cy="-450" rx="27" ry="18"/>
<text text-anchor="middle" x="96.19" y="-446.3" font-family="Times,serif" font-size="14.00">AV</text>
</g>
<!-- AV&#45;&gt;f4 -->
<g id="edge27" class="edge">
<title>AV&#45;&gt;f4</title>
<path fill="none" stroke="black" d="M121.73,-444.01C141.13,-439.04 168.77,-431.45 192.38,-423 202.66,-419.32 213.66,-414.75 223.49,-410.43"/>
<polygon fill="black" stroke="black" points="225.17,-413.51 232.86,-406.22 222.31,-407.12 225.17,-413.51"/>
</g>
<!-- AV&#45;&gt;f2 -->
<g id="edge28" class="edge">
<title>AV&#45;&gt;f2</title>
<path fill="none" stroke="black" d="M123.5,-450C149.42,-450 189.23,-450 218.14,-450"/>
<polygon fill="black" stroke="black" points="218.25,-453.5 228.25,-450 218.25,-446.5 218.25,-453.5"/>
</g>
<!-- void_frac -->
<g id="node19" class="node">
<title>void_frac</title>
<ellipse fill="none" stroke="black" cx="96.19" cy="-396" rx="44.39" ry="18"/>
<text text-anchor="middle" x="96.19" y="-392.3" font-family="Times,serif" font-size="14.00">void_frac</text>
</g>
<!-- void_frac&#45;&gt;f4 -->
<g id="edge29" class="edge">
<title>void_frac&#45;&gt;f4</title>
<path fill="none" stroke="black" d="M140.56,-396C164.99,-396 195.15,-396 218.28,-396"/>
<polygon fill="black" stroke="black" points="218.37,-399.5 228.37,-396 218.37,-392.5 218.37,-399.5"/>
</g>
<!-- void_frac&#45;&gt;f3 -->
<g id="edge30" class="edge">
<title>void_frac&#45;&gt;f3</title>
<path fill="none" stroke="black" d="M134.17,-386.75C151.95,-381.99 173.46,-375.77 192.38,-369 202.66,-365.32 213.66,-360.75 223.49,-356.43"/>
<polygon fill="black" stroke="black" points="225.17,-359.51 232.86,-352.22 222.31,-353.12 225.17,-359.51"/>
</g>
<!-- largest_included_sphere -->
<g id="node20" class="node">
<title>largest_included_sphere</title>
<ellipse fill="none" stroke="black" cx="96.19" cy="-72" rx="96.38" ry="18"/>
<text text-anchor="middle" x="96.19" y="-68.3" font-family="Times,serif" font-size="14.00">largest_included_sphere</text>
</g>
<!-- largest_included_sphere&#45;&gt;f1 -->
<g id="edge34" class="edge">
<title>largest_included_sphere&#45;&gt;f1</title>
<path fill="none" stroke="black" d="M153.21,-86.53C166.18,-90.27 179.85,-94.52 192.38,-99 202.66,-102.68 213.66,-107.25 223.49,-111.57"/>
<polygon fill="black" stroke="black" points="222.31,-114.88 232.86,-115.78 225.17,-108.49 222.31,-114.88"/>
</g>
<!-- NAV -->
<g id="node21" class="node">
<title>NAV</title>
<ellipse fill="none" stroke="black" cx="96.19" cy="-18" rx="28.7" ry="18"/>
<text text-anchor="middle" x="96.19" y="-14.3" font-family="Times,serif" font-size="14.00">NAV</text>
</g>
<!-- NAV&#45;&gt;f1 -->
<g id="edge35" class="edge">
<title>NAV&#45;&gt;f1</title>
<path fill="none" stroke="black" d="M124.58,-21.07C144.74,-24.39 172.07,-31.19 192.38,-45 213.09,-59.07 229.83,-82.3 240.67,-100.28"/>
<polygon fill="black" stroke="black" points="237.76,-102.23 245.8,-109.13 243.82,-98.72 237.76,-102.23"/>
</g>
</g>
</svg>
