<?xml version="1.0" encoding="UTF-8" standalone="no"?>
<!DOCTYPE svg PUBLIC "-//W3C//DTD SVG 1.1//EN"
 "http://www.w3.org/Graphics/SVG/1.1/DTD/svg11.dtd">
<!-- Generated by graphviz version 2.49.0 (0)
 -->
<!-- Pages: 1 -->
<svg width="1753pt" height="218pt"
 viewBox="0.00 0.00 1753.29 218.00" xmlns="http://www.w3.org/2000/svg" xmlns:xlink="http://www.w3.org/1999/xlink">
<g id="graph0" class="graph" transform="scale(1 1) rotate(0) translate(4 214)">
<polygon fill="white" stroke="transparent" points="-4,4 -4,-214 1749.29,-214 1749.29,4 -4,4"/>
<!-- f1 -->
<g id="node1" class="node">
<title>f1</title>
<ellipse fill="none" stroke="black" cx="1562.69" cy="-105" rx="27" ry="18"/>
<text text-anchor="middle" x="1562.69" y="-101.3" font-family="Times,serif" font-size="14.00">f1</text>
</g>
<!-- y -->
<g id="node2" class="node">
<title>y</title>
<ellipse fill="none" stroke="black" cx="79.69" cy="-18" rx="27" ry="18"/>
<text text-anchor="middle" x="79.69" y="-14.3" font-family="Times,serif" font-size="14.00">y</text>
</g>
<!-- f1&#45;&gt;y -->
<g id="edge1" class="edge">
<title>f1&#45;&gt;y</title>
<path fill="none" stroke="#ff0051" stroke-width="0.05" d="M1537.28,-98.61C1518.43,-94.81 1492.07,-89.89 1468.69,-87 935.25,-20.94 279.12,-18.35 117.14,-18.8"/>
<polygon fill="#ff0051" stroke="#ff0051" stroke-width="0.05" points="116.76,-15.3 106.77,-18.83 116.78,-22.3 116.76,-15.3"/>
<text text-anchor="middle" x="1293.19" y="-57.8" font-family="Times,serif" font-size="14.00" fill="#ff0051" fill-opacity="0.235294">0.00</text>
</g>
<!-- largest_included_sphere -->
<g id="node3" class="node">
<title>largest_included_sphere</title>
<ellipse fill="none" stroke="black" cx="1573.69" cy="-192" rx="96.38" ry="18"/>
<text text-anchor="middle" x="1573.69" y="-188.3" font-family="Times,serif" font-size="14.00">largest_included_sphere</text>
</g>
<!-- largest_included_sphere&#45;&gt;f1 -->
<g id="edge2" class="edge">
<title>largest_included_sphere&#45;&gt;f1</title>
<path fill="none" stroke="#ff0051" stroke-width="0.05" d="M1571.47,-173.8C1569.96,-162.16 1567.94,-146.55 1566.22,-133.24"/>
<polygon fill="#ff0051" stroke="#ff0051" stroke-width="0.05" points="1569.67,-132.64 1564.92,-123.18 1562.73,-133.54 1569.67,-132.64"/>
<text text-anchor="middle" x="1581.19" y="-144.8" font-family="Times,serif" font-size="14.00" fill="#ff0051" fill-opacity="0.235294">0.00</text>
</g>
<!-- f7 -->
<g id="node4" class="node">
<title>f7</title>
<ellipse fill="none" stroke="black" cx="43.69" cy="-105" rx="27" ry="18"/>
<text text-anchor="middle" x="43.69" y="-101.3" font-family="Times,serif" font-size="14.00">f7</text>
</g>
<!-- f7&#45;&gt;y -->
<g id="edge3" class="edge">
<title>f7&#45;&gt;y</title>
<path fill="none" stroke="#ff0051" stroke-width="0.05" d="M50.81,-87.21C55.92,-75.14 62.91,-58.64 68.73,-44.89"/>
<polygon fill="#ff0051" stroke="#ff0051" stroke-width="0.05" points="72.04,-46.04 72.72,-35.47 65.6,-43.31 72.04,-46.04"/>
<text text-anchor="middle" x="77.19" y="-57.8" font-family="Times,serif" font-size="14.00" fill="#ff0051" fill-opacity="0.235294">0.00</text>
</g>
<!-- surf_area_m2cm3 -->
<g id="node5" class="node">
<title>surf_area_m2cm3</title>
<ellipse fill="none" stroke="black" cx="1288.69" cy="-192" rx="75.29" ry="18"/>
<text text-anchor="middle" x="1288.69" y="-188.3" font-family="Times,serif" font-size="14.00">surf_area_m2cm3</text>
</g>
<!-- surf_area_m2cm3&#45;&gt;f1 -->
<g id="edge4" class="edge">
<title>surf_area_m2cm3&#45;&gt;f1</title>
<path fill="none" stroke="#ff0051" stroke-width="0.05" d="M1319.79,-175.52C1342.57,-164.67 1374.49,-150.46 1403.69,-141 1445.06,-127.59 1494.13,-117.66 1526.71,-111.87"/>
<polygon fill="#ff0051" stroke="#ff0051" stroke-width="0.05" points="1527.42,-115.3 1536.68,-110.13 1526.22,-108.4 1527.42,-115.3"/>
<text text-anchor="middle" x="1416.19" y="-144.8" font-family="Times,serif" font-size="14.00" fill="#ff0051" fill-opacity="0.235294">0.00</text>
</g>
<!-- f5 -->
<g id="node6" class="node">
<title>f5</title>
<ellipse fill="none" stroke="black" cx="1432.69" cy="-105" rx="27" ry="18"/>
<text text-anchor="middle" x="1432.69" y="-101.3" font-family="Times,serif" font-size="14.00">f5</text>
</g>
<!-- surf_area_m2cm3&#45;&gt;f5 -->
<g id="edge5" class="edge">
<title>surf_area_m2cm3&#45;&gt;f5</title>
<path fill="none" stroke="#ff0051" stroke-width="0.05" d="M1284.2,-173.94C1282.49,-163.35 1282.42,-150.08 1289.69,-141 1302.84,-124.59 1358.16,-114.82 1396.01,-109.93"/>
<polygon fill="#ff0051" stroke="#ff0051" stroke-width="0.05" points="1396.67,-113.37 1406.17,-108.68 1395.82,-106.42 1396.67,-113.37"/>
<text text-anchor="middle" x="1302.19" y="-144.8" font-family="Times,serif" font-size="14.00" fill="#ff0051" fill-opacity="0.235294">0.00</text>
</g>
<!-- f6 -->
<g id="node7" class="node">
<title>f6</title>
<ellipse fill="none" stroke="black" cx="860.69" cy="-105" rx="27" ry="18"/>
<text text-anchor="middle" x="860.69" y="-101.3" font-family="Times,serif" font-size="14.00">f6</text>
</g>
<!-- surf_area_m2cm3&#45;&gt;f6 -->
<g id="edge6" class="edge">
<title>surf_area_m2cm3&#45;&gt;f6</title>
<path fill="none" stroke="#008bfb" stroke-width="0.07" d="M1266.88,-174.59C1250.42,-163.13 1226.8,-148.57 1203.69,-141 1147.6,-122.62 974.36,-111.79 897.76,-107.78"/>
<polygon fill="#008bfb" stroke="#008bfb" stroke-width="0.07" points="897.79,-104.28 887.62,-107.26 897.43,-111.27 897.79,-104.28"/>
<text text-anchor="middle" x="1250.19" y="-144.8" font-family="Times,serif" font-size="14.00" fill="#008bfb" fill-opacity="0.235294">&#45;0.00</text>
</g>
<!-- f5&#45;&gt;y -->
<g id="edge7" class="edge">
<title>f5&#45;&gt;y</title>
<path fill="none" stroke="#008bfb" stroke-width="0.27" d="M1405.83,-101.89C1313.07,-94.64 997.55,-70.32 736.69,-54 500.76,-39.24 216.91,-25.47 116.81,-20.74"/>
<polygon fill="#008bfb" stroke="#008bfb" stroke-width="0.27" points="116.77,-17.23 106.61,-20.26 116.44,-24.22 116.77,-17.23"/>
<text text-anchor="middle" x="962.19" y="-57.8" font-family="Times,serif" font-size="14.00" fill="#008bfb" fill-opacity="0.266667">&#45;0.01</text>
</g>
<!-- f6&#45;&gt;y -->
<g id="edge8" class="edge">
<title>f6&#45;&gt;y</title>
<path fill="none" stroke="#ff0051" stroke-width="0.09" d="M836.02,-97.66C792.74,-86.8 700.19,-64.8 620.69,-54 432.49,-28.44 204.84,-21.43 116.87,-19.6"/>
<polygon fill="#ff0051" stroke="#ff0051" stroke-width="0.09" points="116.92,-16.11 106.85,-19.41 116.78,-23.1 116.92,-16.11"/>
<text text-anchor="middle" x="720.19" y="-57.8" font-family="Times,serif" font-size="14.00" fill="#ff0051" fill-opacity="0.239216">0.00</text>
</g>
<!-- volume -->
<g id="node8" class="node">
<title>volume</title>
<ellipse fill="none" stroke="black" cx="917.69" cy="-192" rx="37.89" ry="18"/>
<text text-anchor="middle" x="917.69" y="-188.3" font-family="Times,serif" font-size="14.00">volume</text>
</g>
<!-- volume&#45;&gt;f6 -->
<g id="edge9" class="edge">
<title>volume&#45;&gt;f6</title>
<path fill="none" stroke="#ff0051" stroke-width="0.11" d="M916.84,-173.66C915.65,-163.48 912.91,-150.74 906.69,-141 902.29,-134.1 896.02,-128.05 889.52,-123"/>
<polygon fill="#ff0051" stroke="#ff0051" stroke-width="0.11" points="891.48,-120.09 881.3,-117.15 887.42,-125.8 891.48,-120.09"/>
<text text-anchor="middle" x="926.19" y="-144.8" font-family="Times,serif" font-size="14.00" fill="#ff0051" fill-opacity="0.243137">0.00</text>
</g>
<!-- surf_area_m2g -->
<g id="node9" class="node">
<title>surf_area_m2g</title>
<ellipse fill="none" stroke="black" cx="63.69" cy="-192" rx="63.89" ry="18"/>
<text text-anchor="middle" x="63.69" y="-188.3" font-family="Times,serif" font-size="14.00">surf_area_m2g</text>
</g>
<!-- surf_area_m2g&#45;&gt;f7 -->
<g id="edge10" class="edge">
<title>surf_area_m2g&#45;&gt;f7</title>
<path fill="none" stroke="#ff0051" stroke-width="0.05" d="M32.66,-176.07C25.09,-170.84 17.95,-164.18 13.69,-156 8.61,-146.24 13.26,-135.75 20.28,-126.91"/>
<polygon fill="#ff0051" stroke="#ff0051" stroke-width="0.05" points="23.05,-129.08 27.2,-119.33 17.87,-124.36 23.05,-129.08"/>
<text text-anchor="middle" x="26.19" y="-144.8" font-family="Times,serif" font-size="14.00" fill="#ff0051" fill-opacity="0.235294">0.00</text>
</g>
<!-- f4 -->
<g id="node10" class="node">
<title>f4</title>
<ellipse fill="none" stroke="black" cx="436.69" cy="-105" rx="27" ry="18"/>
<text text-anchor="middle" x="436.69" y="-101.3" font-family="Times,serif" font-size="14.00">f4</text>
</g>
<!-- f4&#45;&gt;y -->
<g id="edge11" class="edge">
<title>f4&#45;&gt;y</title>
<path fill="none" stroke="#ff0051" stroke-width="0.37" d="M411.66,-97.84C372.91,-88.31 296.04,-69.5 230.69,-54 190.94,-44.57 145.22,-34.01 114.6,-26.98"/>
<polygon fill="#ff0051" stroke="#ff0051" stroke-width="0.37" points="115.36,-23.57 104.83,-24.74 113.79,-30.39 115.36,-23.57"/>
<text text-anchor="middle" x="306.19" y="-57.8" font-family="Times,serif" font-size="14.00" fill="#ff0051" fill-opacity="0.282353">0.01</text>
</g>
<!-- AV -->
<g id="node11" class="node">
<title>AV</title>
<ellipse fill="none" stroke="black" cx="347.69" cy="-192" rx="27" ry="18"/>
<text text-anchor="middle" x="347.69" y="-188.3" font-family="Times,serif" font-size="14.00">AV</text>
</g>
<!-- AV&#45;&gt;f4 -->
<g id="edge12" class="edge">
<title>AV&#45;&gt;f4</title>
<path fill="none" stroke="#ff0051" stroke-width="0.26" d="M374.18,-187.67C408.43,-182.75 465.18,-172.33 477.69,-156 486.13,-145 476.88,-132.97 465.05,-123.47"/>
<polygon fill="#ff0051" stroke="#ff0051" stroke-width="0.26" points="466.78,-120.4 456.64,-117.35 462.66,-126.06 466.78,-120.4"/>
<text text-anchor="middle" x="494.19" y="-144.8" font-family="Times,serif" font-size="14.00" fill="#ff0051" fill-opacity="0.266667">0.01</text>
</g>
<!-- f2 -->
<g id="node12" class="node">
<title>f2</title>
<ellipse fill="none" stroke="black" cx="288.69" cy="-105" rx="27" ry="18"/>
<text text-anchor="middle" x="288.69" y="-101.3" font-family="Times,serif" font-size="14.00">f2</text>
</g>
<!-- AV&#45;&gt;f2 -->
<g id="edge13" class="edge">
<title>AV&#45;&gt;f2</title>
<path fill="none" stroke="#008bfb" stroke-width="0.8" d="M336.87,-175.41C328.11,-162.79 315.62,-144.79 305.55,-130.28"/>
<polygon fill="#008bfb" stroke="#008bfb" stroke-width="0.8" points="308.22,-128 299.65,-121.78 302.47,-131.99 308.22,-128"/>
<text text-anchor="middle" x="337.19" y="-144.8" font-family="Times,serif" font-size="14.00" fill="#008bfb" fill-opacity="0.349020">&#45;0.03</text>
</g>
<!-- f2&#45;&gt;y -->
<g id="edge14" class="edge">
<title>f2&#45;&gt;y</title>
<path fill="none" stroke="#008bfb" stroke-width="1.8" d="M266.33,-94.9C229.11,-79.77 154.33,-49.35 111.59,-31.97"/>
<polygon fill="#008bfb" stroke="#008bfb" stroke-width="1.8" points="112.8,-28.68 102.22,-28.16 110.16,-35.17 112.8,-28.68"/>
<text text-anchor="middle" x="212.19" y="-57.8" font-family="Times,serif" font-size="14.00" fill="#008bfb" fill-opacity="0.501961">&#45;0.08</text>
</g>
<!-- spg -->
<g id="node13" class="node">
<title>spg</title>
<ellipse fill="none" stroke="black" cx="1432.69" cy="-192" rx="27" ry="18"/>
<text text-anchor="middle" x="1432.69" y="-188.3" font-family="Times,serif" font-size="14.00">spg</text>
</g>
<!-- spg&#45;&gt;f5 -->
<g id="edge15" class="edge">
<title>spg&#45;&gt;f5</title>
<path fill="none" stroke="#ff0051" stroke-width="0.05" d="M1432.69,-173.8C1432.69,-162.16 1432.69,-146.55 1432.69,-133.24"/>
<polygon fill="#ff0051" stroke="#ff0051" stroke-width="0.05" points="1436.19,-133.18 1432.69,-123.18 1429.19,-133.18 1436.19,-133.18"/>
<text text-anchor="middle" x="1445.19" y="-144.8" font-family="Times,serif" font-size="14.00" fill="#ff0051" fill-opacity="0.235294">0.00</text>
</g>
<!-- NAV -->
<g id="node14" class="node">
<title>NAV</title>
<ellipse fill="none" stroke="black" cx="1716.69" cy="-192" rx="28.7" ry="18"/>
<text text-anchor="middle" x="1716.69" y="-188.3" font-family="Times,serif" font-size="14.00">NAV</text>
</g>
<!-- NAV&#45;&gt;f1 -->
<g id="edge16" class="edge">
<title>NAV&#45;&gt;f1</title>
<path fill="none" stroke="#ff0051" stroke-width="0.05" d="M1695.93,-179.54C1669.14,-164.75 1622.39,-138.95 1592,-122.18"/>
<polygon fill="#ff0051" stroke="#ff0051" stroke-width="0.05" points="1593.58,-119.05 1583.13,-117.28 1590.2,-125.18 1593.58,-119.05"/>
<text text-anchor="middle" x="1661.19" y="-144.8" font-family="Times,serif" font-size="14.00" fill="#ff0051" fill-opacity="0.235294">0.00</text>
</g>
<!-- NASA -->
<g id="node15" class="node">
<title>NASA</title>
<ellipse fill="none" stroke="black" cx="1109.69" cy="-192" rx="34.39" ry="18"/>
<text text-anchor="middle" x="1109.69" y="-188.3" font-family="Times,serif" font-size="14.00">NASA</text>
</g>
<!-- NASA&#45;&gt;f5 -->
<g id="edge17" class="edge">
<title>NASA&#45;&gt;f5</title>
<path fill="none" stroke="#008bfb" stroke-width="0.27" d="M1124.76,-175.67C1137.07,-164.14 1155.51,-149 1174.69,-141 1248.65,-110.14 1343.91,-105.24 1395.5,-105.14"/>
<polygon fill="#008bfb" stroke="#008bfb" stroke-width="0.27" points="1395.5,-108.64 1405.51,-105.18 1395.53,-101.64 1395.5,-108.64"/>
<text text-anchor="middle" x="1189.19" y="-144.8" font-family="Times,serif" font-size="14.00" fill="#008bfb" fill-opacity="0.266667">&#45;0.01</text>
</g>
<!-- pld -->
<g id="node16" class="node">
<title>pld</title>
<ellipse fill="none" stroke="black" cx="177.69" cy="-192" rx="27" ry="18"/>
<text text-anchor="middle" x="177.69" y="-188.3" font-family="Times,serif" font-size="14.00">pld</text>
</g>
<!-- pld&#45;&gt;f7 -->
<g id="edge18" class="edge">
<title>pld&#45;&gt;f7</title>
<path fill="none" stroke="#ff0051" stroke-width="0.05" d="M155.41,-181.72C132.06,-171.96 98.37,-157.77 95.69,-156 84.11,-148.33 72.8,-137.92 63.7,-128.58"/>
<polygon fill="#ff0051" stroke="#ff0051" stroke-width="0.05" points="66.03,-125.95 56.62,-121.08 60.94,-130.75 66.03,-125.95"/>
<text text-anchor="middle" x="108.19" y="-144.8" font-family="Times,serif" font-size="14.00" fill="#ff0051" fill-opacity="0.235294">0.00</text>
</g>
<!-- f8 -->
<g id="node17" class="node">
<title>f8</title>
<ellipse fill="none" stroke="black" cx="130.69" cy="-105" rx="27" ry="18"/>
<text text-anchor="middle" x="130.69" y="-101.3" font-family="Times,serif" font-size="14.00">f8</text>
</g>
<!-- pld&#45;&gt;f8 -->
<g id="edge19" class="edge">
<title>pld&#45;&gt;f8</title>
<path fill="none" stroke="#ff0051" stroke-width="0.1" d="M155.59,-181.55C145.11,-175.81 133.62,-167.37 127.69,-156 124.11,-149.11 123.39,-140.93 123.97,-133.21"/>
<polygon fill="#ff0051" stroke="#ff0051" stroke-width="0.1" points="127.47,-133.53 125.44,-123.13 120.54,-132.52 127.47,-133.53"/>
<text text-anchor="middle" x="140.19" y="-144.8" font-family="Times,serif" font-size="14.00" fill="#ff0051" fill-opacity="0.239216">0.00</text>
</g>
<!-- f8&#45;&gt;y -->
<g id="edge20" class="edge">
<title>f8&#45;&gt;y</title>
<path fill="none" stroke="#008bfb" stroke-width="0.06" d="M121.1,-88.01C113.62,-75.55 103.1,-58.01 94.54,-43.74"/>
<polygon fill="#008bfb" stroke="#008bfb" stroke-width="0.06" points="97.39,-41.69 89.24,-34.92 91.39,-45.29 97.39,-41.69"/>
<text text-anchor="middle" x="123.19" y="-57.8" font-family="Times,serif" font-size="14.00" fill="#008bfb" fill-opacity="0.235294">&#45;0.00</text>
</g>
<!-- VolFrac -->
<g id="node18" class="node">
<title>VolFrac</title>
<ellipse fill="none" stroke="black" cx="263.69" cy="-192" rx="38.19" ry="18"/>
<text text-anchor="middle" x="263.69" y="-188.3" font-family="Times,serif" font-size="14.00">VolFrac</text>
</g>
<!-- VolFrac&#45;&gt;f4 -->
<g id="edge21" class="edge">
<title>VolFrac&#45;&gt;f4</title>
<path fill="none" stroke="#008bfb" stroke-width="0.06" d="M292.37,-179.88C298.67,-177.71 305.35,-175.61 311.69,-174 361.41,-161.38 388.35,-191.17 425.69,-156 431.95,-150.11 435.05,-141.53 436.48,-133.15"/>
<polygon fill="#008bfb" stroke="#008bfb" stroke-width="0.06" points="439.97,-133.5 437.51,-123.2 433,-132.79 439.97,-133.5"/>
<text text-anchor="middle" x="449.19" y="-144.8" font-family="Times,serif" font-size="14.00" fill="#008bfb" fill-opacity="0.235294">&#45;0.00</text>
</g>
<!-- VolFrac&#45;&gt;f2 -->
<g id="edge22" class="edge">
<title>VolFrac&#45;&gt;f2</title>
<path fill="none" stroke="#008bfb" stroke-width="1.05" d="M268.75,-173.8C272.23,-161.97 276.92,-146.03 280.88,-132.58"/>
<polygon fill="#008bfb" stroke="#008bfb" stroke-width="1.05" points="284.26,-133.47 283.73,-122.89 277.55,-131.49 284.26,-133.47"/>
<text text-anchor="middle" x="292.19" y="-144.8" font-family="Times,serif" font-size="14.00" fill="#008bfb" fill-opacity="0.388235">&#45;0.04</text>
</g>
<!-- VolFrac&#45;&gt;f8 -->
<g id="edge23" class="edge">
<title>VolFrac&#45;&gt;f8</title>
<path fill="none" stroke="#008bfb" stroke-width="0.11" d="M233.48,-180.65C212.04,-172.99 185.41,-162.76 175.69,-156 165.42,-148.85 155.86,-138.92 148.22,-129.79"/>
<polygon fill="#008bfb" stroke="#008bfb" stroke-width="0.11" points="150.76,-127.36 141.77,-121.74 145.29,-131.73 150.76,-127.36"/>
<text text-anchor="middle" x="190.19" y="-144.8" font-family="Times,serif" font-size="14.00" fill="#008bfb" fill-opacity="0.243137">&#45;0.00</text>
</g>
<!-- void_frac -->
<g id="node19" class="node">
<title>void_frac</title>
<ellipse fill="none" stroke="black" cx="521.69" cy="-192" rx="44.39" ry="18"/>
<text text-anchor="middle" x="521.69" y="-188.3" font-family="Times,serif" font-size="14.00">void_frac</text>
</g>
<!-- void_frac&#45;&gt;f4 -->
<g id="edge24" class="edge">
<title>void_frac&#45;&gt;f4</title>
<path fill="none" stroke="#ff0051" stroke-width="0.17" d="M528.16,-173.86C530.9,-163.5 532.17,-150.5 525.69,-141 513.97,-123.79 492.36,-115.04 473.37,-110.59"/>
<polygon fill="#ff0051" stroke="#ff0051" stroke-width="0.17" points="473.96,-107.14 463.46,-108.59 472.57,-114 473.96,-107.14"/>
<text text-anchor="middle" x="543.19" y="-144.8" font-family="Times,serif" font-size="14.00" fill="#ff0051" fill-opacity="0.250980">0.01</text>
</g>
<!-- f3 -->
<g id="node20" class="node">
<title>f3</title>
<ellipse fill="none" stroke="black" cx="626.69" cy="-105" rx="27" ry="18"/>
<text text-anchor="middle" x="626.69" y="-101.3" font-family="Times,serif" font-size="14.00">f3</text>
</g>
<!-- void_frac&#45;&gt;f3 -->
<g id="edge25" class="edge">
<title>void_frac&#45;&gt;f3</title>
<path fill="none" stroke="#ff0051" stroke-width="5" d="M559.14,-182.28C603.55,-171.94 671.64,-156.07 671.69,-156 681.01,-144.26 669.67,-131.72 656.05,-122.14"/>
<polygon fill="#ff0051" stroke="#ff0051" stroke-width="5" points="658.21,-118.33 647.44,-116.59 653.47,-125.68 658.21,-118.33"/>
<text text-anchor="middle" x="688.19" y="-144.8" font-family="Times,serif" font-size="14.00" fill="#ff0051">0.22</text>
</g>
<!-- f3&#45;&gt;y -->
<g id="edge26" class="edge">
<title>f3&#45;&gt;y</title>
<path fill="none" stroke="#ff0051" stroke-width="5" d="M600.7,-99.54C548.2,-90.59 425.77,-69.9 322.69,-54 249.46,-42.7 163.63,-30.61 116.08,-24.01"/>
<polygon fill="#ff0051" stroke="#ff0051" stroke-width="5" points="116.48,-19.65 105.97,-22.61 115.27,-28.32 116.48,-19.65"/>
<text text-anchor="middle" x="428.19" y="-57.8" font-family="Times,serif" font-size="14.00" fill="#ff0051">0.22</text>
</g>
<!-- P -->
<g id="node21" class="node">
<title>P</title>
<ellipse fill="none" stroke="black" cx="630.69" cy="-192" rx="27" ry="18"/>
<text text-anchor="middle" x="630.69" y="-188.3" font-family="Times,serif" font-size="14.00">P</text>
</g>
<!-- P&#45;&gt;f1 -->
<g id="edge27" class="edge">
<title>P&#45;&gt;f1</title>
<path fill="none" stroke="#ff0051" stroke-width="0.05" d="M657.31,-188.85C701.58,-185.34 793.12,-178.32 870.69,-174 919.99,-171.26 1267.99,-172.02 1314.69,-156 1325.54,-152.28 1325.03,-145.23 1335.69,-141 1391.15,-119.02 1409.78,-132.31 1468.69,-123 1487.82,-119.98 1509.06,-116.18 1526.5,-112.93"/>
<polygon fill="#ff0051" stroke="#ff0051" stroke-width="0.05" points="1527.63,-116.28 1536.81,-111 1526.34,-109.4 1527.63,-116.28"/>
<text text-anchor="middle" x="1348.19" y="-144.8" font-family="Times,serif" font-size="14.00" fill="#ff0051" fill-opacity="0.235294">0.00</text>
</g>
<!-- P&#45;&gt;y -->
<g id="edge28" class="edge">
<title>P&#45;&gt;y</title>
<path fill="none" stroke="#ff0051" stroke-width="0.05" d="M657.52,-189.55C701.2,-186.57 784.67,-178.06 802.69,-156 806.91,-150.84 806.47,-146.5 802.69,-141 764.96,-86.01 727.16,-104.09 662.69,-87 461.39,-33.62 209.93,-22.13 116.7,-19.67"/>
<polygon fill="#ff0051" stroke="#ff0051" stroke-width="0.05" points="116.72,-16.17 106.64,-19.42 116.55,-23.17 116.72,-16.17"/>
<text text-anchor="middle" x="800.19" y="-101.3" font-family="Times,serif" font-size="14.00" fill="#ff0051" fill-opacity="0.235294">0.00</text>
</g>
<!-- P&#45;&gt;f7 -->
<g id="edge29" class="edge">
<title>P&#45;&gt;f7</title>
<path fill="none" stroke="#ff0051" stroke-width="0.05" d="M607.57,-182.62C597.59,-179.36 585.7,-175.94 574.69,-174 430.92,-148.61 389.81,-184.85 246.69,-156 227.26,-152.08 223.89,-145.95 204.69,-141 156.73,-128.62 142.79,-134.87 94.69,-123 88.77,-121.54 82.55,-119.72 76.57,-117.81"/>
<polygon fill="#ff0051" stroke="#ff0051" stroke-width="0.05" points="77.42,-114.4 66.82,-114.58 75.21,-121.05 77.42,-114.4"/>
<text text-anchor="middle" x="259.19" y="-144.8" font-family="Times,serif" font-size="14.00" fill="#ff0051" fill-opacity="0.235294">0.00</text>
</g>
<!-- P&#45;&gt;f5 -->
<g id="edge30" class="edge">
<title>P&#45;&gt;f5</title>
<path fill="none" stroke="#ff0051" stroke-width="0.05" d="M657.38,-188.17C776.32,-175.57 1258.3,-124.48 1395.87,-109.9"/>
<polygon fill="#ff0051" stroke="#ff0051" stroke-width="0.05" points="1396.33,-113.37 1405.91,-108.84 1395.6,-106.41 1396.33,-113.37"/>
<text text-anchor="middle" x="1093.19" y="-144.8" font-family="Times,serif" font-size="14.00" fill="#ff0051" fill-opacity="0.235294">0.00</text>
</g>
<!-- P&#45;&gt;f6 -->
<g id="edge31" class="edge">
<title>P&#45;&gt;f6</title>
<path fill="none" stroke="#ff0051" stroke-width="0.05" d="M657.64,-189.95C708.5,-187.44 816.03,-179.44 843.69,-156 850.46,-150.27 854.54,-141.73 857,-133.33"/>
<polygon fill="#ff0051" stroke="#ff0051" stroke-width="0.05" points="860.46,-133.87 859.26,-123.35 853.64,-132.32 860.46,-133.87"/>
<text text-anchor="middle" x="867.19" y="-144.8" font-family="Times,serif" font-size="14.00" fill="#ff0051" fill-opacity="0.235294">0.00</text>
</g>
<!-- P&#45;&gt;f4 -->
<g id="edge32" class="edge">
<title>P&#45;&gt;f4</title>
<path fill="none" stroke="#ff0051" stroke-width="0.05" d="M655.54,-184.71C683.29,-176.54 722.19,-160.92 704.69,-141 700.9,-136.68 546.03,-118.48 473.48,-110.17"/>
<polygon fill="#ff0051" stroke="#ff0051" stroke-width="0.05" points="473.74,-106.68 463.4,-109.02 472.94,-113.63 473.74,-106.68"/>
<text text-anchor="middle" x="722.19" y="-144.8" font-family="Times,serif" font-size="14.00" fill="#ff0051" fill-opacity="0.235294">0.00</text>
</g>
<!-- P&#45;&gt;f2 -->
<g id="edge33" class="edge">
<title>P&#45;&gt;f2</title>
<path fill="none" stroke="#ff0051" stroke-width="0.05" d="M615.67,-176.98C602.13,-165.24 581.12,-149.14 559.69,-141 493.21,-115.74 471.2,-132.34 400.69,-123 375.28,-119.63 346.71,-115.29 324.78,-111.83"/>
<polygon fill="#ff0051" stroke="#ff0051" stroke-width="0.05" points="325.33,-108.38 314.9,-110.27 324.23,-115.29 325.33,-108.38"/>
<text text-anchor="middle" x="600.19" y="-144.8" font-family="Times,serif" font-size="14.00" fill="#ff0051" fill-opacity="0.235294">0.00</text>
</g>
<!-- P&#45;&gt;f8 -->
<g id="edge34" class="edge">
<title>P&#45;&gt;f8</title>
<path fill="none" stroke="#ff0051" stroke-width="0.05" d="M607.25,-182.77C597.32,-179.58 585.55,-176.18 574.69,-174 496.73,-158.38 474.19,-173.8 396.69,-156 377.78,-151.66 374.48,-145.85 355.69,-141 337.77,-136.38 225.68,-119.79 166.78,-111.22"/>
<polygon fill="#ff0051" stroke="#ff0051" stroke-width="0.05" points="167.17,-107.74 156.77,-109.76 166.17,-114.66 167.17,-107.74"/>
<text text-anchor="middle" x="409.19" y="-144.8" font-family="Times,serif" font-size="14.00" fill="#ff0051" fill-opacity="0.235294">0.00</text>
</g>
<!-- P&#45;&gt;f3 -->
<g id="edge35" class="edge">
<title>P&#45;&gt;f3</title>
<path fill="none" stroke="#ff0051" stroke-width="0.05" d="M657.72,-190.37C705.61,-188.27 797.64,-179.29 767.69,-141 761.14,-132.62 701.92,-120.07 662.34,-112.5"/>
<polygon fill="#ff0051" stroke="#ff0051" stroke-width="0.05" points="662.98,-109.06 652.5,-110.64 661.68,-115.93 662.98,-109.06"/>
<text text-anchor="middle" x="786.19" y="-144.8" font-family="Times,serif" font-size="14.00" fill="#ff0051" fill-opacity="0.235294">0.00</text>
</g>
</g>
</svg>
