<?xml version="1.0" encoding="UTF-8" standalone="no"?>
<!DOCTYPE svg PUBLIC "-//W3C//DTD SVG 1.1//EN"
 "http://www.w3.org/Graphics/SVG/1.1/DTD/svg11.dtd">
<!-- Generated by graphviz version 2.49.0 (0)
 -->
<!-- Pages: 1 -->
<svg width="417pt" height="530pt"
 viewBox="0.00 0.00 416.78 530.00" xmlns="http://www.w3.org/2000/svg" xmlns:xlink="http://www.w3.org/1999/xlink">
<g id="graph0" class="graph" transform="scale(1 1) rotate(0) translate(4 526)">
<polygon fill="white" stroke="transparent" points="-4,4 -4,-526 412.78,-526 412.78,4 -4,4"/>
<!-- f4 -->
<g id="node1" class="node">
<title>f4</title>
<ellipse fill="none" stroke="black" cx="291.78" cy="-488" rx="27" ry="18"/>
<text text-anchor="middle" x="291.78" y="-484.3" font-family="Times,serif" font-size="14.00">f4</text>
</g>
<!-- y -->
<g id="node2" class="node">
<title>y</title>
<ellipse fill="none" stroke="black" cx="381.78" cy="-342" rx="27" ry="18"/>
<text text-anchor="middle" x="381.78" y="-338.3" font-family="Times,serif" font-size="14.00">y</text>
</g>
<!-- f4&#45;&gt;y -->
<g id="edge1" class="edge">
<title>f4&#45;&gt;y</title>
<path fill="none" stroke="black" d="M306.34,-472.49C310.53,-467.39 315.03,-461.59 318.78,-456 338.06,-427.21 356.56,-391.86 368.25,-368.23"/>
<polygon fill="black" stroke="black" points="371.43,-369.7 372.68,-359.18 365.14,-366.62 371.43,-369.7"/>
</g>
<!-- NASA -->
<g id="node3" class="node">
<title>NASA</title>
<ellipse fill="none" stroke="black" cx="114.39" cy="-504" rx="34.39" ry="18"/>
<text text-anchor="middle" x="114.39" y="-500.3" font-family="Times,serif" font-size="14.00">NASA</text>
</g>
<!-- NASA&#45;&gt;f4 -->
<g id="edge2" class="edge">
<title>NASA&#45;&gt;f4</title>
<path fill="none" stroke="black" d="M148.38,-500.99C178.69,-498.23 223.52,-494.14 254.76,-491.29"/>
<polygon fill="black" stroke="black" points="255.15,-494.77 264.79,-490.37 254.51,-487.79 255.15,-494.77"/>
</g>
<!-- density -->
<g id="node4" class="node">
<title>density</title>
<ellipse fill="none" stroke="black" cx="114.39" cy="-450" rx="36.29" ry="18"/>
<text text-anchor="middle" x="114.39" y="-446.3" font-family="Times,serif" font-size="14.00">density</text>
</g>
<!-- density&#45;&gt;f4 -->
<g id="edge3" class="edge">
<title>density&#45;&gt;f4</title>
<path fill="none" stroke="black" d="M147.97,-457.06C178.59,-463.69 224.28,-473.59 255.69,-480.4"/>
<polygon fill="black" stroke="black" points="255.24,-483.88 265.75,-482.58 256.72,-477.04 255.24,-483.88"/>
</g>
<!-- f2 -->
<g id="node5" class="node">
<title>f2</title>
<ellipse fill="none" stroke="black" cx="291.78" cy="-396" rx="27" ry="18"/>
<text text-anchor="middle" x="291.78" y="-392.3" font-family="Times,serif" font-size="14.00">f2</text>
</g>
<!-- density&#45;&gt;f2 -->
<g id="edge4" class="edge">
<title>density&#45;&gt;f2</title>
<path fill="none" stroke="black" d="M148.57,-443.72C171.41,-439 202.29,-431.84 228.78,-423 239.22,-419.51 250.33,-414.96 260.22,-410.59"/>
<polygon fill="black" stroke="black" points="261.96,-413.64 269.63,-406.32 259.07,-407.26 261.96,-413.64"/>
</g>
<!-- f2&#45;&gt;y -->
<g id="edge19" class="edge">
<title>f2&#45;&gt;y</title>
<path fill="none" stroke="black" d="M312.31,-384.02C324.16,-376.74 339.48,-367.34 352.62,-359.28"/>
<polygon fill="black" stroke="black" points="354.61,-362.16 361.3,-353.95 350.95,-356.2 354.61,-362.16"/>
</g>
<!-- P -->
<g id="node6" class="node">
<title>P</title>
<ellipse fill="none" stroke="black" cx="114.39" cy="-396" rx="27" ry="18"/>
<text text-anchor="middle" x="114.39" y="-392.3" font-family="Times,serif" font-size="14.00">P</text>
</g>
<!-- P&#45;&gt;f4 -->
<g id="edge5" class="edge">
<title>P&#45;&gt;f4</title>
<path fill="none" stroke="black" d="M141.25,-397.94C165.29,-400.69 201.41,-407.28 228.78,-423 238.54,-428.61 257.01,-448.56 271.26,-464.9"/>
<polygon fill="black" stroke="black" points="268.68,-467.27 277.86,-472.55 273.98,-462.69 268.68,-467.27"/>
</g>
<!-- P&#45;&gt;y -->
<g id="edge11" class="edge">
<title>P&#45;&gt;y</title>
<path fill="none" stroke="black" d="M139.59,-402.58C186.45,-414.78 287.72,-438.34 318.78,-423 341.6,-411.73 358.34,-387.58 368.63,-368.57"/>
<polygon fill="black" stroke="black" points="371.85,-369.96 373.29,-359.46 365.62,-366.77 371.85,-369.96"/>
</g>
<!-- P&#45;&gt;f2 -->
<g id="edge8" class="edge">
<title>P&#45;&gt;f2</title>
<path fill="none" stroke="black" d="M141.65,-396C171.57,-396 220.67,-396 254.3,-396"/>
<polygon fill="black" stroke="black" points="254.63,-399.5 264.63,-396 254.63,-392.5 254.63,-399.5"/>
</g>
<!-- f6 -->
<g id="node7" class="node">
<title>f6</title>
<ellipse fill="none" stroke="black" cx="291.78" cy="-342" rx="27" ry="18"/>
<text text-anchor="middle" x="291.78" y="-338.3" font-family="Times,serif" font-size="14.00">f6</text>
</g>
<!-- P&#45;&gt;f6 -->
<g id="edge6" class="edge">
<title>P&#45;&gt;f6</title>
<path fill="none" stroke="black" d="M140.52,-391.35C163.74,-386.74 199.03,-378.93 228.78,-369 239.22,-365.51 250.33,-360.96 260.22,-356.59"/>
<polygon fill="black" stroke="black" points="261.96,-359.64 269.63,-352.32 259.07,-353.26 261.96,-359.64"/>
</g>
<!-- f3 -->
<g id="node8" class="node">
<title>f3</title>
<ellipse fill="none" stroke="black" cx="291.78" cy="-288" rx="27" ry="18"/>
<text text-anchor="middle" x="291.78" y="-284.3" font-family="Times,serif" font-size="14.00">f3</text>
</g>
<!-- P&#45;&gt;f3 -->
<g id="edge7" class="edge">
<title>P&#45;&gt;f3</title>
<path fill="none" stroke="black" d="M141.45,-395.15C165.97,-393.2 202.71,-387.16 228.78,-369 252.45,-352.52 246.7,-337.48 264.78,-315 266.03,-313.44 267.36,-311.87 268.73,-310.3"/>
<polygon fill="black" stroke="black" points="271.52,-312.43 275.71,-302.7 266.37,-307.7 271.52,-312.43"/>
</g>
<!-- f5 -->
<g id="node9" class="node">
<title>f5</title>
<ellipse fill="none" stroke="black" cx="291.78" cy="-180" rx="27" ry="18"/>
<text text-anchor="middle" x="291.78" y="-176.3" font-family="Times,serif" font-size="14.00">f5</text>
</g>
<!-- P&#45;&gt;f5 -->
<g id="edge9" class="edge">
<title>P&#45;&gt;f5</title>
<path fill="none" stroke="black" d="M141.68,-397.19C167.45,-396.85 206.06,-392.07 228.78,-369 280.54,-316.45 229.9,-271.99 264.78,-207 265.73,-205.24 266.82,-203.51 268.01,-201.83"/>
<polygon fill="black" stroke="black" points="270.87,-203.87 274.57,-193.95 265.48,-199.4 270.87,-203.87"/>
</g>
<!-- f1 -->
<g id="node10" class="node">
<title>f1</title>
<ellipse fill="none" stroke="black" cx="291.78" cy="-234" rx="27" ry="18"/>
<text text-anchor="middle" x="291.78" y="-230.3" font-family="Times,serif" font-size="14.00">f1</text>
</g>
<!-- P&#45;&gt;f1 -->
<g id="edge10" class="edge">
<title>P&#45;&gt;f1</title>
<path fill="none" stroke="black" d="M141.67,-396.67C167.06,-395.88 205.05,-390.73 228.78,-369 266.1,-334.83 238.59,-304.29 264.78,-261 265.82,-259.29 266.98,-257.6 268.22,-255.95"/>
<polygon fill="black" stroke="black" points="271.06,-258.01 274.9,-248.14 265.74,-253.46 271.06,-258.01"/>
</g>
<!-- f6&#45;&gt;y -->
<g id="edge12" class="edge">
<title>f6&#45;&gt;y</title>
<path fill="none" stroke="black" d="M319.18,-342C327.17,-342 336.09,-342 344.6,-342"/>
<polygon fill="black" stroke="black" points="344.7,-345.5 354.7,-342 344.7,-338.5 344.7,-345.5"/>
</g>
<!-- f3&#45;&gt;y -->
<g id="edge17" class="edge">
<title>f3&#45;&gt;y</title>
<path fill="none" stroke="black" d="M312.31,-299.98C324.16,-307.26 339.48,-316.66 352.62,-324.72"/>
<polygon fill="black" stroke="black" points="350.95,-327.8 361.3,-330.05 354.61,-321.84 350.95,-327.8"/>
</g>
<!-- f5&#45;&gt;y -->
<g id="edge22" class="edge">
<title>f5&#45;&gt;y</title>
<path fill="none" stroke="black" d="M308.32,-194.35C312.03,-198.24 315.77,-202.59 318.78,-207 342.33,-241.54 360.92,-286.46 371.38,-314.77"/>
<polygon fill="black" stroke="black" points="368.17,-316.19 374.86,-324.4 374.75,-313.81 368.17,-316.19"/>
</g>
<!-- f1&#45;&gt;y -->
<g id="edge25" class="edge">
<title>f1&#45;&gt;y</title>
<path fill="none" stroke="black" d="M307.67,-248.86C311.38,-252.73 315.3,-256.95 318.78,-261 334.46,-279.25 350.96,-300.93 362.99,-317.28"/>
<polygon fill="black" stroke="black" points="360.45,-319.74 369.18,-325.75 366.11,-315.61 360.45,-319.74"/>
</g>
<!-- void_frac -->
<g id="node11" class="node">
<title>void_frac</title>
<ellipse fill="none" stroke="black" cx="114.39" cy="-342" rx="44.39" ry="18"/>
<text text-anchor="middle" x="114.39" y="-338.3" font-family="Times,serif" font-size="14.00">void_frac</text>
</g>
<!-- void_frac&#45;&gt;f2 -->
<g id="edge15" class="edge">
<title>void_frac&#45;&gt;f2</title>
<path fill="none" stroke="black" d="M154.7,-349.57C176.75,-354.26 204.59,-360.93 228.78,-369 239.22,-372.49 250.33,-377.04 260.22,-381.41"/>
<polygon fill="black" stroke="black" points="259.07,-384.74 269.63,-385.68 261.96,-378.36 259.07,-384.74"/>
</g>
<!-- void_frac&#45;&gt;f6 -->
<g id="edge13" class="edge">
<title>void_frac&#45;&gt;f6</title>
<path fill="none" stroke="black" d="M158.74,-342C188.25,-342 226.84,-342 254.67,-342"/>
<polygon fill="black" stroke="black" points="254.77,-345.5 264.77,-342 254.77,-338.5 254.77,-345.5"/>
</g>
<!-- void_frac&#45;&gt;f3 -->
<g id="edge14" class="edge">
<title>void_frac&#45;&gt;f3</title>
<path fill="none" stroke="black" d="M154.7,-334.43C176.75,-329.74 204.59,-323.07 228.78,-315 239.22,-311.51 250.33,-306.96 260.22,-302.59"/>
<polygon fill="black" stroke="black" points="261.96,-305.64 269.63,-298.32 259.07,-299.26 261.96,-305.64"/>
</g>
<!-- void_frac&#45;&gt;f1 -->
<g id="edge16" class="edge">
<title>void_frac&#45;&gt;f1</title>
<path fill="none" stroke="black" d="M158.32,-339.3C180.94,-336.12 208.19,-329.34 228.78,-315 252.45,-298.52 246.7,-283.48 264.78,-261 266.03,-259.44 267.36,-257.87 268.73,-256.3"/>
<polygon fill="black" stroke="black" points="271.52,-258.43 275.71,-248.7 266.37,-253.7 271.52,-258.43"/>
</g>
<!-- spg -->
<g id="node12" class="node">
<title>spg</title>
<ellipse fill="none" stroke="black" cx="114.39" cy="-288" rx="27" ry="18"/>
<text text-anchor="middle" x="114.39" y="-284.3" font-family="Times,serif" font-size="14.00">spg</text>
</g>
<!-- spg&#45;&gt;f3 -->
<g id="edge18" class="edge">
<title>spg&#45;&gt;f3</title>
<path fill="none" stroke="black" d="M141.65,-288C171.57,-288 220.67,-288 254.3,-288"/>
<polygon fill="black" stroke="black" points="254.63,-291.5 264.63,-288 254.63,-284.5 254.63,-291.5"/>
</g>
<!-- lcd -->
<g id="node13" class="node">
<title>lcd</title>
<ellipse fill="none" stroke="black" cx="114.39" cy="-180" rx="27" ry="18"/>
<text text-anchor="middle" x="114.39" y="-176.3" font-family="Times,serif" font-size="14.00">lcd</text>
</g>
<!-- lcd&#45;&gt;f2 -->
<g id="edge20" class="edge">
<title>lcd&#45;&gt;f2</title>
<path fill="none" stroke="black" d="M141.68,-178.81C167.45,-179.15 206.06,-183.93 228.78,-207 280.54,-259.55 229.9,-304.01 264.78,-369 265.73,-370.76 266.82,-372.49 268.01,-374.17"/>
<polygon fill="black" stroke="black" points="265.48,-376.6 274.57,-382.05 270.87,-372.13 265.48,-376.6"/>
</g>
<!-- lcd&#45;&gt;f5 -->
<g id="edge21" class="edge">
<title>lcd&#45;&gt;f5</title>
<path fill="none" stroke="black" d="M141.65,-180C171.57,-180 220.67,-180 254.3,-180"/>
<polygon fill="black" stroke="black" points="254.63,-183.5 264.63,-180 254.63,-176.5 254.63,-183.5"/>
</g>
<!-- largest_included_sphere_free -->
<g id="node14" class="node">
<title>largest_included_sphere_free</title>
<ellipse fill="none" stroke="black" cx="114.39" cy="-72" rx="114.28" ry="18"/>
<text text-anchor="middle" x="114.39" y="-68.3" font-family="Times,serif" font-size="14.00">largest_included_sphere_free</text>
</g>
<!-- largest_included_sphere_free&#45;&gt;f5 -->
<g id="edge23" class="edge">
<title>largest_included_sphere_free&#45;&gt;f5</title>
<path fill="none" stroke="black" d="M197.47,-84.39C208.5,-88.07 219.27,-92.83 228.78,-99 249.78,-112.63 266.49,-135.9 277.25,-154.02"/>
<polygon fill="black" stroke="black" points="274.34,-155.98 282.32,-162.94 280.42,-152.52 274.34,-155.98"/>
</g>
<!-- VolFrac -->
<g id="node15" class="node">
<title>VolFrac</title>
<ellipse fill="none" stroke="black" cx="114.39" cy="-18" rx="38.19" ry="18"/>
<text text-anchor="middle" x="114.39" y="-14.3" font-family="Times,serif" font-size="14.00">VolFrac</text>
</g>
<!-- VolFrac&#45;&gt;f5 -->
<g id="edge24" class="edge">
<title>VolFrac&#45;&gt;f5</title>
<path fill="none" stroke="black" d="M152.75,-18.73C176.83,-21.02 207.5,-27.55 228.78,-45 261.96,-72.22 278.2,-121.08 285.5,-151.96"/>
<polygon fill="black" stroke="black" points="282.16,-153.05 287.73,-162.06 289,-151.54 282.16,-153.05"/>
</g>
<!-- pld -->
<g id="node16" class="node">
<title>pld</title>
<ellipse fill="none" stroke="black" cx="114.39" cy="-234" rx="27" ry="18"/>
<text text-anchor="middle" x="114.39" y="-230.3" font-family="Times,serif" font-size="14.00">pld</text>
</g>
<!-- pld&#45;&gt;f1 -->
<g id="edge26" class="edge">
<title>pld&#45;&gt;f1</title>
<path fill="none" stroke="black" d="M141.65,-234C171.57,-234 220.67,-234 254.3,-234"/>
<polygon fill="black" stroke="black" points="254.63,-237.5 264.63,-234 254.63,-230.5 254.63,-237.5"/>
</g>
<!-- volume -->
<g id="node17" class="node">
<title>volume</title>
<ellipse fill="none" stroke="black" cx="114.39" cy="-126" rx="37.89" ry="18"/>
<text text-anchor="middle" x="114.39" y="-122.3" font-family="Times,serif" font-size="14.00">volume</text>
</g>
<!-- volume&#45;&gt;f1 -->
<g id="edge27" class="edge">
<title>volume&#45;&gt;f1</title>
<path fill="none" stroke="black" d="M151.89,-127.87C175.6,-130.64 206.19,-137.27 228.78,-153 252.45,-169.48 246.7,-184.52 264.78,-207 266.03,-208.56 267.36,-210.13 268.73,-211.7"/>
<polygon fill="black" stroke="black" points="266.37,-214.3 275.71,-219.3 271.52,-209.57 266.37,-214.3"/>
</g>
</g>
</svg>
