<?xml version="1.0" encoding="UTF-8" standalone="no"?>
<!DOCTYPE svg PUBLIC "-//W3C//DTD SVG 1.1//EN"
 "http://www.w3.org/Graphics/SVG/1.1/DTD/svg11.dtd">
<!-- Generated by graphviz version 2.49.0 (0)
 -->
<!-- Pages: 1 -->
<svg width="1020pt" height="218pt"
 viewBox="0.00 0.00 1020.45 218.00" xmlns="http://www.w3.org/2000/svg" xmlns:xlink="http://www.w3.org/1999/xlink">
<g id="graph0" class="graph" transform="scale(1 1) rotate(0) translate(4 214)">
<polygon fill="white" stroke="transparent" points="-4,4 -4,-214 1016.45,-214 1016.45,4 -4,4"/>
<!-- f4 -->
<g id="node1" class="node">
<title>f4</title>
<ellipse fill="none" stroke="black" cx="73.45" cy="-105" rx="27" ry="18"/>
<text text-anchor="middle" x="73.45" y="-101.3" font-family="Times,serif" font-size="14.00">f4</text>
</g>
<!-- y -->
<g id="node2" class="node">
<title>y</title>
<ellipse fill="none" stroke="black" cx="109.45" cy="-18" rx="27" ry="18"/>
<text text-anchor="middle" x="109.45" y="-14.3" font-family="Times,serif" font-size="14.00">y</text>
</g>
<!-- f4&#45;&gt;y -->
<g id="edge1" class="edge">
<title>f4&#45;&gt;y</title>
<path fill="none" stroke="#ff0051" stroke-width="5" d="M79.41,-87.18C82.98,-77.41 87.73,-64.91 92.45,-54 93.79,-50.9 95.25,-47.67 96.74,-44.49"/>
<polygon fill="#ff0051" stroke="#ff0051" stroke-width="5" points="100.8,-46.15 101.19,-35.24 92.91,-42.36 100.8,-46.15"/>
<text text-anchor="middle" x="104.95" y="-57.8" font-family="Times,serif" font-size="14.00" fill="#ff0051">0.06</text>
</g>
<!-- density -->
<g id="node3" class="node">
<title>density</title>
<ellipse fill="none" stroke="black" cx="123.45" cy="-192" rx="36.29" ry="18"/>
<text text-anchor="middle" x="123.45" y="-188.3" font-family="Times,serif" font-size="14.00">density</text>
</g>
<!-- density&#45;&gt;f4 -->
<g id="edge2" class="edge">
<title>density&#45;&gt;f4</title>
<path fill="none" stroke="#ff0051" stroke-width="0.11" d="M113.81,-174.61C106.5,-162.19 96.33,-144.9 88.03,-130.78"/>
<polygon fill="#ff0051" stroke="#ff0051" stroke-width="0.11" points="90.98,-128.9 82.89,-122.05 84.94,-132.44 90.98,-128.9"/>
<text text-anchor="middle" x="113.95" y="-144.8" font-family="Times,serif" font-size="14.00" fill="#ff0051" fill-opacity="0.243137">0.00</text>
</g>
<!-- f2 -->
<g id="node4" class="node">
<title>f2</title>
<ellipse fill="none" stroke="black" cx="169.45" cy="-105" rx="27" ry="18"/>
<text text-anchor="middle" x="169.45" y="-101.3" font-family="Times,serif" font-size="14.00">f2</text>
</g>
<!-- density&#45;&gt;f2 -->
<g id="edge3" class="edge">
<title>density&#45;&gt;f2</title>
<path fill="none" stroke="#ff0051" stroke-width="1.73" d="M153.6,-181.58C165.73,-176.15 178.47,-167.96 185.45,-156 189.99,-148.22 188.64,-139 185.27,-130.61"/>
<polygon fill="#ff0051" stroke="#ff0051" stroke-width="1.73" points="188.39,-129.01 180.82,-121.6 182.11,-132.12 188.39,-129.01"/>
<text text-anchor="middle" x="200.95" y="-144.8" font-family="Times,serif" font-size="14.00" fill="#ff0051" fill-opacity="0.490196">0.02</text>
</g>
<!-- f2&#45;&gt;y -->
<g id="edge4" class="edge">
<title>f2&#45;&gt;y</title>
<path fill="none" stroke="#ff0051" stroke-width="3.3" d="M158.44,-88.41C149.48,-75.71 136.67,-57.56 126.39,-43.01"/>
<polygon fill="#ff0051" stroke="#ff0051" stroke-width="3.3" points="129.01,-40.64 120.38,-34.49 123.29,-44.68 129.01,-40.64"/>
<text text-anchor="middle" x="155.95" y="-57.8" font-family="Times,serif" font-size="14.00" fill="#ff0051" fill-opacity="0.737255">0.04</text>
</g>
<!-- NASA -->
<g id="node5" class="node">
<title>NASA</title>
<ellipse fill="none" stroke="black" cx="34.45" cy="-192" rx="34.39" ry="18"/>
<text text-anchor="middle" x="34.45" y="-188.3" font-family="Times,serif" font-size="14.00">NASA</text>
</g>
<!-- NASA&#45;&gt;f4 -->
<g id="edge5" class="edge">
<title>NASA&#45;&gt;f4</title>
<path fill="none" stroke="#ff0051" stroke-width="4.94" d="M42.15,-174.21C47.69,-162.14 55.26,-145.64 61.57,-131.89"/>
<polygon fill="#ff0051" stroke="#ff0051" stroke-width="4.94" points="65.65,-133.36 65.89,-122.47 57.79,-129.76 65.65,-133.36"/>
<text text-anchor="middle" x="68.95" y="-144.8" font-family="Times,serif" font-size="14.00" fill="#ff0051" fill-opacity="0.988235">0.06</text>
</g>
<!-- f3 -->
<g id="node6" class="node">
<title>f3</title>
<ellipse fill="none" stroke="black" cx="629.45" cy="-105" rx="27" ry="18"/>
<text text-anchor="middle" x="629.45" y="-101.3" font-family="Times,serif" font-size="14.00">f3</text>
</g>
<!-- f3&#45;&gt;y -->
<g id="edge6" class="edge">
<title>f3&#45;&gt;y</title>
<path fill="none" stroke="#008bfb" stroke-width="0.24" d="M603.27,-99.85C551.16,-91.56 437.94,-73.35 420.45,-69 399.99,-63.91 395.99,-58.73 375.45,-54 294.76,-35.42 197.88,-25.77 146.19,-21.6"/>
<polygon fill="#008bfb" stroke="#008bfb" stroke-width="0.24" points="146.42,-18.11 136.17,-20.82 145.87,-25.09 146.42,-18.11"/>
<text text-anchor="middle" x="434.95" y="-57.8" font-family="Times,serif" font-size="14.00" fill="#008bfb" fill-opacity="0.262745">&#45;0.00</text>
</g>
<!-- spg -->
<g id="node7" class="node">
<title>spg</title>
<ellipse fill="none" stroke="black" cx="818.45" cy="-192" rx="27" ry="18"/>
<text text-anchor="middle" x="818.45" y="-188.3" font-family="Times,serif" font-size="14.00">spg</text>
</g>
<!-- spg&#45;&gt;f3 -->
<g id="edge7" class="edge">
<title>spg&#45;&gt;f3</title>
<path fill="none" stroke="#008bfb" stroke-width="0.15" d="M809.68,-174.62C802.88,-163.48 792.43,-149.3 779.45,-141 745.24,-119.13 698.84,-110.89 666.75,-107.81"/>
<polygon fill="#008bfb" stroke="#008bfb" stroke-width="0.15" points="666.71,-104.29 656.45,-106.95 666.12,-111.27 666.71,-104.29"/>
<text text-anchor="middle" x="809.95" y="-144.8" font-family="Times,serif" font-size="14.00" fill="#008bfb" fill-opacity="0.247059">&#45;0.00</text>
</g>
<!-- f5 -->
<g id="node8" class="node">
<title>f5</title>
<ellipse fill="none" stroke="black" cx="484.45" cy="-105" rx="27" ry="18"/>
<text text-anchor="middle" x="484.45" y="-101.3" font-family="Times,serif" font-size="14.00">f5</text>
</g>
<!-- f5&#45;&gt;y -->
<g id="edge8" class="edge">
<title>f5&#45;&gt;y</title>
<path fill="none" stroke="#ff0051" stroke-width="0.55" d="M460.04,-97.17C448.64,-94.01 434.86,-90.25 422.45,-87 390.54,-78.64 382.4,-77.2 350.45,-69 325.07,-62.49 319,-59.78 293.45,-54 242.28,-42.42 182.53,-31.53 145.33,-25.07"/>
<polygon fill="#ff0051" stroke="#ff0051" stroke-width="0.55" points="145.91,-21.62 135.47,-23.36 144.72,-28.51 145.91,-21.62"/>
<text text-anchor="middle" x="362.95" y="-57.8" font-family="Times,serif" font-size="14.00" fill="#ff0051" fill-opacity="0.309804">0.01</text>
</g>
<!-- VolFrac -->
<g id="node9" class="node">
<title>VolFrac</title>
<ellipse fill="none" stroke="black" cx="624.45" cy="-192" rx="38.19" ry="18"/>
<text text-anchor="middle" x="624.45" y="-188.3" font-family="Times,serif" font-size="14.00">VolFrac</text>
</g>
<!-- VolFrac&#45;&gt;f5 -->
<g id="edge9" class="edge">
<title>VolFrac&#45;&gt;f5</title>
<path fill="none" stroke="#ff0051" stroke-width="0.13" d="M633.63,-174.07C637.98,-163.53 640.79,-150.26 633.45,-141 626.39,-132.1 562.28,-119.47 520.48,-112.07"/>
<polygon fill="#ff0051" stroke="#ff0051" stroke-width="0.13" points="520.84,-108.58 510.38,-110.3 519.63,-115.47 520.84,-108.58"/>
<text text-anchor="middle" x="649.95" y="-144.8" font-family="Times,serif" font-size="14.00" fill="#ff0051" fill-opacity="0.247059">0.00</text>
</g>
<!-- largest_included_sphere_free -->
<g id="node10" class="node">
<title>largest_included_sphere_free</title>
<ellipse fill="none" stroke="black" cx="447.45" cy="-192" rx="114.28" ry="18"/>
<text text-anchor="middle" x="447.45" y="-188.3" font-family="Times,serif" font-size="14.00">largest_included_sphere_free</text>
</g>
<!-- largest_included_sphere_free&#45;&gt;f5 -->
<g id="edge10" class="edge">
<title>largest_included_sphere_free&#45;&gt;f5</title>
<path fill="none" stroke="#ff0051" stroke-width="0.23" d="M534.88,-180.37C563.69,-174.94 590.64,-167.07 599.45,-156 622.69,-126.79 563.21,-114.28 521.39,-109.2"/>
<polygon fill="#ff0051" stroke="#ff0051" stroke-width="0.23" points="521.52,-105.69 511.2,-108.06 520.75,-112.65 521.52,-105.69"/>
<text text-anchor="middle" x="616.95" y="-144.8" font-family="Times,serif" font-size="14.00" fill="#ff0051" fill-opacity="0.258824">0.00</text>
</g>
<!-- f1 -->
<g id="node11" class="node">
<title>f1</title>
<ellipse fill="none" stroke="black" cx="777.45" cy="-105" rx="27" ry="18"/>
<text text-anchor="middle" x="777.45" y="-101.3" font-family="Times,serif" font-size="14.00">f1</text>
</g>
<!-- f1&#45;&gt;y -->
<g id="edge11" class="edge">
<title>f1&#45;&gt;y</title>
<path fill="none" stroke="#ff0051" stroke-width="0.23" d="M751.57,-99.62C696.24,-90.34 562.3,-68.4 449.45,-54 339.55,-39.98 209.11,-27.79 146.54,-22.22"/>
<polygon fill="#ff0051" stroke="#ff0051" stroke-width="0.23" points="146.65,-18.72 136.38,-21.32 146.04,-25.69 146.65,-18.72"/>
<text text-anchor="middle" x="560.95" y="-57.8" font-family="Times,serif" font-size="14.00" fill="#ff0051" fill-opacity="0.262745">0.00</text>
</g>
<!-- volume -->
<g id="node12" class="node">
<title>volume</title>
<ellipse fill="none" stroke="black" cx="902.45" cy="-192" rx="37.89" ry="18"/>
<text text-anchor="middle" x="902.45" y="-188.3" font-family="Times,serif" font-size="14.00">volume</text>
</g>
<!-- volume&#45;&gt;f1 -->
<g id="edge12" class="edge">
<title>volume&#45;&gt;f1</title>
<path fill="none" stroke="#ff0051" stroke-width="0.12" d="M921.28,-176.38C932.27,-166.07 942.38,-152.16 933.45,-141 918.78,-122.67 855.38,-113.28 814.05,-109.02"/>
<polygon fill="#ff0051" stroke="#ff0051" stroke-width="0.12" points="814.36,-105.54 804.07,-108.05 813.68,-112.5 814.36,-105.54"/>
<text text-anchor="middle" x="948.95" y="-144.8" font-family="Times,serif" font-size="14.00" fill="#ff0051" fill-opacity="0.243137">0.00</text>
</g>
<!-- void_frac -->
<g id="node13" class="node">
<title>void_frac</title>
<ellipse fill="none" stroke="black" cx="728.45" cy="-192" rx="44.39" ry="18"/>
<text text-anchor="middle" x="728.45" y="-188.3" font-family="Times,serif" font-size="14.00">void_frac</text>
</g>
<!-- void_frac&#45;&gt;f2 -->
<g id="edge13" class="edge">
<title>void_frac&#45;&gt;f2</title>
<path fill="none" stroke="#ff0051" stroke-width="2.68" d="M695.6,-179.81C687.77,-177.54 679.38,-175.41 671.45,-174 542.99,-151.21 507.49,-175.25 378.45,-156 345.05,-151.02 254.37,-128.08 204.13,-115.07"/>
<polygon fill="#ff0051" stroke="#ff0051" stroke-width="2.68" points="204.91,-111.66 194.35,-112.53 203.15,-118.43 204.91,-111.66"/>
<text text-anchor="middle" x="390.95" y="-144.8" font-family="Times,serif" font-size="14.00" fill="#ff0051" fill-opacity="0.639216">0.03</text>
</g>
<!-- void_frac&#45;&gt;f3 -->
<g id="edge14" class="edge">
<title>void_frac&#45;&gt;f3</title>
<path fill="none" stroke="#008bfb" stroke-width="0.14" d="M740.34,-174.41C746.22,-164.01 750.66,-150.77 743.45,-141 725.98,-117.37 692.84,-109.18 666.77,-106.58"/>
<polygon fill="#008bfb" stroke="#008bfb" stroke-width="0.14" points="666.69,-103.06 656.46,-105.79 666.16,-110.04 666.69,-103.06"/>
<text text-anchor="middle" x="760.95" y="-144.8" font-family="Times,serif" font-size="14.00" fill="#008bfb" fill-opacity="0.247059">&#45;0.00</text>
</g>
<!-- void_frac&#45;&gt;f1 -->
<g id="edge15" class="edge">
<title>void_frac&#45;&gt;f1</title>
<path fill="none" stroke="#008bfb" stroke-width="0.18" d="M761.36,-179.79C768.27,-177.68 775.56,-175.62 782.45,-174 807.2,-168.17 878.94,-175.34 895.45,-156 920.52,-126.62 857.34,-114.1 814.06,-109.08"/>
<polygon fill="#008bfb" stroke="#008bfb" stroke-width="0.18" points="814.4,-105.59 804.09,-108.01 813.66,-112.55 814.4,-105.59"/>
<text text-anchor="middle" x="914.95" y="-144.8" font-family="Times,serif" font-size="14.00" fill="#008bfb" fill-opacity="0.254902">&#45;0.00</text>
</g>
<!-- f6 -->
<g id="node14" class="node">
<title>f6</title>
<ellipse fill="none" stroke="black" cx="386.45" cy="-105" rx="27" ry="18"/>
<text text-anchor="middle" x="386.45" y="-101.3" font-family="Times,serif" font-size="14.00">f6</text>
</g>
<!-- void_frac&#45;&gt;f6 -->
<g id="edge16" class="edge">
<title>void_frac&#45;&gt;f6</title>
<path fill="none" stroke="#ff0051" stroke-width="3.78" d="M695.27,-179.9C687.52,-177.64 679.25,-175.51 671.45,-174 585.12,-157.35 558.34,-182.31 474.45,-156 452.24,-149.03 429.45,-135.89 412.63,-124.83"/>
<polygon fill="#ff0051" stroke="#ff0051" stroke-width="3.78" points="414.18,-121.65 403.94,-118.95 410.26,-127.45 414.18,-121.65"/>
<text text-anchor="middle" x="486.95" y="-144.8" font-family="Times,serif" font-size="14.00" fill="#ff0051" fill-opacity="0.807843">0.05</text>
</g>
<!-- f6&#45;&gt;y -->
<g id="edge17" class="edge">
<title>f6&#45;&gt;y</title>
<path fill="none" stroke="#ff0051" stroke-width="3.78" d="M362.35,-96.61C312.93,-81.44 199.99,-46.78 143.27,-29.38"/>
<polygon fill="#ff0051" stroke="#ff0051" stroke-width="3.78" points="144.27,-26.03 133.69,-26.44 142.22,-32.72 144.27,-26.03"/>
<text text-anchor="middle" x="276.95" y="-57.8" font-family="Times,serif" font-size="14.00" fill="#ff0051" fill-opacity="0.807843">0.05</text>
</g>
<!-- P -->
<g id="node15" class="node">
<title>P</title>
<ellipse fill="none" stroke="black" cx="276.45" cy="-192" rx="27" ry="18"/>
<text text-anchor="middle" x="276.45" y="-188.3" font-family="Times,serif" font-size="14.00">P</text>
</g>
<!-- P&#45;&gt;f4 -->
<g id="edge18" class="edge">
<title>P&#45;&gt;f4</title>
<path fill="none" stroke="#ff0051" stroke-width="0.05" d="M255.84,-180.28C250.89,-177.98 245.55,-175.73 240.45,-174 204.28,-161.77 191.95,-170.04 156.45,-156 153.46,-154.82 124.5,-137.25 101.61,-123.27"/>
<polygon fill="#ff0051" stroke="#ff0051" stroke-width="0.05" points="103.25,-120.17 92.9,-117.94 99.6,-126.14 103.25,-120.17"/>
<text text-anchor="middle" x="168.95" y="-144.8" font-family="Times,serif" font-size="14.00" fill="#ff0051" fill-opacity="0.235294">0.00</text>
</g>
<!-- P&#45;&gt;y -->
<g id="edge19" class="edge">
<title>P&#45;&gt;y</title>
<path fill="none" stroke="#ff0051" stroke-width="0.05" d="M299.82,-182.51C307.63,-179.73 316.39,-176.67 324.45,-174 350.06,-165.49 366.44,-177.73 382.45,-156 386.4,-150.63 386.39,-146.38 382.45,-141 366.74,-119.57 350.14,-132.79 325.45,-123 256.88,-95.83 179.75,-56.45 138.76,-34.77"/>
<polygon fill="#ff0051" stroke="#ff0051" stroke-width="0.05" points="140.33,-31.65 129.86,-30.05 137.05,-37.83 140.33,-31.65"/>
<text text-anchor="middle" x="337.95" y="-101.3" font-family="Times,serif" font-size="14.00" fill="#ff0051" fill-opacity="0.235294">0.00</text>
</g>
<!-- P&#45;&gt;f2 -->
<g id="edge20" class="edge">
<title>P&#45;&gt;f2</title>
<path fill="none" stroke="#ff0051" stroke-width="0.05" d="M278.67,-173.97C279.1,-163.39 277.8,-150.12 270.45,-141 254.97,-121.79 228.33,-113.09 206.29,-109.17"/>
<polygon fill="#ff0051" stroke="#ff0051" stroke-width="0.05" points="206.64,-105.68 196.23,-107.64 205.59,-112.6 206.64,-105.68"/>
<text text-anchor="middle" x="288.95" y="-144.8" font-family="Times,serif" font-size="14.00" fill="#ff0051" fill-opacity="0.235294">0.00</text>
</g>
<!-- P&#45;&gt;f3 -->
<g id="edge21" class="edge">
<title>P&#45;&gt;f3</title>
<path fill="none" stroke="#ff0051" stroke-width="0.05" d="M299.02,-181.5C306.92,-178.58 315.95,-175.69 324.45,-174 361.77,-166.57 640.26,-183.61 666.45,-156 675.63,-146.32 667.34,-134.35 656.3,-124.54"/>
<polygon fill="#ff0051" stroke="#ff0051" stroke-width="0.05" points="658.38,-121.72 648.4,-118.16 653.97,-127.16 658.38,-121.72"/>
<text text-anchor="middle" x="681.95" y="-144.8" font-family="Times,serif" font-size="14.00" fill="#ff0051" fill-opacity="0.235294">0.00</text>
</g>
<!-- P&#45;&gt;f5 -->
<g id="edge22" class="edge">
<title>P&#45;&gt;f5</title>
<path fill="none" stroke="#ff0051" stroke-width="0.05" d="M299.05,-181.63C306.95,-178.72 315.97,-175.8 324.45,-174 349.19,-168.73 534.28,-174.58 551.45,-156 565.99,-140.26 541.47,-126.04 518.11,-116.83"/>
<polygon fill="#ff0051" stroke="#ff0051" stroke-width="0.05" points="519.21,-113.51 508.62,-113.31 516.78,-120.07 519.21,-113.51"/>
<text text-anchor="middle" x="567.95" y="-144.8" font-family="Times,serif" font-size="14.00" fill="#ff0051" fill-opacity="0.235294">0.00</text>
</g>
<!-- P&#45;&gt;f1 -->
<g id="edge23" class="edge">
<title>P&#45;&gt;f1</title>
<path fill="none" stroke="#ff0051" stroke-width="0.05" d="M298.52,-181.6C306.54,-178.61 315.76,-175.65 324.45,-174 351.97,-168.76 808.99,-176.16 828.45,-156 840.18,-143.84 824.98,-130.46 808.19,-120.61"/>
<polygon fill="#ff0051" stroke="#ff0051" stroke-width="0.05" points="809.85,-117.53 799.4,-115.8 806.49,-123.67 809.85,-117.53"/>
<text text-anchor="middle" x="844.95" y="-144.8" font-family="Times,serif" font-size="14.00" fill="#ff0051" fill-opacity="0.235294">0.00</text>
</g>
<!-- P&#45;&gt;f6 -->
<g id="edge24" class="edge">
<title>P&#45;&gt;f6</title>
<path fill="none" stroke="#ff0051" stroke-width="0.05" d="M299.21,-182.27C307.13,-179.42 316.11,-176.37 324.45,-174 360.75,-163.68 383.75,-185.38 407.45,-156 413.74,-148.19 411.16,-138.23 406.01,-129.25"/>
<polygon fill="#ff0051" stroke="#ff0051" stroke-width="0.05" points="408.73,-127.04 400.22,-120.72 402.94,-130.96 408.73,-127.04"/>
<text text-anchor="middle" x="422.95" y="-144.8" font-family="Times,serif" font-size="14.00" fill="#ff0051" fill-opacity="0.235294">0.00</text>
</g>
<!-- pld -->
<g id="node16" class="node">
<title>pld</title>
<ellipse fill="none" stroke="black" cx="985.45" cy="-192" rx="27" ry="18"/>
<text text-anchor="middle" x="985.45" y="-188.3" font-family="Times,serif" font-size="14.00">pld</text>
</g>
<!-- pld&#45;&gt;f1 -->
<g id="edge25" class="edge">
<title>pld&#45;&gt;f1</title>
<path fill="none" stroke="#ff0051" stroke-width="0.29" d="M982.86,-173.66C980.31,-162.67 975.28,-149.07 965.45,-141 942.85,-122.46 862.4,-112.87 814.37,-108.68"/>
<polygon fill="#ff0051" stroke="#ff0051" stroke-width="0.29" points="814.61,-105.19 804.35,-107.85 814.03,-112.17 814.61,-105.19"/>
<text text-anchor="middle" x="988.95" y="-144.8" font-family="Times,serif" font-size="14.00" fill="#ff0051" fill-opacity="0.270588">0.00</text>
</g>
<!-- lcd -->
<g id="node17" class="node">
<title>lcd</title>
<ellipse fill="none" stroke="black" cx="204.45" cy="-192" rx="27" ry="18"/>
<text text-anchor="middle" x="204.45" y="-188.3" font-family="Times,serif" font-size="14.00">lcd</text>
</g>
<!-- lcd&#45;&gt;f2 -->
<g id="edge26" class="edge">
<title>lcd&#45;&gt;f2</title>
<path fill="none" stroke="#008bfb" stroke-width="1.1" d="M221.38,-177.43C231.78,-167.38 241.82,-153.34 234.45,-141 227.6,-129.54 215.57,-121.61 203.7,-116.24"/>
<polygon fill="#008bfb" stroke="#008bfb" stroke-width="1.1" points="204.9,-112.95 194.32,-112.46 202.28,-119.44 204.9,-112.95"/>
<text text-anchor="middle" x="251.95" y="-144.8" font-family="Times,serif" font-size="14.00" fill="#008bfb" fill-opacity="0.396078">&#45;0.01</text>
</g>
<!-- lcd&#45;&gt;f5 -->
<g id="edge27" class="edge">
<title>lcd&#45;&gt;f5</title>
<path fill="none" stroke="#ff0051" stroke-width="0.29" d="M224.51,-179.92C229.57,-177.58 235.1,-175.39 240.45,-174 268.79,-166.62 483.45,-177.41 503.45,-156 510.2,-148.77 508.04,-138.9 503.22,-129.84"/>
<polygon fill="#ff0051" stroke="#ff0051" stroke-width="0.29" points="506.05,-127.76 497.75,-121.18 500.13,-131.5 506.05,-127.76"/>
<text text-anchor="middle" x="519.95" y="-144.8" font-family="Times,serif" font-size="14.00" fill="#ff0051" fill-opacity="0.270588">0.00</text>
</g>
</g>
</svg>
