<?xml version="1.0" encoding="UTF-8" standalone="no"?>
<!DOCTYPE svg PUBLIC "-//W3C//DTD SVG 1.1//EN"
 "http://www.w3.org/Graphics/SVG/1.1/DTD/svg11.dtd">
<!-- Generated by graphviz version 2.49.0 (0)
 -->
<!-- Pages: 1 -->
<svg width="417pt" height="727pt"
 viewBox="0.00 0.00 416.78 727.00" xmlns="http://www.w3.org/2000/svg" xmlns:xlink="http://www.w3.org/1999/xlink">
<g id="graph0" class="graph" transform="scale(1 1) rotate(0) translate(4 723)">
<polygon fill="white" stroke="transparent" points="-4,4 -4,-723 412.78,-723 412.78,4 -4,4"/>
<!-- f12 -->
<g id="node1" class="node">
<title>f12</title>
<ellipse fill="none" stroke="black" cx="291.78" cy="-647" rx="27" ry="18"/>
<text text-anchor="middle" x="291.78" y="-643.3" font-family="Times,serif" font-size="14.00">f12</text>
</g>
<!-- y -->
<g id="node2" class="node">
<title>y</title>
<ellipse fill="none" stroke="black" cx="381.78" cy="-385" rx="27" ry="18"/>
<text text-anchor="middle" x="381.78" y="-381.3" font-family="Times,serif" font-size="14.00">y</text>
</g>
<!-- f12&#45;&gt;y -->
<g id="edge1" class="edge">
<title>f12&#45;&gt;y</title>
<path fill="none" stroke="black" d="M308.86,-632.98C312.56,-629.09 316.16,-624.65 318.78,-620 357.17,-551.73 372.48,-458.92 378,-413.04"/>
<polygon fill="black" stroke="black" points="381.5,-413.28 379.15,-402.95 374.54,-412.49 381.5,-413.28"/>
</g>
<!-- VolFrac -->
<g id="node3" class="node">
<title>VolFrac</title>
<ellipse fill="none" stroke="black" cx="114.39" cy="-593" rx="38.19" ry="18"/>
<text text-anchor="middle" x="114.39" y="-589.3" font-family="Times,serif" font-size="14.00">VolFrac</text>
</g>
<!-- VolFrac&#45;&gt;f12 -->
<g id="edge2" class="edge">
<title>VolFrac&#45;&gt;f12</title>
<path fill="none" stroke="black" d="M150.07,-599.6C172.75,-604.31 202.87,-611.35 228.78,-620 239.22,-623.49 250.33,-628.04 260.22,-632.41"/>
<polygon fill="black" stroke="black" points="259.07,-635.74 269.63,-636.68 261.96,-629.36 259.07,-635.74"/>
</g>
<!-- f8 -->
<g id="node4" class="node">
<title>f8</title>
<ellipse fill="none" stroke="black" cx="291.78" cy="-593" rx="27" ry="18"/>
<text text-anchor="middle" x="291.78" y="-589.3" font-family="Times,serif" font-size="14.00">f8</text>
</g>
<!-- VolFrac&#45;&gt;f8 -->
<g id="edge3" class="edge">
<title>VolFrac&#45;&gt;f8</title>
<path fill="none" stroke="black" d="M153.02,-593C182.96,-593 224.61,-593 254.26,-593"/>
<polygon fill="black" stroke="black" points="254.59,-596.5 264.59,-593 254.59,-589.5 254.59,-596.5"/>
</g>
<!-- f8&#45;&gt;y -->
<g id="edge30" class="edge">
<title>f8&#45;&gt;y</title>
<path fill="none" stroke="black" d="M308.63,-578.85C312.33,-574.96 316,-570.55 318.78,-566 349.11,-516.33 366.97,-449.87 375.21,-412.87"/>
<polygon fill="black" stroke="black" points="378.7,-413.32 377.38,-402.81 371.85,-411.85 378.7,-413.32"/>
</g>
<!-- largest_free_sphere -->
<g id="node5" class="node">
<title>largest_free_sphere</title>
<ellipse fill="none" stroke="black" cx="114.39" cy="-647" rx="79.09" ry="18"/>
<text text-anchor="middle" x="114.39" y="-643.3" font-family="Times,serif" font-size="14.00">largest_free_sphere</text>
</g>
<!-- largest_free_sphere&#45;&gt;f12 -->
<g id="edge4" class="edge">
<title>largest_free_sphere&#45;&gt;f12</title>
<path fill="none" stroke="black" d="M193.85,-647C214.85,-647 236.56,-647 254.1,-647"/>
<polygon fill="black" stroke="black" points="254.44,-650.5 264.44,-647 254.44,-643.5 254.44,-650.5"/>
</g>
<!-- f9 -->
<g id="node6" class="node">
<title>f9</title>
<ellipse fill="none" stroke="black" cx="291.78" cy="-701" rx="27" ry="18"/>
<text text-anchor="middle" x="291.78" y="-697.3" font-family="Times,serif" font-size="14.00">f9</text>
</g>
<!-- largest_free_sphere&#45;&gt;f9 -->
<g id="edge5" class="edge">
<title>largest_free_sphere&#45;&gt;f9</title>
<path fill="none" stroke="black" d="M174.21,-658.92C191.94,-663.07 211.31,-668.17 228.78,-674 239.22,-677.49 250.33,-682.04 260.22,-686.41"/>
<polygon fill="black" stroke="black" points="259.07,-689.74 269.63,-690.68 261.96,-683.36 259.07,-689.74"/>
</g>
<!-- f9&#45;&gt;y -->
<g id="edge28" class="edge">
<title>f9&#45;&gt;y</title>
<path fill="none" stroke="black" d="M309.01,-687.06C312.71,-683.17 316.27,-678.71 318.78,-674 365.23,-586.69 376.88,-467.05 379.8,-413.24"/>
<polygon fill="black" stroke="black" points="383.31,-413.24 380.29,-403.09 376.31,-412.91 383.31,-413.24"/>
</g>
<!-- P -->
<g id="node7" class="node">
<title>P</title>
<ellipse fill="none" stroke="black" cx="114.39" cy="-429" rx="27" ry="18"/>
<text text-anchor="middle" x="114.39" y="-425.3" font-family="Times,serif" font-size="14.00">P</text>
</g>
<!-- P&#45;&gt;f12 -->
<g id="edge6" class="edge">
<title>P&#45;&gt;f12</title>
<path fill="none" stroke="black" d="M141.72,-428.32C167.52,-429.16 206.16,-434.65 228.78,-458 280.1,-510.97 229.9,-555.01 264.78,-620 265.73,-621.76 266.82,-623.49 268.01,-625.17"/>
<polygon fill="black" stroke="black" points="265.48,-627.6 274.57,-633.05 270.87,-623.13 265.48,-627.6"/>
</g>
<!-- P&#45;&gt;y -->
<g id="edge18" class="edge">
<title>P&#45;&gt;y</title>
<path fill="none" stroke="black" d="M140.76,-424.73C170.48,-419.73 221.2,-411.22 264.78,-404 291.84,-399.52 322.46,-394.51 345.45,-390.75"/>
<polygon fill="black" stroke="black" points="346.13,-394.19 355.43,-389.13 345,-387.28 346.13,-394.19"/>
</g>
<!-- P&#45;&gt;f8 -->
<g id="edge10" class="edge">
<title>P&#45;&gt;f8</title>
<path fill="none" stroke="black" d="M141.71,-428.85C167.12,-430.13 205.13,-435.98 228.78,-458 265.81,-492.48 238.59,-522.71 264.78,-566 265.82,-567.71 266.98,-569.4 268.22,-571.05"/>
<polygon fill="black" stroke="black" points="265.74,-573.54 274.9,-578.86 271.06,-568.99 265.74,-573.54"/>
</g>
<!-- P&#45;&gt;f9 -->
<g id="edge9" class="edge">
<title>P&#45;&gt;f9</title>
<path fill="none" stroke="black" d="M141.5,-428.06C167.51,-428.65 206.65,-433.9 228.78,-458 294.6,-529.69 221.06,-587.05 264.78,-674 265.68,-675.79 266.74,-677.54 267.9,-679.23"/>
<polygon fill="black" stroke="black" points="265.35,-681.63 274.4,-687.14 270.76,-677.19 265.35,-681.63"/>
</g>
<!-- f11 -->
<g id="node8" class="node">
<title>f11</title>
<ellipse fill="none" stroke="black" cx="291.78" cy="-231" rx="27" ry="18"/>
<text text-anchor="middle" x="291.78" y="-227.3" font-family="Times,serif" font-size="14.00">f11</text>
</g>
<!-- P&#45;&gt;f11 -->
<g id="edge7" class="edge">
<title>P&#45;&gt;f11</title>
<path fill="none" stroke="black" d="M141.55,-430.06C167.22,-429.62 205.76,-424.77 228.78,-402 275.69,-355.61 232.82,-315.71 264.78,-258 265.75,-256.25 266.86,-254.53 268.07,-252.86"/>
<polygon fill="black" stroke="black" points="270.92,-254.91 274.66,-244.99 265.55,-250.41 270.92,-254.91"/>
</g>
<!-- f10 -->
<g id="node9" class="node">
<title>f10</title>
<ellipse fill="none" stroke="black" cx="291.78" cy="-123" rx="27" ry="18"/>
<text text-anchor="middle" x="291.78" y="-119.3" font-family="Times,serif" font-size="14.00">f10</text>
</g>
<!-- P&#45;&gt;f10 -->
<g id="edge8" class="edge">
<title>P&#45;&gt;f10</title>
<path fill="none" stroke="black" d="M141.58,-430.55C167.64,-430.54 206.82,-426.07 228.78,-402 305.02,-318.41 215.14,-251.67 264.78,-150 265.66,-148.2 266.7,-146.45 267.85,-144.75"/>
<polygon fill="black" stroke="black" points="270.71,-146.78 274.32,-136.82 265.29,-142.36 270.71,-146.78"/>
</g>
<!-- f7 -->
<g id="node10" class="node">
<title>f7</title>
<ellipse fill="none" stroke="black" cx="291.78" cy="-485" rx="27" ry="18"/>
<text text-anchor="middle" x="291.78" y="-481.3" font-family="Times,serif" font-size="14.00">f7</text>
</g>
<!-- P&#45;&gt;f7 -->
<g id="edge11" class="edge">
<title>P&#45;&gt;f7</title>
<path fill="none" stroke="black" d="M140.5,-434.21C163.71,-439.3 198.99,-447.78 228.78,-458 239.11,-461.54 250.11,-466.08 259.94,-470.41"/>
<polygon fill="black" stroke="black" points="258.76,-473.72 269.31,-474.64 261.63,-467.33 258.76,-473.72"/>
</g>
<!-- f6 -->
<g id="node11" class="node">
<title>f6</title>
<ellipse fill="none" stroke="black" cx="291.78" cy="-431" rx="27" ry="18"/>
<text text-anchor="middle" x="291.78" y="-427.3" font-family="Times,serif" font-size="14.00">f6</text>
</g>
<!-- P&#45;&gt;f6 -->
<g id="edge12" class="edge">
<title>P&#45;&gt;f6</title>
<path fill="none" stroke="black" d="M141.65,-429.3C171.57,-429.64 220.67,-430.2 254.3,-430.58"/>
<polygon fill="black" stroke="black" points="254.59,-434.09 264.63,-430.7 254.67,-427.09 254.59,-434.09"/>
</g>
<!-- f5 -->
<g id="node12" class="node">
<title>f5</title>
<ellipse fill="none" stroke="black" cx="291.78" cy="-539" rx="27" ry="18"/>
<text text-anchor="middle" x="291.78" y="-535.3" font-family="Times,serif" font-size="14.00">f5</text>
</g>
<!-- P&#45;&gt;f5 -->
<g id="edge13" class="edge">
<title>P&#45;&gt;f5</title>
<path fill="none" stroke="black" d="M141.47,-430.38C166,-432.82 202.75,-439.55 228.78,-458 252.31,-474.68 246.7,-489.52 264.78,-512 266.03,-513.56 267.36,-515.13 268.73,-516.7"/>
<polygon fill="black" stroke="black" points="266.37,-519.3 275.71,-524.3 271.52,-514.57 266.37,-519.3"/>
</g>
<!-- f3 -->
<g id="node13" class="node">
<title>f3</title>
<ellipse fill="none" stroke="black" cx="291.78" cy="-339" rx="27" ry="18"/>
<text text-anchor="middle" x="291.78" y="-335.3" font-family="Times,serif" font-size="14.00">f3</text>
</g>
<!-- P&#45;&gt;f3 -->
<g id="edge14" class="edge">
<title>P&#45;&gt;f3</title>
<path fill="none" stroke="black" d="M141.65,-426.9C165.66,-424.06 201.46,-417.41 228.78,-402 238.23,-396.67 256.15,-378.02 270.3,-362.38"/>
<polygon fill="black" stroke="black" points="273.23,-364.35 277.29,-354.56 268.02,-359.68 273.23,-364.35"/>
</g>
<!-- f2 -->
<g id="node14" class="node">
<title>f2</title>
<ellipse fill="none" stroke="black" cx="291.78" cy="-177" rx="27" ry="18"/>
<text text-anchor="middle" x="291.78" y="-173.3" font-family="Times,serif" font-size="14.00">f2</text>
</g>
<!-- P&#45;&gt;f2 -->
<g id="edge15" class="edge">
<title>P&#45;&gt;f2</title>
<path fill="none" stroke="black" d="M141.39,-430.38C167.3,-430.23 206.37,-425.65 228.78,-402 290.3,-337.07 224.02,-283.61 264.78,-204 265.69,-202.22 266.76,-200.48 267.93,-198.79"/>
<polygon fill="black" stroke="black" points="270.79,-200.83 274.44,-190.88 265.39,-196.38 270.79,-200.83"/>
</g>
<!-- f4 -->
<g id="node15" class="node">
<title>f4</title>
<ellipse fill="none" stroke="black" cx="291.78" cy="-69" rx="27" ry="18"/>
<text text-anchor="middle" x="291.78" y="-65.3" font-family="Times,serif" font-size="14.00">f4</text>
</g>
<!-- P&#45;&gt;f4 -->
<g id="edge16" class="edge">
<title>P&#45;&gt;f4</title>
<path fill="none" stroke="black" d="M141.7,-430.66C167.86,-430.75 207.12,-426.34 228.78,-402 274.29,-350.85 235.5,-157.89 264.78,-96 265.64,-94.19 266.66,-92.43 267.8,-90.72"/>
<polygon fill="black" stroke="black" points="270.66,-92.75 274.24,-82.78 265.22,-88.35 270.66,-92.75"/>
</g>
<!-- f1 -->
<g id="node16" class="node">
<title>f1</title>
<ellipse fill="none" stroke="black" cx="291.78" cy="-285" rx="27" ry="18"/>
<text text-anchor="middle" x="291.78" y="-281.3" font-family="Times,serif" font-size="14.00">f1</text>
</g>
<!-- P&#45;&gt;f1 -->
<g id="edge17" class="edge">
<title>P&#45;&gt;f1</title>
<path fill="none" stroke="black" d="M141.4,-429.36C166.58,-428.35 204.42,-423.02 228.78,-402 261.39,-373.85 241.4,-348.19 264.78,-312 265.87,-310.32 267.07,-308.65 268.34,-307.02"/>
<polygon fill="black" stroke="black" points="271.17,-309.1 275.09,-299.25 265.89,-304.51 271.17,-309.1"/>
</g>
<!-- f11&#45;&gt;y -->
<g id="edge19" class="edge">
<title>f11&#45;&gt;y</title>
<path fill="none" stroke="black" d="M308.25,-245.4C311.95,-249.29 315.72,-253.63 318.78,-258 341.22,-290.09 359.78,-331.53 370.58,-358.19"/>
<polygon fill="black" stroke="black" points="367.38,-359.63 374.32,-367.64 373.89,-357.05 367.38,-359.63"/>
</g>
<!-- f10&#45;&gt;y -->
<g id="edge25" class="edge">
<title>f10&#45;&gt;y</title>
<path fill="none" stroke="black" d="M308.86,-137.02C312.56,-140.91 316.16,-145.35 318.78,-150 357.17,-218.27 372.48,-311.08 378,-356.96"/>
<polygon fill="black" stroke="black" points="374.54,-357.51 379.15,-367.05 381.5,-356.72 374.54,-357.51"/>
</g>
<!-- f7&#45;&gt;y -->
<g id="edge33" class="edge">
<title>f7&#45;&gt;y</title>
<path fill="none" stroke="black" d="M307.52,-470.02C311.25,-466.15 315.2,-461.96 318.78,-458 333.42,-441.82 349.34,-423.04 361.39,-408.58"/>
<polygon fill="black" stroke="black" points="364.3,-410.55 367.99,-400.62 358.91,-406.08 364.3,-410.55"/>
</g>
<!-- f6&#45;&gt;y -->
<g id="edge37" class="edge">
<title>f6&#45;&gt;y</title>
<path fill="none" stroke="black" d="M313.63,-420.1C324.81,-414.26 338.78,-406.96 351.07,-400.53"/>
<polygon fill="black" stroke="black" points="352.83,-403.56 360.07,-395.82 349.59,-397.35 352.83,-403.56"/>
</g>
<!-- f5&#45;&gt;y -->
<g id="edge38" class="edge">
<title>f5&#45;&gt;y</title>
<path fill="none" stroke="black" d="M308.25,-524.6C311.95,-520.71 315.72,-516.37 318.78,-512 341.22,-479.91 359.78,-438.47 370.58,-411.81"/>
<polygon fill="black" stroke="black" points="373.89,-412.95 374.32,-402.36 367.38,-410.37 373.89,-412.95"/>
</g>
<!-- f3&#45;&gt;y -->
<g id="edge39" class="edge">
<title>f3&#45;&gt;y</title>
<path fill="none" stroke="black" d="M313.63,-349.9C324.81,-355.74 338.78,-363.04 351.07,-369.47"/>
<polygon fill="black" stroke="black" points="349.59,-372.65 360.07,-374.18 352.83,-366.44 349.59,-372.65"/>
</g>
<!-- f2&#45;&gt;y -->
<g id="edge41" class="edge">
<title>f2&#45;&gt;y</title>
<path fill="none" stroke="black" d="M308.63,-191.15C312.33,-195.04 316,-199.45 318.78,-204 349.11,-253.67 366.97,-320.13 375.21,-357.13"/>
<polygon fill="black" stroke="black" points="371.85,-358.15 377.38,-367.19 378.7,-356.68 371.85,-358.15"/>
</g>
<!-- f4&#45;&gt;y -->
<g id="edge42" class="edge">
<title>f4&#45;&gt;y</title>
<path fill="none" stroke="black" d="M309.01,-82.94C312.71,-86.83 316.27,-91.29 318.78,-96 365.23,-183.31 376.88,-302.95 379.8,-356.76"/>
<polygon fill="black" stroke="black" points="376.31,-357.09 380.29,-366.91 383.31,-356.76 376.31,-357.09"/>
</g>
<!-- f1&#45;&gt;y -->
<g id="edge45" class="edge">
<title>f1&#45;&gt;y</title>
<path fill="none" stroke="black" d="M307.52,-299.98C311.25,-303.85 315.2,-308.04 318.78,-312 333.42,-328.18 349.34,-346.96 361.39,-361.42"/>
<polygon fill="black" stroke="black" points="358.91,-363.92 367.99,-369.38 364.3,-359.45 358.91,-363.92"/>
</g>
<!-- surf_area_m2g -->
<g id="node17" class="node">
<title>surf_area_m2g</title>
<ellipse fill="none" stroke="black" cx="114.39" cy="-194" rx="63.89" ry="18"/>
<text text-anchor="middle" x="114.39" y="-190.3" font-family="Times,serif" font-size="14.00">surf_area_m2g</text>
</g>
<!-- surf_area_m2g&#45;&gt;f11 -->
<g id="edge20" class="edge">
<title>surf_area_m2g&#45;&gt;f11</title>
<path fill="none" stroke="black" d="M166.12,-204.7C194.75,-210.74 229.82,-218.14 255.46,-223.55"/>
<polygon fill="black" stroke="black" points="254.97,-227.02 265.48,-225.66 256.42,-220.17 254.97,-227.02"/>
</g>
<!-- surf_area_m2g&#45;&gt;f2 -->
<g id="edge21" class="edge">
<title>surf_area_m2g&#45;&gt;f2</title>
<path fill="none" stroke="black" d="M174.77,-188.24C201.31,-185.67 231.73,-182.72 254.76,-180.49"/>
<polygon fill="black" stroke="black" points="255.17,-183.97 264.78,-179.52 254.49,-177 255.17,-183.97"/>
</g>
<!-- NAV -->
<g id="node18" class="node">
<title>NAV</title>
<ellipse fill="none" stroke="black" cx="114.39" cy="-321" rx="28.7" ry="18"/>
<text text-anchor="middle" x="114.39" y="-317.3" font-family="Times,serif" font-size="14.00">NAV</text>
</g>
<!-- NAV&#45;&gt;f11 -->
<g id="edge22" class="edge">
<title>NAV&#45;&gt;f11</title>
<path fill="none" stroke="black" d="M143.06,-318.73C167.04,-315.8 201.99,-309.11 228.78,-294 230.05,-293.28 251.74,-271.14 269.11,-253.3"/>
<polygon fill="black" stroke="black" points="271.75,-255.61 276.22,-246 266.74,-250.72 271.75,-255.61"/>
</g>
<!-- NAV&#45;&gt;f6 -->
<g id="edge23" class="edge">
<title>NAV&#45;&gt;f6</title>
<path fill="none" stroke="black" d="M143.12,-322.34C167.46,-324.67 202.91,-330.99 228.78,-348 250.25,-362.11 267.07,-386.32 277.74,-404.97"/>
<polygon fill="black" stroke="black" points="274.74,-406.77 282.61,-413.86 280.88,-403.41 274.74,-406.77"/>
</g>
<!-- NAV&#45;&gt;f3 -->
<g id="edge24" class="edge">
<title>NAV&#45;&gt;f3</title>
<path fill="none" stroke="black" d="M142.79,-323.81C172.96,-326.91 221.58,-331.9 254.79,-335.31"/>
<polygon fill="black" stroke="black" points="254.69,-338.81 264.99,-336.35 255.4,-331.85 254.69,-338.81"/>
</g>
<!-- NASA -->
<g id="node19" class="node">
<title>NASA</title>
<ellipse fill="none" stroke="black" cx="114.39" cy="-131" rx="34.39" ry="18"/>
<text text-anchor="middle" x="114.39" y="-127.3" font-family="Times,serif" font-size="14.00">NASA</text>
</g>
<!-- NASA&#45;&gt;f10 -->
<g id="edge26" class="edge">
<title>NASA&#45;&gt;f10</title>
<path fill="none" stroke="black" d="M148.79,-129.48C178.93,-128.1 223.18,-126.08 254.25,-124.67"/>
<polygon fill="black" stroke="black" points="254.81,-128.14 264.64,-124.19 254.49,-121.15 254.81,-128.14"/>
</g>
<!-- NASA&#45;&gt;f2 -->
<g id="edge27" class="edge">
<title>NASA&#45;&gt;f2</title>
<path fill="none" stroke="black" d="M145.54,-138.91C176.38,-147 224.23,-159.55 256.5,-168.01"/>
<polygon fill="black" stroke="black" points="255.82,-171.45 266.38,-170.6 257.6,-164.68 255.82,-171.45"/>
</g>
<!-- largest_included_sphere_free -->
<g id="node20" class="node">
<title>largest_included_sphere_free</title>
<ellipse fill="none" stroke="black" cx="114.39" cy="-701" rx="114.28" ry="18"/>
<text text-anchor="middle" x="114.39" y="-697.3" font-family="Times,serif" font-size="14.00">largest_included_sphere_free</text>
</g>
<!-- largest_included_sphere_free&#45;&gt;f9 -->
<g id="edge29" class="edge">
<title>largest_included_sphere_free&#45;&gt;f9</title>
<path fill="none" stroke="black" d="M228.94,-701C238,-701 246.65,-701 254.46,-701"/>
<polygon fill="black" stroke="black" points="254.55,-704.5 264.55,-701 254.55,-697.5 254.55,-704.5"/>
</g>
<!-- density -->
<g id="node21" class="node">
<title>density</title>
<ellipse fill="none" stroke="black" cx="114.39" cy="-539" rx="36.29" ry="18"/>
<text text-anchor="middle" x="114.39" y="-535.3" font-family="Times,serif" font-size="14.00">density</text>
</g>
<!-- density&#45;&gt;f8 -->
<g id="edge31" class="edge">
<title>density&#45;&gt;f8</title>
<path fill="none" stroke="black" d="M148.57,-545.28C171.41,-550 202.29,-557.16 228.78,-566 239.22,-569.49 250.33,-574.04 260.22,-578.41"/>
<polygon fill="black" stroke="black" points="259.07,-581.74 269.63,-582.68 261.96,-575.36 259.07,-581.74"/>
</g>
<!-- density&#45;&gt;f5 -->
<g id="edge32" class="edge">
<title>density&#45;&gt;f5</title>
<path fill="none" stroke="black" d="M150.88,-539C181.06,-539 224.2,-539 254.57,-539"/>
<polygon fill="black" stroke="black" points="254.74,-542.5 264.74,-539 254.74,-535.5 254.74,-542.5"/>
</g>
<!-- void_frac -->
<g id="node22" class="node">
<title>void_frac</title>
<ellipse fill="none" stroke="black" cx="114.39" cy="-485" rx="44.39" ry="18"/>
<text text-anchor="middle" x="114.39" y="-481.3" font-family="Times,serif" font-size="14.00">void_frac</text>
</g>
<!-- void_frac&#45;&gt;f7 -->
<g id="edge34" class="edge">
<title>void_frac&#45;&gt;f7</title>
<path fill="none" stroke="black" d="M158.74,-485C188.25,-485 226.84,-485 254.67,-485"/>
<polygon fill="black" stroke="black" points="254.77,-488.5 264.77,-485 254.77,-481.5 254.77,-488.5"/>
</g>
<!-- void_frac&#45;&gt;f6 -->
<g id="edge35" class="edge">
<title>void_frac&#45;&gt;f6</title>
<path fill="none" stroke="black" d="M153.55,-476.58C175.72,-471.35 204.07,-464.1 228.78,-456 238.95,-452.66 249.85,-448.49 259.62,-444.51"/>
<polygon fill="black" stroke="black" points="261.06,-447.7 268.95,-440.63 258.37,-441.23 261.06,-447.7"/>
</g>
<!-- void_frac&#45;&gt;f5 -->
<g id="edge36" class="edge">
<title>void_frac&#45;&gt;f5</title>
<path fill="none" stroke="black" d="M154.7,-492.57C176.75,-497.26 204.59,-503.93 228.78,-512 239.22,-515.49 250.33,-520.04 260.22,-524.41"/>
<polygon fill="black" stroke="black" points="259.07,-527.74 269.63,-528.68 261.96,-521.36 259.07,-527.74"/>
</g>
<!-- largest_included_sphere -->
<g id="node23" class="node">
<title>largest_included_sphere</title>
<ellipse fill="none" stroke="black" cx="114.39" cy="-375" rx="96.38" ry="18"/>
<text text-anchor="middle" x="114.39" y="-371.3" font-family="Times,serif" font-size="14.00">largest_included_sphere</text>
</g>
<!-- largest_included_sphere&#45;&gt;f3 -->
<g id="edge40" class="edge">
<title>largest_included_sphere&#45;&gt;f3</title>
<path fill="none" stroke="black" d="M180.2,-361.7C205.69,-356.46 233.96,-350.66 255.53,-346.23"/>
<polygon fill="black" stroke="black" points="256.45,-349.62 265.55,-344.18 255.05,-342.76 256.45,-349.62"/>
</g>
<!-- lcd -->
<g id="node24" class="node">
<title>lcd</title>
<ellipse fill="none" stroke="black" cx="114.39" cy="-18" rx="27" ry="18"/>
<text text-anchor="middle" x="114.39" y="-14.3" font-family="Times,serif" font-size="14.00">lcd</text>
</g>
<!-- lcd&#45;&gt;f4 -->
<g id="edge43" class="edge">
<title>lcd&#45;&gt;f4</title>
<path fill="none" stroke="black" d="M140.43,-22.94C163.58,-27.75 198.83,-35.68 228.78,-45 238.76,-48.1 249.44,-52.01 259.07,-55.77"/>
<polygon fill="black" stroke="black" points="258.07,-59.14 268.65,-59.59 260.66,-52.64 258.07,-59.14"/>
</g>
<!-- volume -->
<g id="node25" class="node">
<title>volume</title>
<ellipse fill="none" stroke="black" cx="114.39" cy="-72" rx="37.89" ry="18"/>
<text text-anchor="middle" x="114.39" y="-68.3" font-family="Times,serif" font-size="14.00">volume</text>
</g>
<!-- volume&#45;&gt;f4 -->
<g id="edge44" class="edge">
<title>volume&#45;&gt;f4</title>
<path fill="none" stroke="black" d="M152.16,-71.37C182.26,-70.86 224.61,-70.13 254.56,-69.62"/>
<polygon fill="black" stroke="black" points="254.66,-73.12 264.6,-69.45 254.54,-66.12 254.66,-73.12"/>
</g>
<!-- pld -->
<g id="node26" class="node">
<title>pld</title>
<ellipse fill="none" stroke="black" cx="114.39" cy="-267" rx="27" ry="18"/>
<text text-anchor="middle" x="114.39" y="-263.3" font-family="Times,serif" font-size="14.00">pld</text>
</g>
<!-- pld&#45;&gt;f1 -->
<g id="edge46" class="edge">
<title>pld&#45;&gt;f1</title>
<path fill="none" stroke="black" d="M141.27,-269.66C171.19,-272.73 220.65,-277.8 254.42,-281.27"/>
<polygon fill="black" stroke="black" points="254.49,-284.79 264.79,-282.33 255.2,-277.83 254.49,-284.79"/>
</g>
</g>
</svg>
