<?xml version="1.0" encoding="UTF-8" standalone="no"?>
<!DOCTYPE svg PUBLIC "-//W3C//DTD SVG 1.1//EN"
 "http://www.w3.org/Graphics/SVG/1.1/DTD/svg11.dtd">
<!-- Generated by graphviz version 2.49.0 (0)
 -->
<!-- Pages: 1 -->
<svg width="1744pt" height="218pt"
 viewBox="0.00 0.00 1744.09 218.00" xmlns="http://www.w3.org/2000/svg" xmlns:xlink="http://www.w3.org/1999/xlink">
<g id="graph0" class="graph" transform="scale(1 1) rotate(0) translate(4 214)">
<polygon fill="white" stroke="transparent" points="-4,4 -4,-214 1740.09,-214 1740.09,4 -4,4"/>
<!-- f9 -->
<g id="node1" class="node">
<title>f9</title>
<ellipse fill="none" stroke="black" cx="145.39" cy="-105" rx="27" ry="18"/>
<text text-anchor="middle" x="145.39" y="-101.3" font-family="Times,serif" font-size="14.00">f9</text>
</g>
<!-- y -->
<g id="node2" class="node">
<title>y</title>
<ellipse fill="none" stroke="black" cx="181.39" cy="-18" rx="27" ry="18"/>
<text text-anchor="middle" x="181.39" y="-14.3" font-family="Times,serif" font-size="14.00">y</text>
</g>
<!-- f9&#45;&gt;y -->
<g id="edge1" class="edge">
<title>f9&#45;&gt;y</title>
<path fill="none" stroke="#ff0051" stroke-width="0.38" d="M151.36,-87.18C154.93,-77.41 159.68,-64.91 164.39,-54 165.73,-50.9 167.19,-47.67 168.68,-44.49"/>
<polygon fill="#ff0051" stroke="#ff0051" stroke-width="0.38" points="171.95,-45.77 173.13,-35.24 165.64,-42.74 171.95,-45.77"/>
<text text-anchor="middle" x="176.89" y="-57.8" font-family="Times,serif" font-size="14.00" fill="#ff0051" fill-opacity="0.286275">0.05</text>
</g>
<!-- largest_free_sphere -->
<g id="node3" class="node">
<title>largest_free_sphere</title>
<ellipse fill="none" stroke="black" cx="326.39" cy="-192" rx="79.09" ry="18"/>
<text text-anchor="middle" x="326.39" y="-188.3" font-family="Times,serif" font-size="14.00">largest_free_sphere</text>
</g>
<!-- largest_free_sphere&#45;&gt;f9 -->
<g id="edge2" class="edge">
<title>largest_free_sphere&#45;&gt;f9</title>
<path fill="none" stroke="#008bfb" stroke-width="0.21" d="M267.74,-179.83C246.67,-174.41 223.23,-166.69 203.39,-156 189.77,-148.66 176.55,-137.67 166.18,-127.85"/>
<polygon fill="#008bfb" stroke="#008bfb" stroke-width="0.21" points="168.44,-125.16 158.85,-120.66 163.54,-130.16 168.44,-125.16"/>
<text text-anchor="middle" x="217.89" y="-144.8" font-family="Times,serif" font-size="14.00" fill="#008bfb" fill-opacity="0.258824">&#45;0.03</text>
</g>
<!-- f12 -->
<g id="node4" class="node">
<title>f12</title>
<ellipse fill="none" stroke="black" cx="224.39" cy="-105" rx="27" ry="18"/>
<text text-anchor="middle" x="224.39" y="-101.3" font-family="Times,serif" font-size="14.00">f12</text>
</g>
<!-- largest_free_sphere&#45;&gt;f12 -->
<g id="edge3" class="edge">
<title>largest_free_sphere&#45;&gt;f12</title>
<path fill="none" stroke="#008bfb" stroke-width="0.07" d="M279.62,-177.38C267.67,-172.18 255.62,-165.21 246.39,-156 239.92,-149.55 235.21,-140.87 231.84,-132.56"/>
<polygon fill="#008bfb" stroke="#008bfb" stroke-width="0.07" points="235.14,-131.38 228.49,-123.13 228.54,-133.72 235.14,-131.38"/>
<text text-anchor="middle" x="260.89" y="-144.8" font-family="Times,serif" font-size="14.00" fill="#008bfb" fill-opacity="0.235294">&#45;0.00</text>
</g>
<!-- f12&#45;&gt;y -->
<g id="edge4" class="edge">
<title>f12&#45;&gt;y</title>
<path fill="none" stroke="#ff0051" stroke-width="0.15" d="M216.1,-87.61C209.91,-75.38 201.34,-58.44 194.27,-44.46"/>
<polygon fill="#ff0051" stroke="#ff0051" stroke-width="0.15" points="197.29,-42.68 189.66,-35.34 191.05,-45.84 197.29,-42.68"/>
<text text-anchor="middle" x="218.89" y="-57.8" font-family="Times,serif" font-size="14.00" fill="#ff0051" fill-opacity="0.247059">0.02</text>
</g>
<!-- f5 -->
<g id="node5" class="node">
<title>f5</title>
<ellipse fill="none" stroke="black" cx="468.39" cy="-105" rx="27" ry="18"/>
<text text-anchor="middle" x="468.39" y="-101.3" font-family="Times,serif" font-size="14.00">f5</text>
</g>
<!-- f5&#45;&gt;y -->
<g id="edge5" class="edge">
<title>f5&#45;&gt;y</title>
<path fill="none" stroke="#ff0051" stroke-width="0.19" d="M444.22,-96.63C411.93,-86.8 352.91,-68.91 302.39,-54 273.21,-45.39 240.01,-35.8 215.78,-28.84"/>
<polygon fill="#ff0051" stroke="#ff0051" stroke-width="0.19" points="216.56,-25.42 205.98,-26.03 214.63,-32.15 216.56,-25.42"/>
<text text-anchor="middle" x="365.89" y="-57.8" font-family="Times,serif" font-size="14.00" fill="#ff0051" fill-opacity="0.254902">0.02</text>
</g>
<!-- density -->
<g id="node6" class="node">
<title>density</title>
<ellipse fill="none" stroke="black" cx="555.39" cy="-192" rx="36.29" ry="18"/>
<text text-anchor="middle" x="555.39" y="-188.3" font-family="Times,serif" font-size="14.00">density</text>
</g>
<!-- density&#45;&gt;f5 -->
<g id="edge6" class="edge">
<title>density&#45;&gt;f5</title>
<path fill="none" stroke="#ff0051" stroke-width="0.12" d="M546.41,-174.49C540.25,-164.12 531.4,-150.88 521.39,-141 514.36,-134.06 505.76,-127.69 497.54,-122.35"/>
<polygon fill="#ff0051" stroke="#ff0051" stroke-width="0.12" points="499.22,-119.27 488.88,-116.96 495.53,-125.21 499.22,-119.27"/>
<text text-anchor="middle" x="545.89" y="-144.8" font-family="Times,serif" font-size="14.00" fill="#ff0051" fill-opacity="0.243137">0.01</text>
</g>
<!-- f8 -->
<g id="node7" class="node">
<title>f8</title>
<ellipse fill="none" stroke="black" cx="337.39" cy="-105" rx="27" ry="18"/>
<text text-anchor="middle" x="337.39" y="-101.3" font-family="Times,serif" font-size="14.00">f8</text>
</g>
<!-- density&#45;&gt;f8 -->
<g id="edge7" class="edge">
<title>density&#45;&gt;f8</title>
<path fill="none" stroke="#ff0051" stroke-width="0.31" d="M527.28,-180.27C521.39,-178.12 515.21,-175.93 509.39,-174 482.56,-165.1 474.05,-167.85 448.39,-156 437.31,-150.89 436.22,-146.62 425.39,-141 407.82,-131.89 387.31,-123.61 370.52,-117.39"/>
<polygon fill="#ff0051" stroke="#ff0051" stroke-width="0.31" points="371.71,-114.1 361.11,-113.98 369.32,-120.68 371.71,-114.1"/>
<text text-anchor="middle" x="460.89" y="-144.8" font-family="Times,serif" font-size="14.00" fill="#ff0051" fill-opacity="0.274510">0.04</text>
</g>
<!-- f8&#45;&gt;y -->
<g id="edge8" class="edge">
<title>f8&#45;&gt;y</title>
<path fill="none" stroke="#008bfb" stroke-width="0.6" d="M317,-92.89C289.9,-78.12 241.85,-51.95 210.83,-35.04"/>
<polygon fill="#008bfb" stroke="#008bfb" stroke-width="0.6" points="212.24,-31.83 201.79,-30.11 208.9,-37.97 212.24,-31.83"/>
<text text-anchor="middle" x="283.89" y="-57.8" font-family="Times,serif" font-size="14.00" fill="#008bfb" fill-opacity="0.317647">&#45;0.09</text>
</g>
<!-- largest_included_sphere_free -->
<g id="node8" class="node">
<title>largest_included_sphere_free</title>
<ellipse fill="none" stroke="black" cx="114.39" cy="-192" rx="114.28" ry="18"/>
<text text-anchor="middle" x="114.39" y="-188.3" font-family="Times,serif" font-size="14.00">largest_included_sphere_free</text>
</g>
<!-- largest_included_sphere_free&#45;&gt;f9 -->
<g id="edge9" class="edge">
<title>largest_included_sphere_free&#45;&gt;f9</title>
<path fill="none" stroke="#ff0051" stroke-width="0.54" d="M120.66,-173.8C125.01,-161.89 130.87,-145.82 135.79,-132.31"/>
<polygon fill="#ff0051" stroke="#ff0051" stroke-width="0.54" points="139.2,-133.19 139.34,-122.6 132.62,-130.79 139.2,-133.19"/>
<text text-anchor="middle" x="144.89" y="-144.8" font-family="Times,serif" font-size="14.00" fill="#ff0051" fill-opacity="0.309804">0.08</text>
</g>
<!-- f3 -->
<g id="node9" class="node">
<title>f3</title>
<ellipse fill="none" stroke="black" cx="1361.39" cy="-105" rx="27" ry="18"/>
<text text-anchor="middle" x="1361.39" y="-101.3" font-family="Times,serif" font-size="14.00">f3</text>
</g>
<!-- f3&#45;&gt;y -->
<g id="edge10" class="edge">
<title>f3&#45;&gt;y</title>
<path fill="none" stroke="#008bfb" stroke-width="0.32" d="M1335.72,-98.69C1316.02,-94.82 1288.1,-89.79 1263.39,-87 1113.91,-70.11 1073.09,-97.54 925.39,-69 905.1,-65.08 901.68,-57.89 881.39,-54 752.64,-29.34 344.72,-21.4 218.79,-19.5"/>
<polygon fill="#008bfb" stroke="#008bfb" stroke-width="0.32" points="218.56,-16 208.51,-19.35 218.46,-23 218.56,-16"/>
<text text-anchor="middle" x="939.89" y="-57.8" font-family="Times,serif" font-size="14.00" fill="#008bfb" fill-opacity="0.274510">&#45;0.04</text>
</g>
<!-- largest_included_sphere -->
<g id="node10" class="node">
<title>largest_included_sphere</title>
<ellipse fill="none" stroke="black" cx="1461.39" cy="-192" rx="96.38" ry="18"/>
<text text-anchor="middle" x="1461.39" y="-188.3" font-family="Times,serif" font-size="14.00">largest_included_sphere</text>
</g>
<!-- largest_included_sphere&#45;&gt;f3 -->
<g id="edge11" class="edge">
<title>largest_included_sphere&#45;&gt;f3</title>
<path fill="none" stroke="#008bfb" stroke-width="0.32" d="M1539.79,-181.53C1570.68,-176.04 1601.03,-167.82 1610.39,-156 1614.53,-150.77 1614.81,-145.99 1610.39,-141 1588.73,-116.51 1496.75,-127.66 1464.39,-123 1442.04,-119.78 1417.04,-115.67 1397.27,-112.29"/>
<polygon fill="#008bfb" stroke="#008bfb" stroke-width="0.32" points="1397.61,-108.8 1387.17,-110.55 1396.43,-115.7 1397.61,-108.8"/>
<text text-anchor="middle" x="1627.89" y="-144.8" font-family="Times,serif" font-size="14.00" fill="#008bfb" fill-opacity="0.274510">&#45;0.04</text>
</g>
<!-- f6 -->
<g id="node11" class="node">
<title>f6</title>
<ellipse fill="none" stroke="black" cx="897.39" cy="-105" rx="27" ry="18"/>
<text text-anchor="middle" x="897.39" y="-101.3" font-family="Times,serif" font-size="14.00">f6</text>
</g>
<!-- f6&#45;&gt;y -->
<g id="edge12" class="edge">
<title>f6&#45;&gt;y</title>
<path fill="none" stroke="#ff0051" stroke-width="1.76" d="M874.12,-95.6C864.43,-92.43 852.98,-89.08 842.39,-87 752.2,-69.33 727.4,-81.8 636.39,-69 601.86,-64.14 593.9,-58.95 559.39,-54 435.23,-36.2 286.76,-25.52 218.75,-21.22"/>
<polygon fill="#ff0051" stroke="#ff0051" stroke-width="1.76" points="218.74,-17.71 208.54,-20.58 218.3,-24.69 218.74,-17.71"/>
<text text-anchor="middle" x="648.89" y="-57.8" font-family="Times,serif" font-size="14.00" fill="#ff0051" fill-opacity="0.498039">0.28</text>
</g>
<!-- NAV -->
<g id="node12" class="node">
<title>NAV</title>
<ellipse fill="none" stroke="black" cx="1301.39" cy="-192" rx="28.7" ry="18"/>
<text text-anchor="middle" x="1301.39" y="-188.3" font-family="Times,serif" font-size="14.00">NAV</text>
</g>
<!-- NAV&#45;&gt;f3 -->
<g id="edge13" class="edge">
<title>NAV&#45;&gt;f3</title>
<path fill="none" stroke="#ff0051" stroke-width="0.05" d="M1325.77,-182.39C1335.23,-179.34 1346.22,-176.13 1356.39,-174 1390.98,-166.75 1490.86,-182.36 1514.39,-156 1518.83,-151.03 1518.55,-146.21 1514.39,-141 1507.07,-131.82 1440.3,-119.14 1397.42,-111.84"/>
<polygon fill="#ff0051" stroke="#ff0051" stroke-width="0.05" points="1397.79,-108.35 1387.35,-110.14 1396.63,-115.25 1397.79,-108.35"/>
<text text-anchor="middle" x="1529.89" y="-144.8" font-family="Times,serif" font-size="14.00" fill="#ff0051" fill-opacity="0.235294">0.00</text>
</g>
<!-- NAV&#45;&gt;f6 -->
<g id="edge14" class="edge">
<title>NAV&#45;&gt;f6</title>
<path fill="none" stroke="#ff0051" stroke-width="0.05" d="M1324.82,-181.23C1345.19,-171.42 1369.42,-155.69 1355.39,-141 1340.37,-125.27 985.9,-126.19 964.39,-123 953.42,-121.37 941.63,-118.7 931.05,-115.96"/>
<polygon fill="#ff0051" stroke="#ff0051" stroke-width="0.05" points="931.91,-112.56 921.34,-113.33 930.08,-119.32 931.91,-112.56"/>
<text text-anchor="middle" x="1371.89" y="-144.8" font-family="Times,serif" font-size="14.00" fill="#ff0051" fill-opacity="0.235294">0.00</text>
</g>
<!-- f11 -->
<g id="node13" class="node">
<title>f11</title>
<ellipse fill="none" stroke="black" cx="1227.39" cy="-105" rx="27" ry="18"/>
<text text-anchor="middle" x="1227.39" y="-101.3" font-family="Times,serif" font-size="14.00">f11</text>
</g>
<!-- NAV&#45;&gt;f11 -->
<g id="edge15" class="edge">
<title>NAV&#45;&gt;f11</title>
<path fill="none" stroke="#ff0051" stroke-width="0.05" d="M1325.83,-182.65C1335.3,-179.63 1346.27,-176.38 1356.39,-174 1406.08,-162.31 1500.12,-179.31 1466.39,-141 1445.52,-117.29 1356.63,-127.7 1325.39,-123 1304.74,-119.89 1281.73,-115.93 1263.2,-112.61"/>
<polygon fill="#ff0051" stroke="#ff0051" stroke-width="0.05" points="1263.59,-109.12 1253.13,-110.79 1262.35,-116.01 1263.59,-109.12"/>
<text text-anchor="middle" x="1485.89" y="-144.8" font-family="Times,serif" font-size="14.00" fill="#ff0051" fill-opacity="0.235294">0.00</text>
</g>
<!-- f11&#45;&gt;y -->
<g id="edge16" class="edge">
<title>f11&#45;&gt;y</title>
<path fill="none" stroke="#ff0051" stroke-width="0.05" d="M1202.2,-98.32C1184.46,-94.53 1160.08,-89.75 1138.39,-87 1013.8,-71.19 979.73,-92.65 856.39,-69 835.27,-64.95 831.53,-57.96 810.39,-54 695.85,-32.52 336.16,-22.55 218.82,-19.81"/>
<polygon fill="#ff0051" stroke="#ff0051" stroke-width="0.05" points="218.63,-16.3 208.55,-19.57 218.47,-23.3 218.63,-16.3"/>
<text text-anchor="middle" x="868.89" y="-57.8" font-family="Times,serif" font-size="14.00" fill="#ff0051" fill-opacity="0.235294">0.00</text>
</g>
<!-- f4 -->
<g id="node14" class="node">
<title>f4</title>
<ellipse fill="none" stroke="black" cx="1500.39" cy="-105" rx="27" ry="18"/>
<text text-anchor="middle" x="1500.39" y="-101.3" font-family="Times,serif" font-size="14.00">f4</text>
</g>
<!-- f4&#45;&gt;y -->
<g id="edge17" class="edge">
<title>f4&#45;&gt;y</title>
<path fill="none" stroke="#008bfb" stroke-width="1.18" d="M1474.66,-99.1C1453.88,-95.3 1423.84,-90.16 1397.39,-87 935.01,-31.73 368.21,-21.23 218.88,-19.37"/>
<polygon fill="#008bfb" stroke="#008bfb" stroke-width="1.18" points="218.5,-15.87 208.46,-19.25 218.42,-22.87 218.5,-15.87"/>
<text text-anchor="middle" x="1212.89" y="-57.8" font-family="Times,serif" font-size="14.00" fill="#008bfb" fill-opacity="0.407843">&#45;0.18</text>
</g>
<!-- lcd -->
<g id="node15" class="node">
<title>lcd</title>
<ellipse fill="none" stroke="black" cx="1611.39" cy="-192" rx="27" ry="18"/>
<text text-anchor="middle" x="1611.39" y="-188.3" font-family="Times,serif" font-size="14.00">lcd</text>
</g>
<!-- lcd&#45;&gt;f4 -->
<g id="edge18" class="edge">
<title>lcd&#45;&gt;f4</title>
<path fill="none" stroke="#008bfb" stroke-width="1.7" d="M1629.75,-178.59C1642.71,-168.3 1656.17,-153.4 1646.39,-141 1633.04,-124.07 1575.96,-114.4 1537.26,-109.68"/>
<polygon fill="#008bfb" stroke="#008bfb" stroke-width="1.7" points="1537.22,-106.16 1526.88,-108.48 1536.41,-113.11 1537.22,-106.16"/>
<text text-anchor="middle" x="1663.89" y="-144.8" font-family="Times,serif" font-size="14.00" fill="#008bfb" fill-opacity="0.490196">&#45;0.27</text>
</g>
<!-- volume -->
<g id="node16" class="node">
<title>volume</title>
<ellipse fill="none" stroke="black" cx="1698.39" cy="-192" rx="37.89" ry="18"/>
<text text-anchor="middle" x="1698.39" y="-188.3" font-family="Times,serif" font-size="14.00">volume</text>
</g>
<!-- volume&#45;&gt;f4 -->
<g id="edge19" class="edge">
<title>volume&#45;&gt;f4</title>
<path fill="none" stroke="#ff0051" stroke-width="0.57" d="M1697.25,-173.76C1695.6,-162.82 1691.66,-149.22 1682.39,-141 1661.35,-122.34 1584.21,-112.85 1537.37,-108.7"/>
<polygon fill="#ff0051" stroke="#ff0051" stroke-width="0.57" points="1537.56,-105.2 1527.3,-107.85 1536.97,-112.18 1537.56,-105.2"/>
<text text-anchor="middle" x="1704.89" y="-144.8" font-family="Times,serif" font-size="14.00" fill="#ff0051" fill-opacity="0.313725">0.08</text>
</g>
<!-- f7 -->
<g id="node17" class="node">
<title>f7</title>
<ellipse fill="none" stroke="black" cx="605.39" cy="-105" rx="27" ry="18"/>
<text text-anchor="middle" x="605.39" y="-101.3" font-family="Times,serif" font-size="14.00">f7</text>
</g>
<!-- f7&#45;&gt;y -->
<g id="edge20" class="edge">
<title>f7&#45;&gt;y</title>
<path fill="none" stroke="#ff0051" stroke-width="0.14" d="M579.63,-99.3C546.21,-93.07 486.18,-81.4 435.39,-69 411.61,-63.19 406.26,-59.44 382.39,-54 325.2,-40.97 257.9,-30.15 217.5,-24.14"/>
<polygon fill="#ff0051" stroke="#ff0051" stroke-width="0.14" points="217.98,-20.67 207.58,-22.68 216.96,-27.6 217.98,-20.67"/>
<text text-anchor="middle" x="447.89" y="-57.8" font-family="Times,serif" font-size="14.00" fill="#ff0051" fill-opacity="0.247059">0.01</text>
</g>
<!-- void_frac -->
<g id="node18" class="node">
<title>void_frac</title>
<ellipse fill="none" stroke="black" cx="654.39" cy="-192" rx="44.39" ry="18"/>
<text text-anchor="middle" x="654.39" y="-188.3" font-family="Times,serif" font-size="14.00">void_frac</text>
</g>
<!-- void_frac&#45;&gt;f5 -->
<g id="edge21" class="edge">
<title>void_frac&#45;&gt;f5</title>
<path fill="none" stroke="#ff0051" stroke-width="0.11" d="M629.58,-177C607.04,-164.38 575.38,-146.91 562.39,-141 542.73,-132.05 520.06,-123.56 501.9,-117.18"/>
<polygon fill="#ff0051" stroke="#ff0051" stroke-width="0.11" points="502.93,-113.83 492.33,-113.86 500.63,-120.45 502.93,-113.83"/>
<text text-anchor="middle" x="601.89" y="-144.8" font-family="Times,serif" font-size="14.00" fill="#ff0051" fill-opacity="0.243137">0.01</text>
</g>
<!-- void_frac&#45;&gt;f6 -->
<g id="edge22" class="edge">
<title>void_frac&#45;&gt;f6</title>
<path fill="none" stroke="#ff0051" stroke-width="1.76" d="M687.28,-179.85C694.81,-177.63 702.82,-175.51 710.39,-174 749.59,-166.16 860.31,-183.43 889.39,-156 895.51,-150.23 898.17,-141.8 899.1,-133.49"/>
<polygon fill="#ff0051" stroke="#ff0051" stroke-width="1.76" points="902.61,-133.38 899.5,-123.25 895.62,-133.11 902.61,-133.38"/>
<text text-anchor="middle" x="909.89" y="-144.8" font-family="Times,serif" font-size="14.00" fill="#ff0051" fill-opacity="0.498039">0.28</text>
</g>
<!-- void_frac&#45;&gt;f7 -->
<g id="edge23" class="edge">
<title>void_frac&#45;&gt;f7</title>
<path fill="none" stroke="#ff0051" stroke-width="0.14" d="M663.75,-174.33C668.13,-164.15 671.23,-151.17 665.39,-141 659.44,-130.65 649.12,-123.07 638.7,-117.66"/>
<polygon fill="#ff0051" stroke="#ff0051" stroke-width="0.14" points="640.17,-114.49 629.62,-113.46 637.23,-120.84 640.17,-114.49"/>
<text text-anchor="middle" x="681.89" y="-144.8" font-family="Times,serif" font-size="14.00" fill="#ff0051" fill-opacity="0.247059">0.01</text>
</g>
<!-- P -->
<g id="node19" class="node">
<title>P</title>
<ellipse fill="none" stroke="black" cx="832.39" cy="-192" rx="27" ry="18"/>
<text text-anchor="middle" x="832.39" y="-188.3" font-family="Times,serif" font-size="14.00">P</text>
</g>
<!-- P&#45;&gt;f9 -->
<g id="edge24" class="edge">
<title>P&#45;&gt;f9</title>
<path fill="none" stroke="#ff0051" stroke-width="0.05" d="M809.86,-181.81C801.39,-178.76 791.58,-175.72 782.39,-174 687.72,-156.32 441.65,-183.63 349.39,-156 336.98,-152.28 336.62,-145.27 324.39,-141 266.83,-120.9 247.4,-138.32 188.39,-123 184.57,-122.01 180.62,-120.77 176.75,-119.41"/>
<polygon fill="#ff0051" stroke="#ff0051" stroke-width="0.05" points="177.95,-116.13 167.36,-115.88 175.49,-122.68 177.95,-116.13"/>
<text text-anchor="middle" x="361.89" y="-144.8" font-family="Times,serif" font-size="14.00" fill="#ff0051" fill-opacity="0.235294">0.00</text>
</g>
<!-- P&#45;&gt;y -->
<g id="edge25" class="edge">
<title>P&#45;&gt;y</title>
<path fill="none" stroke="#ff0051" stroke-width="0.05" d="M858.48,-187.1C893.05,-180.84 947.37,-166.59 926.39,-141 900.53,-109.45 875.18,-135.63 836.39,-123 800.09,-111.17 795.27,-96.86 758.39,-87 672.6,-64.06 644.46,-94.48 559.39,-69 545.87,-64.95 544.89,-58.11 531.39,-54 473.65,-36.41 296.35,-25.11 218.59,-20.88"/>
<polygon fill="#ff0051" stroke="#ff0051" stroke-width="0.05" points="218.48,-17.37 208.3,-20.33 218.1,-24.36 218.48,-17.37"/>
<text text-anchor="middle" x="848.89" y="-101.3" font-family="Times,serif" font-size="14.00" fill="#ff0051" fill-opacity="0.235294">0.00</text>
</g>
<!-- P&#45;&gt;f12 -->
<g id="edge26" class="edge">
<title>P&#45;&gt;f12</title>
<path fill="none" stroke="#ff0051" stroke-width="0.05" d="M809.84,-181.91C801.37,-178.88 791.56,-175.81 782.39,-174 719.04,-161.5 552.7,-179.06 492.39,-156 482.34,-152.16 483.36,-145.05 473.39,-141 402.19,-112.04 377.26,-135.3 301.39,-123 287.53,-120.75 272.41,-117.58 259.27,-114.58"/>
<polygon fill="#ff0051" stroke="#ff0051" stroke-width="0.05" points="259.75,-111.1 249.22,-112.23 258.16,-117.91 259.75,-111.1"/>
<text text-anchor="middle" x="504.89" y="-144.8" font-family="Times,serif" font-size="14.00" fill="#ff0051" fill-opacity="0.235294">0.00</text>
</g>
<!-- P&#45;&gt;f5 -->
<g id="edge27" class="edge">
<title>P&#45;&gt;f5</title>
<path fill="none" stroke="#ff0051" stroke-width="0.05" d="M808.82,-182.99C783.97,-174.5 746.5,-161.57 732.39,-156 717.03,-149.93 714.28,-145.52 698.39,-141 642.71,-125.17 626.61,-131.81 569.39,-123 547.64,-119.65 523.32,-115.57 503.99,-112.24"/>
<polygon fill="#ff0051" stroke="#ff0051" stroke-width="0.05" points="504.55,-108.79 494.1,-110.53 503.35,-115.69 504.55,-108.79"/>
<text text-anchor="middle" x="744.89" y="-144.8" font-family="Times,serif" font-size="14.00" fill="#ff0051" fill-opacity="0.235294">0.00</text>
</g>
<!-- P&#45;&gt;f8 -->
<g id="edge28" class="edge">
<title>P&#45;&gt;f8</title>
<path fill="none" stroke="#ff0051" stroke-width="0.05" d="M809.52,-182.12C801.1,-179.15 791.42,-176.07 782.39,-174 718.66,-159.4 696.72,-181.19 636.39,-156 626.46,-151.86 627.37,-145.02 617.39,-141 540.75,-110.16 514.23,-134.28 432.39,-123 412.69,-120.28 390.83,-116.43 373.05,-113.08"/>
<polygon fill="#ff0051" stroke="#ff0051" stroke-width="0.05" points="373.59,-109.62 363.11,-111.18 372.27,-116.49 373.59,-109.62"/>
<text text-anchor="middle" x="648.89" y="-144.8" font-family="Times,serif" font-size="14.00" fill="#ff0051" fill-opacity="0.235294">0.00</text>
</g>
<!-- P&#45;&gt;f3 -->
<g id="edge29" class="edge">
<title>P&#45;&gt;f3</title>
<path fill="none" stroke="#ff0051" stroke-width="0.05" d="M858.09,-186.28C880.73,-182.31 914.63,-176.85 944.39,-174 968.96,-171.64 1371.29,-173.81 1388.39,-156 1396.18,-147.88 1391.67,-137.07 1384.27,-127.58"/>
<polygon fill="#ff0051" stroke="#ff0051" stroke-width="0.05" points="1386.83,-125.19 1377.59,-120.01 1381.58,-129.82 1386.83,-125.19"/>
<text text-anchor="middle" x="1404.89" y="-144.8" font-family="Times,serif" font-size="14.00" fill="#ff0051" fill-opacity="0.235294">0.00</text>
</g>
<!-- P&#45;&gt;f6 -->
<g id="edge30" class="edge">
<title>P&#45;&gt;f6</title>
<path fill="none" stroke="#ff0051" stroke-width="0.05" d="M858.88,-188.52C896.85,-184.35 963.78,-174.52 978.39,-156 994.27,-135.86 961.13,-121.76 932.56,-113.78"/>
<polygon fill="#ff0051" stroke="#ff0051" stroke-width="0.05" points="933.3,-110.36 922.74,-111.22 931.53,-117.13 933.3,-110.36"/>
<text text-anchor="middle" x="994.89" y="-144.8" font-family="Times,serif" font-size="14.00" fill="#ff0051" fill-opacity="0.235294">0.00</text>
</g>
<!-- P&#45;&gt;f11 -->
<g id="edge31" class="edge">
<title>P&#45;&gt;f11</title>
<path fill="none" stroke="#ff0051" stroke-width="0.05" d="M858.1,-186.4C880.75,-182.51 914.66,-177.1 944.39,-174 979.15,-170.37 1234.4,-181.41 1258.39,-156 1266.58,-147.33 1260.85,-136.16 1252.19,-126.58"/>
<polygon fill="#ff0051" stroke="#ff0051" stroke-width="0.05" points="1254.4,-123.85 1244.83,-119.32 1249.49,-128.84 1254.4,-123.85"/>
<text text-anchor="middle" x="1273.89" y="-144.8" font-family="Times,serif" font-size="14.00" fill="#ff0051" fill-opacity="0.235294">0.00</text>
</g>
<!-- P&#45;&gt;f4 -->
<g id="edge32" class="edge">
<title>P&#45;&gt;f4</title>
<path fill="none" stroke="#ff0051" stroke-width="0.05" d="M858.08,-186.2C880.72,-182.18 914.62,-176.69 944.39,-174 977.71,-170.98 1523.09,-180.01 1546.39,-156 1557.17,-144.89 1544.81,-132.03 1530.2,-122.14"/>
<polygon fill="#ff0051" stroke="#ff0051" stroke-width="0.05" points="1531.83,-119.03 1521.49,-116.69 1528.11,-124.96 1531.83,-119.03"/>
<text text-anchor="middle" x="1562.89" y="-144.8" font-family="Times,serif" font-size="14.00" fill="#ff0051" fill-opacity="0.235294">0.00</text>
</g>
<!-- P&#45;&gt;f7 -->
<g id="edge33" class="edge">
<title>P&#45;&gt;f7</title>
<path fill="none" stroke="#ff0051" stroke-width="0.05" d="M823.75,-174.85C816.81,-163.52 805.99,-149.01 792.39,-141 751.21,-116.76 733.34,-131.91 686.39,-123 671.4,-120.15 654.9,-116.74 640.73,-113.73"/>
<polygon fill="#ff0051" stroke="#ff0051" stroke-width="0.05" points="641.39,-110.29 630.88,-111.61 639.92,-117.13 641.39,-110.29"/>
<text text-anchor="middle" x="821.89" y="-144.8" font-family="Times,serif" font-size="14.00" fill="#ff0051" fill-opacity="0.235294">0.00</text>
</g>
<!-- f10 -->
<g id="node20" class="node">
<title>f10</title>
<ellipse fill="none" stroke="black" cx="1000.39" cy="-105" rx="27" ry="18"/>
<text text-anchor="middle" x="1000.39" y="-101.3" font-family="Times,serif" font-size="14.00">f10</text>
</g>
<!-- P&#45;&gt;f10 -->
<g id="edge34" class="edge">
<title>P&#45;&gt;f10</title>
<path fill="none" stroke="#ff0051" stroke-width="0.05" d="M858.32,-186.82C906.75,-178.88 1006.52,-161.91 1011.39,-156 1017.05,-149.12 1016.59,-139.96 1013.94,-131.36"/>
<polygon fill="#ff0051" stroke="#ff0051" stroke-width="0.05" points="1017.18,-130.03 1010.22,-122.04 1010.68,-132.63 1017.18,-130.03"/>
<text text-anchor="middle" x="1027.89" y="-144.8" font-family="Times,serif" font-size="14.00" fill="#ff0051" fill-opacity="0.235294">0.00</text>
</g>
<!-- f1 -->
<g id="node21" class="node">
<title>f1</title>
<ellipse fill="none" stroke="black" cx="722.39" cy="-105" rx="27" ry="18"/>
<text text-anchor="middle" x="722.39" y="-101.3" font-family="Times,serif" font-size="14.00">f1</text>
</g>
<!-- P&#45;&gt;f1 -->
<g id="edge35" class="edge">
<title>P&#45;&gt;f1</title>
<path fill="none" stroke="#ff0051" stroke-width="0.05" d="M847.47,-177.01C856.96,-166.49 865.94,-152.05 857.39,-141 856.6,-139.98 796.88,-124.77 757.14,-114.74"/>
<polygon fill="#ff0051" stroke="#ff0051" stroke-width="0.05" points="757.82,-111.3 747.27,-112.25 756.11,-118.09 757.82,-111.3"/>
<text text-anchor="middle" x="872.89" y="-144.8" font-family="Times,serif" font-size="14.00" fill="#ff0051" fill-opacity="0.235294">0.00</text>
</g>
<!-- f2 -->
<g id="node22" class="node">
<title>f2</title>
<ellipse fill="none" stroke="black" cx="1102.39" cy="-105" rx="27" ry="18"/>
<text text-anchor="middle" x="1102.39" y="-101.3" font-family="Times,serif" font-size="14.00">f2</text>
</g>
<!-- P&#45;&gt;f2 -->
<g id="edge36" class="edge">
<title>P&#45;&gt;f2</title>
<path fill="none" stroke="#ff0051" stroke-width="0.05" d="M858.6,-186.7C881.27,-183.06 914.94,-177.83 944.39,-174 981.19,-169.21 1085.61,-183.62 1110.39,-156 1116.21,-149.51 1116.32,-140.54 1114.27,-131.99"/>
<polygon fill="#ff0051" stroke="#ff0051" stroke-width="0.05" points="1117.54,-130.72 1111.09,-122.32 1110.89,-132.91 1117.54,-130.72"/>
<text text-anchor="middle" x="1127.89" y="-144.8" font-family="Times,serif" font-size="14.00" fill="#ff0051" fill-opacity="0.235294">0.00</text>
</g>
<!-- f10&#45;&gt;y -->
<g id="edge37" class="edge">
<title>f10&#45;&gt;y</title>
<path fill="none" stroke="#008bfb" stroke-width="0.05" d="M976.1,-96.78C963.47,-93.3 947.72,-89.37 933.39,-87 833.98,-70.55 806.2,-88.76 707.39,-69 686.3,-64.78 682.49,-58.15 661.39,-54 498.77,-22.05 300,-18.6 218.72,-18.66"/>
<polygon fill="#008bfb" stroke="#008bfb" stroke-width="0.05" points="218.48,-15.17 208.49,-18.69 218.5,-22.17 218.48,-15.17"/>
<text text-anchor="middle" x="721.89" y="-57.8" font-family="Times,serif" font-size="14.00" fill="#008bfb" fill-opacity="0.235294">&#45;0.00</text>
</g>
<!-- f1&#45;&gt;y -->
<g id="edge38" class="edge">
<title>f1&#45;&gt;y</title>
<path fill="none" stroke="#ff0051" stroke-width="0.27" d="M697.31,-98.23C681.35,-94.69 660.23,-90.23 641.39,-87 581.73,-76.78 565.41,-82.44 506.39,-69 485.42,-64.23 481.38,-58.69 460.39,-54 374.86,-34.87 272.08,-25.36 218.31,-21.38"/>
<polygon fill="#ff0051" stroke="#ff0051" stroke-width="0.27" points="218.45,-17.88 208.22,-20.66 217.95,-24.87 218.45,-17.88"/>
<text text-anchor="middle" x="518.89" y="-57.8" font-family="Times,serif" font-size="14.00" fill="#ff0051" fill-opacity="0.266667">0.04</text>
</g>
<!-- f2&#45;&gt;y -->
<g id="edge39" class="edge">
<title>f2&#45;&gt;y</title>
<path fill="none" stroke="#008bfb" stroke-width="4.15" d="M1078.17,-96.63C1065.78,-93.16 1050.4,-89.28 1036.39,-87 924.25,-68.76 892.83,-91.14 781.39,-69 760.71,-64.89 757.08,-58.03 736.39,-54 636.65,-34.57 325.72,-23.43 218.32,-20.08"/>
<polygon fill="#008bfb" stroke="#008bfb" stroke-width="4.15" points="218.39,-16.46 208.28,-19.77 218.16,-23.71 218.39,-16.46"/>
<text text-anchor="middle" x="795.89" y="-57.8" font-family="Times,serif" font-size="14.00" fill="#008bfb" fill-opacity="0.866667">&#45;0.66</text>
</g>
<!-- surf_area_m2g -->
<g id="node23" class="node">
<title>surf_area_m2g</title>
<ellipse fill="none" stroke="black" cx="1157.39" cy="-192" rx="63.89" ry="18"/>
<text text-anchor="middle" x="1157.39" y="-188.3" font-family="Times,serif" font-size="14.00">surf_area_m2g</text>
</g>
<!-- surf_area_m2g&#45;&gt;f11 -->
<g id="edge40" class="edge">
<title>surf_area_m2g&#45;&gt;f11</title>
<path fill="none" stroke="#ff0051" stroke-width="0.05" d="M1212.6,-182.79C1257.78,-175.51 1315.34,-164.7 1322.39,-156 1341.42,-132.51 1298.19,-118.71 1263.96,-111.76"/>
<polygon fill="#ff0051" stroke="#ff0051" stroke-width="0.05" points="1264.18,-108.24 1253.7,-109.81 1262.88,-115.11 1264.18,-108.24"/>
<text text-anchor="middle" x="1338.89" y="-144.8" font-family="Times,serif" font-size="14.00" fill="#ff0051" fill-opacity="0.235294">0.00</text>
</g>
<!-- surf_area_m2g&#45;&gt;f2 -->
<g id="edge41" class="edge">
<title>surf_area_m2g&#45;&gt;f2</title>
<path fill="none" stroke="#008bfb" stroke-width="5" d="M1196.75,-177.55C1216.3,-168.66 1233.58,-155.92 1222.39,-141 1212.27,-127.51 1170.2,-117.5 1138.71,-111.71"/>
<polygon fill="#008bfb" stroke="#008bfb" stroke-width="5" points="1139.11,-107.34 1128.5,-109.92 1137.59,-115.96 1139.11,-107.34"/>
<text text-anchor="middle" x="1239.89" y="-144.8" font-family="Times,serif" font-size="14.00" fill="#008bfb">&#45;0.80</text>
</g>
<!-- VolFrac -->
<g id="node24" class="node">
<title>VolFrac</title>
<ellipse fill="none" stroke="black" cx="462.39" cy="-192" rx="38.19" ry="18"/>
<text text-anchor="middle" x="462.39" y="-188.3" font-family="Times,serif" font-size="14.00">VolFrac</text>
</g>
<!-- VolFrac&#45;&gt;f12 -->
<g id="edge42" class="edge">
<title>VolFrac&#45;&gt;f12</title>
<path fill="none" stroke="#ff0051" stroke-width="0.17" d="M433.72,-179.87C427.42,-177.7 420.73,-175.6 414.39,-174 364.24,-161.31 347.59,-174.79 299.39,-156 296.66,-154.94 271.5,-138.04 251.06,-124.17"/>
<polygon fill="#ff0051" stroke="#ff0051" stroke-width="0.17" points="252.91,-121.2 242.67,-118.47 248.98,-126.99 252.91,-121.2"/>
<text text-anchor="middle" x="311.89" y="-144.8" font-family="Times,serif" font-size="14.00" fill="#ff0051" fill-opacity="0.250980">0.02</text>
</g>
<!-- VolFrac&#45;&gt;f8 -->
<g id="edge43" class="edge">
<title>VolFrac&#45;&gt;f8</title>
<path fill="none" stroke="#008bfb" stroke-width="0.86" d="M436.26,-178.78C423.82,-172.55 408.95,-164.51 396.39,-156 383.63,-147.36 370.46,-136.42 359.8,-126.98"/>
<polygon fill="#008bfb" stroke="#008bfb" stroke-width="0.86" points="361.96,-124.21 352.2,-120.11 357.27,-129.41 361.96,-124.21"/>
<text text-anchor="middle" x="410.89" y="-144.8" font-family="Times,serif" font-size="14.00" fill="#008bfb" fill-opacity="0.356863">&#45;0.13</text>
</g>
<!-- NASA -->
<g id="node25" class="node">
<title>NASA</title>
<ellipse fill="none" stroke="black" cx="987.39" cy="-192" rx="34.39" ry="18"/>
<text text-anchor="middle" x="987.39" y="-188.3" font-family="Times,serif" font-size="14.00">NASA</text>
</g>
<!-- NASA&#45;&gt;f10 -->
<g id="edge44" class="edge">
<title>NASA&#45;&gt;f10</title>
<path fill="none" stroke="#008bfb" stroke-width="0.05" d="M1020.82,-186.76C1039.95,-182.42 1062.45,-173.67 1074.39,-156 1087.26,-136.95 1060.38,-123.19 1035.49,-114.98"/>
<polygon fill="#008bfb" stroke="#008bfb" stroke-width="0.05" points="1036.37,-111.59 1025.78,-112.01 1034.32,-118.29 1036.37,-111.59"/>
<text text-anchor="middle" x="1091.89" y="-144.8" font-family="Times,serif" font-size="14.00" fill="#008bfb" fill-opacity="0.235294">&#45;0.00</text>
</g>
<!-- NASA&#45;&gt;f2 -->
<g id="edge45" class="edge">
<title>NASA&#45;&gt;f2</title>
<path fill="none" stroke="#ff0051" stroke-width="0.9" d="M1019.7,-185.22C1072.88,-175.67 1173.15,-157.49 1174.39,-156 1188.89,-138.53 1162.04,-124.44 1137.1,-115.72"/>
<polygon fill="#ff0051" stroke="#ff0051" stroke-width="0.9" points="1137.97,-112.33 1127.38,-112.54 1135.79,-118.98 1137.97,-112.33"/>
<text text-anchor="middle" x="1190.89" y="-144.8" font-family="Times,serif" font-size="14.00" fill="#ff0051" fill-opacity="0.364706">0.14</text>
</g>
<!-- pld -->
<g id="node26" class="node">
<title>pld</title>
<ellipse fill="none" stroke="black" cx="746.39" cy="-192" rx="27" ry="18"/>
<text text-anchor="middle" x="746.39" y="-188.3" font-family="Times,serif" font-size="14.00">pld</text>
</g>
<!-- pld&#45;&gt;f1 -->
<g id="edge46" class="edge">
<title>pld&#45;&gt;f1</title>
<path fill="none" stroke="#ff0051" stroke-width="0.27" d="M756.73,-175.31C762,-165.27 766.34,-152.09 761.39,-141 758.67,-134.89 754.29,-129.41 749.44,-124.69"/>
<polygon fill="#ff0051" stroke="#ff0051" stroke-width="0.27" points="751.45,-121.8 741.59,-117.93 746.88,-127.11 751.45,-121.8"/>
<text text-anchor="middle" x="775.89" y="-144.8" font-family="Times,serif" font-size="14.00" fill="#ff0051" fill-opacity="0.266667">0.04</text>
</g>
</g>
</svg>
