<?xml version="1.0" encoding="UTF-8" standalone="no"?>
<!DOCTYPE svg PUBLIC "-//W3C//DTD SVG 1.1//EN"
 "http://www.w3.org/Graphics/SVG/1.1/DTD/svg11.dtd">
<!-- Generated by graphviz version 2.49.0 (0)
 -->
<!-- Pages: 1 -->
<svg width="417pt" height="530pt"
 viewBox="0.00 0.00 416.78 530.00" xmlns="http://www.w3.org/2000/svg" xmlns:xlink="http://www.w3.org/1999/xlink">
<g id="graph0" class="graph" transform="scale(1 1) rotate(0) translate(4 526)">
<polygon fill="white" stroke="transparent" points="-4,4 -4,-526 412.78,-526 412.78,4 -4,4"/>
<!-- f1 -->
<g id="node1" class="node">
<title>f1</title>
<ellipse fill="none" stroke="black" cx="291.78" cy="-180" rx="27" ry="18"/>
<text text-anchor="middle" x="291.78" y="-176.3" font-family="Times,serif" font-size="14.00">f1</text>
</g>
<!-- y -->
<g id="node2" class="node">
<title>y</title>
<ellipse fill="none" stroke="black" cx="381.78" cy="-226" rx="27" ry="18"/>
<text text-anchor="middle" x="381.78" y="-222.3" font-family="Times,serif" font-size="14.00">y</text>
</g>
<!-- f1&#45;&gt;y -->
<g id="edge1" class="edge">
<title>f1&#45;&gt;y</title>
<path fill="none" stroke="black" d="M313.63,-190.9C324.81,-196.74 338.78,-204.04 351.07,-210.47"/>
<polygon fill="black" stroke="black" points="349.59,-213.65 360.07,-215.18 352.83,-207.44 349.59,-213.65"/>
</g>
<!-- P -->
<g id="node3" class="node">
<title>P</title>
<ellipse fill="none" stroke="black" cx="114.39" cy="-180" rx="27" ry="18"/>
<text text-anchor="middle" x="114.39" y="-176.3" font-family="Times,serif" font-size="14.00">P</text>
</g>
<!-- P&#45;&gt;f1 -->
<g id="edge2" class="edge">
<title>P&#45;&gt;f1</title>
<path fill="none" stroke="black" d="M141.65,-180C171.57,-180 220.67,-180 254.3,-180"/>
<polygon fill="black" stroke="black" points="254.63,-183.5 264.63,-180 254.63,-176.5 254.63,-183.5"/>
</g>
<!-- P&#45;&gt;y -->
<g id="edge10" class="edge">
<title>P&#45;&gt;y</title>
<path fill="none" stroke="black" d="M140.48,-184.66C170.14,-190.15 221.01,-199.46 264.78,-207 291.81,-211.66 322.44,-216.66 345.43,-220.36"/>
<polygon fill="black" stroke="black" points="344.99,-223.84 355.42,-221.97 346.1,-216.93 344.99,-223.84"/>
</g>
<!-- f8 -->
<g id="node4" class="node">
<title>f8</title>
<ellipse fill="none" stroke="black" cx="291.78" cy="-272" rx="27" ry="18"/>
<text text-anchor="middle" x="291.78" y="-268.3" font-family="Times,serif" font-size="14.00">f8</text>
</g>
<!-- P&#45;&gt;f8 -->
<g id="edge3" class="edge">
<title>P&#45;&gt;f8</title>
<path fill="none" stroke="black" d="M141.25,-181.94C165.29,-184.69 201.41,-191.28 228.78,-207 238.54,-212.61 257.01,-232.56 271.26,-248.9"/>
<polygon fill="black" stroke="black" points="268.68,-251.27 277.86,-256.55 273.98,-246.69 268.68,-251.27"/>
</g>
<!-- f3 -->
<g id="node5" class="node">
<title>f3</title>
<ellipse fill="none" stroke="black" cx="291.78" cy="-442" rx="27" ry="18"/>
<text text-anchor="middle" x="291.78" y="-438.3" font-family="Times,serif" font-size="14.00">f3</text>
</g>
<!-- P&#45;&gt;f3 -->
<g id="edge4" class="edge">
<title>P&#45;&gt;f3</title>
<path fill="none" stroke="black" d="M141.4,-178.62C167.32,-178.75 206.39,-183.33 228.78,-207 290.84,-272.62 228.9,-324.11 264.78,-407 266.47,-410.91 268.67,-414.79 271.08,-418.46"/>
<polygon fill="black" stroke="black" points="268.25,-420.52 276.93,-426.59 273.93,-416.43 268.25,-420.52"/>
</g>
<!-- f4 -->
<g id="node6" class="node">
<title>f4</title>
<ellipse fill="none" stroke="black" cx="291.78" cy="-126" rx="27" ry="18"/>
<text text-anchor="middle" x="291.78" y="-122.3" font-family="Times,serif" font-size="14.00">f4</text>
</g>
<!-- P&#45;&gt;f4 -->
<g id="edge5" class="edge">
<title>P&#45;&gt;f4</title>
<path fill="none" stroke="black" d="M140.52,-175.35C163.74,-170.74 199.03,-162.93 228.78,-153 239.22,-149.51 250.33,-144.96 260.22,-140.59"/>
<polygon fill="black" stroke="black" points="261.96,-143.64 269.63,-136.32 259.07,-137.26 261.96,-143.64"/>
</g>
<!-- f2 -->
<g id="node7" class="node">
<title>f2</title>
<ellipse fill="none" stroke="black" cx="291.78" cy="-326" rx="27" ry="18"/>
<text text-anchor="middle" x="291.78" y="-322.3" font-family="Times,serif" font-size="14.00">f2</text>
</g>
<!-- P&#45;&gt;f2 -->
<g id="edge6" class="edge">
<title>P&#45;&gt;f2</title>
<path fill="none" stroke="black" d="M141.43,-179.6C166.64,-180.58 204.5,-185.89 228.78,-207 261.91,-235.81 241.09,-262.03 264.78,-299 265.86,-300.68 267.05,-302.35 268.32,-303.99"/>
<polygon fill="black" stroke="black" points="265.87,-306.5 275.06,-311.76 271.16,-301.91 265.87,-306.5"/>
</g>
<!-- f5 -->
<g id="node8" class="node">
<title>f5</title>
<ellipse fill="none" stroke="black" cx="291.78" cy="-380" rx="27" ry="18"/>
<text text-anchor="middle" x="291.78" y="-376.3" font-family="Times,serif" font-size="14.00">f5</text>
</g>
<!-- P&#45;&gt;f5 -->
<g id="edge7" class="edge">
<title>P&#45;&gt;f5</title>
<path fill="none" stroke="black" d="M141.57,-178.92C167.25,-179.35 205.79,-184.2 228.78,-207 276.23,-254.07 232.5,-294.48 264.78,-353 265.75,-354.75 266.86,-356.47 268.06,-358.14"/>
<polygon fill="black" stroke="black" points="265.54,-360.59 274.65,-366.01 270.91,-356.1 265.54,-360.59"/>
</g>
<!-- f7 -->
<g id="node9" class="node">
<title>f7</title>
<ellipse fill="none" stroke="black" cx="291.78" cy="-72" rx="27" ry="18"/>
<text text-anchor="middle" x="291.78" y="-68.3" font-family="Times,serif" font-size="14.00">f7</text>
</g>
<!-- P&#45;&gt;f7 -->
<g id="edge8" class="edge">
<title>P&#45;&gt;f7</title>
<path fill="none" stroke="black" d="M141.45,-179.15C165.97,-177.2 202.71,-171.16 228.78,-153 252.45,-136.52 246.7,-121.48 264.78,-99 266.03,-97.44 267.36,-95.87 268.73,-94.3"/>
<polygon fill="black" stroke="black" points="271.52,-96.43 275.71,-86.7 266.37,-91.7 271.52,-96.43"/>
</g>
<!-- f6 -->
<g id="node10" class="node">
<title>f6</title>
<ellipse fill="none" stroke="black" cx="291.78" cy="-18" rx="27" ry="18"/>
<text text-anchor="middle" x="291.78" y="-14.3" font-family="Times,serif" font-size="14.00">f6</text>
</g>
<!-- P&#45;&gt;f6 -->
<g id="edge9" class="edge">
<title>P&#45;&gt;f6</title>
<path fill="none" stroke="black" d="M141.67,-180.67C167.06,-179.88 205.05,-174.73 228.78,-153 266.1,-118.83 238.59,-88.29 264.78,-45 265.82,-43.29 266.98,-41.6 268.22,-39.95"/>
<polygon fill="black" stroke="black" points="271.06,-42.01 274.9,-32.14 265.74,-37.46 271.06,-42.01"/>
</g>
<!-- f8&#45;&gt;y -->
<g id="edge11" class="edge">
<title>f8&#45;&gt;y</title>
<path fill="none" stroke="black" d="M313.63,-261.1C324.81,-255.26 338.78,-247.96 351.07,-241.53"/>
<polygon fill="black" stroke="black" points="352.83,-244.56 360.07,-236.82 349.59,-238.35 352.83,-244.56"/>
</g>
<!-- f3&#45;&gt;y -->
<g id="edge13" class="edge">
<title>f3&#45;&gt;y</title>
<path fill="none" stroke="black" d="M306.05,-426.31C310.52,-420.5 315.25,-413.7 318.78,-407 345.81,-355.63 364.83,-290.06 374.18,-253.6"/>
<polygon fill="black" stroke="black" points="377.62,-254.25 376.66,-243.7 370.83,-252.55 377.62,-254.25"/>
</g>
<!-- f4&#45;&gt;y -->
<g id="edge17" class="edge">
<title>f4&#45;&gt;y</title>
<path fill="none" stroke="black" d="M307.52,-140.98C311.25,-144.85 315.2,-149.04 318.78,-153 333.42,-169.18 349.34,-187.96 361.39,-202.42"/>
<polygon fill="black" stroke="black" points="358.91,-204.92 367.99,-210.38 364.3,-200.45 358.91,-204.92"/>
</g>
<!-- f2&#45;&gt;y -->
<g id="edge21" class="edge">
<title>f2&#45;&gt;y</title>
<path fill="none" stroke="black" d="M307.52,-311.02C311.25,-307.15 315.2,-302.96 318.78,-299 333.42,-282.82 349.34,-264.04 361.39,-249.58"/>
<polygon fill="black" stroke="black" points="364.3,-251.55 367.99,-241.62 358.91,-247.08 364.3,-251.55"/>
</g>
<!-- f5&#45;&gt;y -->
<g id="edge25" class="edge">
<title>f5&#45;&gt;y</title>
<path fill="none" stroke="black" d="M308.25,-365.6C311.95,-361.71 315.72,-357.37 318.78,-353 341.22,-320.91 359.78,-279.47 370.58,-252.81"/>
<polygon fill="black" stroke="black" points="373.89,-253.95 374.32,-243.36 367.38,-251.37 373.89,-253.95"/>
</g>
<!-- f7&#45;&gt;y -->
<g id="edge27" class="edge">
<title>f7&#45;&gt;y</title>
<path fill="none" stroke="black" d="M308.25,-86.4C311.95,-90.29 315.72,-94.63 318.78,-99 341.22,-131.09 359.78,-172.53 370.58,-199.19"/>
<polygon fill="black" stroke="black" points="367.38,-200.63 374.32,-208.64 373.89,-198.05 367.38,-200.63"/>
</g>
<!-- f6&#45;&gt;y -->
<g id="edge30" class="edge">
<title>f6&#45;&gt;y</title>
<path fill="none" stroke="black" d="M308.63,-32.15C312.33,-36.04 316,-40.45 318.78,-45 349.11,-94.67 366.97,-161.13 375.21,-198.13"/>
<polygon fill="black" stroke="black" points="371.85,-199.15 377.38,-208.19 378.7,-197.68 371.85,-199.15"/>
</g>
<!-- surf_area_m2g -->
<g id="node11" class="node">
<title>surf_area_m2g</title>
<ellipse fill="none" stroke="black" cx="114.39" cy="-234" rx="63.89" ry="18"/>
<text text-anchor="middle" x="114.39" y="-230.3" font-family="Times,serif" font-size="14.00">surf_area_m2g</text>
</g>
<!-- surf_area_m2g&#45;&gt;f8 -->
<g id="edge12" class="edge">
<title>surf_area_m2g&#45;&gt;f8</title>
<path fill="none" stroke="black" d="M165.65,-244.89C194.48,-251.13 229.94,-258.82 255.75,-264.41"/>
<polygon fill="black" stroke="black" points="255.31,-267.9 265.82,-266.59 256.79,-261.05 255.31,-267.9"/>
</g>
<!-- NAV -->
<g id="node12" class="node">
<title>NAV</title>
<ellipse fill="none" stroke="black" cx="114.39" cy="-504" rx="28.7" ry="18"/>
<text text-anchor="middle" x="114.39" y="-500.3" font-family="Times,serif" font-size="14.00">NAV</text>
</g>
<!-- NAV&#45;&gt;f3 -->
<g id="edge14" class="edge">
<title>NAV&#45;&gt;f3</title>
<path fill="none" stroke="black" d="M142.61,-499.73C165.99,-495.55 200.33,-488.16 228.78,-477 240.53,-472.39 252.77,-465.89 263.24,-459.74"/>
<polygon fill="black" stroke="black" points="265.18,-462.66 271.92,-454.49 261.56,-456.67 265.18,-462.66"/>
</g>
<!-- spg -->
<g id="node13" class="node">
<title>spg</title>
<ellipse fill="none" stroke="black" cx="114.39" cy="-450" rx="27" ry="18"/>
<text text-anchor="middle" x="114.39" y="-446.3" font-family="Times,serif" font-size="14.00">spg</text>
</g>
<!-- spg&#45;&gt;f3 -->
<g id="edge15" class="edge">
<title>spg&#45;&gt;f3</title>
<path fill="none" stroke="black" d="M141.65,-448.8C171.57,-447.44 220.67,-445.2 254.3,-443.66"/>
<polygon fill="black" stroke="black" points="254.8,-447.14 264.63,-443.19 254.48,-440.15 254.8,-447.14"/>
</g>
<!-- spg&#45;&gt;f5 -->
<g id="edge16" class="edge">
<title>spg&#45;&gt;f5</title>
<path fill="none" stroke="black" d="M141.04,-446.68C164.61,-442.99 200.14,-435.79 228.78,-423 241.99,-417.1 255.35,-408.28 266.26,-400.17"/>
<polygon fill="black" stroke="black" points="268.65,-402.75 274.44,-393.88 264.38,-397.2 268.65,-402.75"/>
</g>
<!-- density -->
<g id="node14" class="node">
<title>density</title>
<ellipse fill="none" stroke="black" cx="114.39" cy="-126" rx="36.29" ry="18"/>
<text text-anchor="middle" x="114.39" y="-122.3" font-family="Times,serif" font-size="14.00">density</text>
</g>
<!-- density&#45;&gt;f4 -->
<g id="edge18" class="edge">
<title>density&#45;&gt;f4</title>
<path fill="none" stroke="black" d="M150.88,-126C181.06,-126 224.2,-126 254.57,-126"/>
<polygon fill="black" stroke="black" points="254.74,-129.5 264.74,-126 254.74,-122.5 254.74,-129.5"/>
</g>
<!-- VolFrac -->
<g id="node15" class="node">
<title>VolFrac</title>
<ellipse fill="none" stroke="black" cx="114.39" cy="-72" rx="38.19" ry="18"/>
<text text-anchor="middle" x="114.39" y="-68.3" font-family="Times,serif" font-size="14.00">VolFrac</text>
</g>
<!-- VolFrac&#45;&gt;f4 -->
<g id="edge19" class="edge">
<title>VolFrac&#45;&gt;f4</title>
<path fill="none" stroke="black" d="M150.07,-78.6C172.75,-83.31 202.87,-90.35 228.78,-99 239.22,-102.49 250.33,-107.04 260.22,-111.41"/>
<polygon fill="black" stroke="black" points="259.07,-114.74 269.63,-115.68 261.96,-108.36 259.07,-114.74"/>
</g>
<!-- VolFrac&#45;&gt;f7 -->
<g id="edge20" class="edge">
<title>VolFrac&#45;&gt;f7</title>
<path fill="none" stroke="black" d="M153.02,-72C182.96,-72 224.61,-72 254.26,-72"/>
<polygon fill="black" stroke="black" points="254.59,-75.5 264.59,-72 254.59,-68.5 254.59,-75.5"/>
</g>
<!-- largest_included_sphere_free -->
<g id="node16" class="node">
<title>largest_included_sphere_free</title>
<ellipse fill="none" stroke="black" cx="114.39" cy="-342" rx="114.28" ry="18"/>
<text text-anchor="middle" x="114.39" y="-338.3" font-family="Times,serif" font-size="14.00">largest_included_sphere_free</text>
</g>
<!-- largest_included_sphere_free&#45;&gt;f2 -->
<g id="edge22" class="edge">
<title>largest_included_sphere_free&#45;&gt;f2</title>
<path fill="none" stroke="black" d="M213.85,-333.02C228.47,-331.68 242.68,-330.39 254.83,-329.28"/>
<polygon fill="black" stroke="black" points="255.29,-332.75 264.93,-328.36 254.65,-325.78 255.29,-332.75"/>
</g>
<!-- largest_included_sphere_free&#45;&gt;f5 -->
<g id="edge23" class="edge">
<title>largest_included_sphere_free&#45;&gt;f5</title>
<path fill="none" stroke="black" d="M182.45,-356.53C207.43,-361.94 234.79,-367.87 255.76,-372.41"/>
<polygon fill="black" stroke="black" points="255.28,-375.89 265.8,-374.59 256.76,-369.05 255.28,-375.89"/>
</g>
<!-- surf_area_m2cm3 -->
<g id="node17" class="node">
<title>surf_area_m2cm3</title>
<ellipse fill="none" stroke="black" cx="114.39" cy="-288" rx="75.29" ry="18"/>
<text text-anchor="middle" x="114.39" y="-284.3" font-family="Times,serif" font-size="14.00">surf_area_m2cm3</text>
</g>
<!-- surf_area_m2cm3&#45;&gt;f2 -->
<g id="edge24" class="edge">
<title>surf_area_m2cm3&#45;&gt;f2</title>
<path fill="none" stroke="black" d="M170.88,-300.02C198.81,-306.07 231.79,-313.22 256.09,-318.48"/>
<polygon fill="black" stroke="black" points="255.42,-321.92 265.93,-320.62 256.9,-315.08 255.42,-321.92"/>
</g>
<!-- largest_free_sphere -->
<g id="node18" class="node">
<title>largest_free_sphere</title>
<ellipse fill="none" stroke="black" cx="114.39" cy="-396" rx="79.09" ry="18"/>
<text text-anchor="middle" x="114.39" y="-392.3" font-family="Times,serif" font-size="14.00">largest_free_sphere</text>
</g>
<!-- largest_free_sphere&#45;&gt;f5 -->
<g id="edge26" class="edge">
<title>largest_free_sphere&#45;&gt;f5</title>
<path fill="none" stroke="black" d="M188.25,-389.35C211.12,-387.27 235.38,-385.05 254.55,-383.3"/>
<polygon fill="black" stroke="black" points="255,-386.78 264.64,-382.38 254.36,-379.81 255,-386.78"/>
</g>
<!-- void_frac -->
<g id="node19" class="node">
<title>void_frac</title>
<ellipse fill="none" stroke="black" cx="114.39" cy="-18" rx="44.39" ry="18"/>
<text text-anchor="middle" x="114.39" y="-14.3" font-family="Times,serif" font-size="14.00">void_frac</text>
</g>
<!-- void_frac&#45;&gt;f7 -->
<g id="edge28" class="edge">
<title>void_frac&#45;&gt;f7</title>
<path fill="none" stroke="black" d="M154.7,-25.57C176.75,-30.26 204.59,-36.93 228.78,-45 239.22,-48.49 250.33,-53.04 260.22,-57.41"/>
<polygon fill="black" stroke="black" points="259.07,-60.74 269.63,-61.68 261.96,-54.36 259.07,-60.74"/>
</g>
<!-- void_frac&#45;&gt;f6 -->
<g id="edge29" class="edge">
<title>void_frac&#45;&gt;f6</title>
<path fill="none" stroke="black" d="M158.74,-18C188.25,-18 226.84,-18 254.67,-18"/>
<polygon fill="black" stroke="black" points="254.77,-21.5 264.77,-18 254.77,-14.5 254.77,-21.5"/>
</g>
</g>
</svg>
