<?xml version="1.0" encoding="UTF-8" standalone="no"?>
<!DOCTYPE svg PUBLIC "-//W3C//DTD SVG 1.1//EN"
 "http://www.w3.org/Graphics/SVG/1.1/DTD/svg11.dtd">
<!-- Generated by graphviz version 2.49.0 (0)
 -->
<!-- Pages: 1 -->
<svg width="1257pt" height="218pt"
 viewBox="0.00 0.00 1257.49 218.00" xmlns="http://www.w3.org/2000/svg" xmlns:xlink="http://www.w3.org/1999/xlink">
<g id="graph0" class="graph" transform="scale(1 1) rotate(0) translate(4 214)">
<polygon fill="white" stroke="transparent" points="-4,4 -4,-214 1253.49,-214 1253.49,4 -4,4"/>
<!-- f6 -->
<g id="node1" class="node">
<title>f6</title>
<ellipse fill="none" stroke="black" cx="177.2" cy="-105" rx="27" ry="18"/>
<text text-anchor="middle" x="177.2" y="-101.3" font-family="Times,serif" font-size="14.00">f6</text>
</g>
<!-- y -->
<g id="node2" class="node">
<title>y</title>
<ellipse fill="none" stroke="black" cx="100.2" cy="-18" rx="27" ry="18"/>
<text text-anchor="middle" x="100.2" y="-14.3" font-family="Times,serif" font-size="14.00">y</text>
</g>
<!-- f6&#45;&gt;y -->
<g id="edge1" class="edge">
<title>f6&#45;&gt;y</title>
<path fill="none" stroke="#008bfb" stroke-width="3.53" d="M163.78,-89.19C151.82,-75.99 134.14,-56.47 120.45,-41.36"/>
<polygon fill="#008bfb" stroke="#008bfb" stroke-width="3.53" points="123.02,-38.98 113.71,-33.92 117.83,-43.68 123.02,-38.98"/>
<text text-anchor="middle" x="158.7" y="-57.8" font-family="Times,serif" font-size="14.00" fill="#008bfb" fill-opacity="0.772549">&#45;0.06</text>
</g>
<!-- void_frac -->
<g id="node3" class="node">
<title>void_frac</title>
<ellipse fill="none" stroke="black" cx="44.2" cy="-192" rx="44.39" ry="18"/>
<text text-anchor="middle" x="44.2" y="-188.3" font-family="Times,serif" font-size="14.00">void_frac</text>
</g>
<!-- void_frac&#45;&gt;f6 -->
<g id="edge2" class="edge">
<title>void_frac&#45;&gt;f6</title>
<path fill="none" stroke="#008bfb" stroke-width="3.53" d="M79.64,-181.21C104.05,-173.99 133.86,-164.06 144.2,-156 152.6,-149.45 159.56,-140.14 164.89,-131.32"/>
<polygon fill="#008bfb" stroke="#008bfb" stroke-width="3.53" points="168.02,-132.89 169.84,-122.45 161.91,-129.48 168.02,-132.89"/>
<text text-anchor="middle" x="172.7" y="-144.8" font-family="Times,serif" font-size="14.00" fill="#008bfb" fill-opacity="0.772549">&#45;0.06</text>
</g>
<!-- f7 -->
<g id="node4" class="node">
<title>f7</title>
<ellipse fill="none" stroke="black" cx="64.2" cy="-105" rx="27" ry="18"/>
<text text-anchor="middle" x="64.2" y="-101.3" font-family="Times,serif" font-size="14.00">f7</text>
</g>
<!-- void_frac&#45;&gt;f7 -->
<g id="edge3" class="edge">
<title>void_frac&#45;&gt;f7</title>
<path fill="none" stroke="#008bfb" stroke-width="1.71" d="M48.24,-173.8C51,-162.09 54.7,-146.34 57.85,-132.97"/>
<polygon fill="#008bfb" stroke="#008bfb" stroke-width="1.71" points="61.34,-133.42 60.22,-122.89 54.53,-131.82 61.34,-133.42"/>
<text text-anchor="middle" x="70.7" y="-144.8" font-family="Times,serif" font-size="14.00" fill="#008bfb" fill-opacity="0.490196">&#45;0.03</text>
</g>
<!-- f7&#45;&gt;y -->
<g id="edge4" class="edge">
<title>f7&#45;&gt;y</title>
<path fill="none" stroke="#ff0051" stroke-width="2.57" d="M71.31,-87.21C76.42,-75.14 83.41,-58.64 89.23,-44.89"/>
<polygon fill="#ff0051" stroke="#ff0051" stroke-width="2.57" points="92.54,-46.04 93.22,-35.47 86.1,-43.31 92.54,-46.04"/>
<text text-anchor="middle" x="97.7" y="-57.8" font-family="Times,serif" font-size="14.00" fill="#ff0051" fill-opacity="0.623529">0.04</text>
</g>
<!-- f3 -->
<g id="node5" class="node">
<title>f3</title>
<ellipse fill="none" stroke="black" cx="670.2" cy="-105" rx="27" ry="18"/>
<text text-anchor="middle" x="670.2" y="-101.3" font-family="Times,serif" font-size="14.00">f3</text>
</g>
<!-- f3&#45;&gt;y -->
<g id="edge5" class="edge">
<title>f3&#45;&gt;y</title>
<path fill="none" stroke="#008bfb" stroke-width="0.14" d="M648.11,-94.06C620.64,-82.21 572,-62.89 528.2,-54 386.13,-25.18 212.97,-19.95 137.9,-19.1"/>
<polygon fill="#008bfb" stroke="#008bfb" stroke-width="0.14" points="137.58,-15.6 127.55,-19 137.52,-22.59 137.58,-15.6"/>
<text text-anchor="middle" x="593.7" y="-57.8" font-family="Times,serif" font-size="14.00" fill="#008bfb" fill-opacity="0.247059">&#45;0.00</text>
</g>
<!-- spg -->
<g id="node6" class="node">
<title>spg</title>
<ellipse fill="none" stroke="black" cx="630.2" cy="-192" rx="27" ry="18"/>
<text text-anchor="middle" x="630.2" y="-188.3" font-family="Times,serif" font-size="14.00">spg</text>
</g>
<!-- spg&#45;&gt;f3 -->
<g id="edge6" class="edge">
<title>spg&#45;&gt;f3</title>
<path fill="none" stroke="#008bfb" stroke-width="0.14" d="M650.67,-179.86C655.63,-177.58 661,-175.44 666.2,-174 705.15,-163.21 820.07,-185.96 847.2,-156 898.16,-99.72 954.54,-165.17 745.2,-123 732.11,-120.36 717.8,-117.19 705.22,-114.31"/>
<polygon fill="#008bfb" stroke="#008bfb" stroke-width="0.14" points="705.66,-110.82 695.13,-111.97 704.08,-117.64 705.66,-110.82"/>
<text text-anchor="middle" x="876.7" y="-144.8" font-family="Times,serif" font-size="14.00" fill="#008bfb" fill-opacity="0.247059">&#45;0.00</text>
</g>
<!-- f5 -->
<g id="node7" class="node">
<title>f5</title>
<ellipse fill="none" stroke="black" cx="913.2" cy="-105" rx="27" ry="18"/>
<text text-anchor="middle" x="913.2" y="-101.3" font-family="Times,serif" font-size="14.00">f5</text>
</g>
<!-- spg&#45;&gt;f5 -->
<g id="edge7" class="edge">
<title>spg&#45;&gt;f5</title>
<path fill="none" stroke="#ff0051" stroke-width="0.06" d="M650.24,-179.86C655.31,-177.52 660.84,-175.36 666.2,-174 702.12,-164.92 973.71,-182.9 999.2,-156 1018.17,-135.98 979.99,-121.48 948.59,-113.4"/>
<polygon fill="#ff0051" stroke="#ff0051" stroke-width="0.06" points="949.26,-109.96 938.72,-111.01 947.61,-116.76 949.26,-109.96"/>
<text text-anchor="middle" x="1016.7" y="-144.8" font-family="Times,serif" font-size="14.00" fill="#ff0051" fill-opacity="0.235294">0.00</text>
</g>
<!-- f5&#45;&gt;y -->
<g id="edge8" class="edge">
<title>f5&#45;&gt;y</title>
<path fill="none" stroke="#ff0051" stroke-width="0.06" d="M888.94,-96.64C850.56,-85.33 773.3,-63.96 706.2,-54 492.65,-22.3 232.82,-18.92 137.52,-18.84"/>
<polygon fill="#ff0051" stroke="#ff0051" stroke-width="0.06" points="137.25,-15.34 127.25,-18.84 137.25,-22.34 137.25,-15.34"/>
<text text-anchor="middle" x="792.7" y="-57.8" font-family="Times,serif" font-size="14.00" fill="#ff0051" fill-opacity="0.235294">0.00</text>
</g>
<!-- P -->
<g id="node8" class="node">
<title>P</title>
<ellipse fill="none" stroke="black" cx="335.2" cy="-192" rx="27" ry="18"/>
<text text-anchor="middle" x="335.2" y="-188.3" font-family="Times,serif" font-size="14.00">P</text>
</g>
<!-- P&#45;&gt;f6 -->
<g id="edge9" class="edge">
<title>P&#45;&gt;f6</title>
<path fill="none" stroke="#ff0051" stroke-width="0.05" d="M356.64,-180.93C361.72,-178.6 367.13,-176.18 372.2,-174 391.99,-165.5 405.12,-173.84 417.2,-156 420.93,-150.48 421.63,-145.98 417.2,-141 394.29,-115.26 297.23,-128.34 263.2,-123 246.58,-120.39 228.29,-116.87 212.86,-113.7"/>
<polygon fill="#ff0051" stroke="#ff0051" stroke-width="0.05" points="213.19,-110.2 202.69,-111.59 211.77,-117.05 213.19,-110.2"/>
<text text-anchor="middle" x="432.7" y="-144.8" font-family="Times,serif" font-size="14.00" fill="#ff0051" fill-opacity="0.235294">0.00</text>
</g>
<!-- P&#45;&gt;y -->
<g id="edge10" class="edge">
<title>P&#45;&gt;y</title>
<path fill="none" stroke="#ff0051" stroke-width="0.05" d="M355.9,-180.13C361.1,-177.78 366.75,-175.54 372.2,-174 437.04,-155.64 561.84,-193.99 520.2,-141 499.28,-114.39 478.68,-132.51 446.2,-123 355.55,-96.48 335.87,-80.44 245.2,-54 208.06,-43.17 164.89,-33.06 135.37,-26.52"/>
<polygon fill="#ff0051" stroke="#ff0051" stroke-width="0.05" points="136.05,-23.09 125.53,-24.36 134.55,-29.92 136.05,-23.09"/>
<text text-anchor="middle" x="458.7" y="-101.3" font-family="Times,serif" font-size="14.00" fill="#ff0051" fill-opacity="0.235294">0.00</text>
</g>
<!-- P&#45;&gt;f7 -->
<g id="edge11" class="edge">
<title>P&#45;&gt;f7</title>
<path fill="none" stroke="#ff0051" stroke-width="0.05" d="M313.68,-180.84C308.34,-178.47 302.6,-176.04 297.2,-174 228.48,-148.04 145.31,-125.9 99.24,-114.42"/>
<polygon fill="#ff0051" stroke="#ff0051" stroke-width="0.05" points="99.99,-111 89.44,-112 98.31,-117.8 99.99,-111"/>
<text text-anchor="middle" x="253.7" y="-144.8" font-family="Times,serif" font-size="14.00" fill="#ff0051" fill-opacity="0.235294">0.00</text>
</g>
<!-- P&#45;&gt;f3 -->
<g id="edge12" class="edge">
<title>P&#45;&gt;f3</title>
<path fill="none" stroke="#ff0051" stroke-width="0.05" d="M355.85,-179.93C361.05,-177.59 366.72,-175.4 372.2,-174 427.01,-159.96 575.49,-181.12 626.2,-156 637.74,-150.28 647.56,-140.08 654.98,-130.37"/>
<polygon fill="#ff0051" stroke="#ff0051" stroke-width="0.05" points="657.93,-132.27 660.87,-122.09 652.22,-128.22 657.93,-132.27"/>
<text text-anchor="middle" x="656.7" y="-144.8" font-family="Times,serif" font-size="14.00" fill="#ff0051" fill-opacity="0.235294">0.00</text>
</g>
<!-- P&#45;&gt;f5 -->
<g id="edge13" class="edge">
<title>P&#45;&gt;f5</title>
<path fill="none" stroke="#ff0051" stroke-width="0.05" d="M355.42,-179.96C360.73,-177.55 366.55,-175.33 372.2,-174 402.66,-166.83 913.42,-178.48 935.2,-156 942.47,-148.49 939.4,-138.17 933.54,-128.86"/>
<polygon fill="#ff0051" stroke="#ff0051" stroke-width="0.05" points="936.32,-126.73 927.6,-120.7 930.66,-130.85 936.32,-126.73"/>
<text text-anchor="middle" x="951.7" y="-144.8" font-family="Times,serif" font-size="14.00" fill="#ff0051" fill-opacity="0.235294">0.00</text>
</g>
<!-- f1 -->
<g id="node9" class="node">
<title>f1</title>
<ellipse fill="none" stroke="black" cx="507.2" cy="-105" rx="27" ry="18"/>
<text text-anchor="middle" x="507.2" y="-101.3" font-family="Times,serif" font-size="14.00">f1</text>
</g>
<!-- P&#45;&gt;f1 -->
<g id="edge14" class="edge">
<title>P&#45;&gt;f1</title>
<path fill="none" stroke="#ff0051" stroke-width="0.05" d="M355.87,-180.03C361.07,-177.68 366.74,-175.47 372.2,-174 412.5,-163.13 531.13,-186.9 559.2,-156 570.67,-143.37 555.2,-130.02 538.22,-120.29"/>
<polygon fill="#ff0051" stroke="#ff0051" stroke-width="0.05" points="539.8,-117.17 529.33,-115.56 536.51,-123.35 539.8,-117.17"/>
<text text-anchor="middle" x="574.7" y="-144.8" font-family="Times,serif" font-size="14.00" fill="#ff0051" fill-opacity="0.235294">0.00</text>
</g>
<!-- f2 -->
<g id="node10" class="node">
<title>f2</title>
<ellipse fill="none" stroke="black" cx="781.2" cy="-105" rx="27" ry="18"/>
<text text-anchor="middle" x="781.2" y="-101.3" font-family="Times,serif" font-size="14.00">f2</text>
</g>
<!-- P&#45;&gt;f2 -->
<g id="edge15" class="edge">
<title>P&#45;&gt;f2</title>
<path fill="none" stroke="#ff0051" stroke-width="0.05" d="M355.43,-180C360.74,-177.6 366.56,-175.36 372.2,-174 416.73,-163.23 752.51,-189.1 784.2,-156 790.1,-149.84 791.03,-141.05 789.94,-132.56"/>
<polygon fill="#ff0051" stroke="#ff0051" stroke-width="0.05" points="793.32,-131.6 787.81,-122.55 786.47,-133.06 793.32,-131.6"/>
<text text-anchor="middle" x="801.7" y="-144.8" font-family="Times,serif" font-size="14.00" fill="#ff0051" fill-opacity="0.235294">0.00</text>
</g>
<!-- f4 -->
<g id="node11" class="node">
<title>f4</title>
<ellipse fill="none" stroke="black" cx="299.2" cy="-105" rx="27" ry="18"/>
<text text-anchor="middle" x="299.2" y="-101.3" font-family="Times,serif" font-size="14.00">f4</text>
</g>
<!-- P&#45;&gt;f4 -->
<g id="edge16" class="edge">
<title>P&#45;&gt;f4</title>
<path fill="none" stroke="#ff0051" stroke-width="0.05" d="M355.94,-180.27C361.14,-177.92 366.78,-175.64 372.2,-174 422.27,-158.82 518.6,-181.27 485.2,-141 485.05,-140.82 388.88,-122.79 334.91,-112.68"/>
<polygon fill="#ff0051" stroke="#ff0051" stroke-width="0.05" points="335.51,-109.23 325.03,-110.83 334.22,-116.12 335.51,-109.23"/>
<text text-anchor="middle" x="503.7" y="-144.8" font-family="Times,serif" font-size="14.00" fill="#ff0051" fill-opacity="0.235294">0.00</text>
</g>
<!-- f8 -->
<g id="node12" class="node">
<title>f8</title>
<ellipse fill="none" stroke="black" cx="592.2" cy="-105" rx="27" ry="18"/>
<text text-anchor="middle" x="592.2" y="-101.3" font-family="Times,serif" font-size="14.00">f8</text>
</g>
<!-- P&#45;&gt;f8 -->
<g id="edge17" class="edge">
<title>P&#45;&gt;f8</title>
<path fill="none" stroke="#ff0051" stroke-width="0.05" d="M355.86,-179.98C361.06,-177.63 366.73,-175.43 372.2,-174 395.81,-167.81 574.48,-173.79 591.2,-156 596.88,-149.95 598.46,-141.44 598.2,-133.16"/>
<polygon fill="#ff0051" stroke="#ff0051" stroke-width="0.05" points="601.66,-132.54 597.07,-122.99 594.7,-133.31 601.66,-132.54"/>
<text text-anchor="middle" x="609.7" y="-144.8" font-family="Times,serif" font-size="14.00" fill="#ff0051" fill-opacity="0.235294">0.00</text>
</g>
<!-- f1&#45;&gt;y -->
<g id="edge18" class="edge">
<title>f1&#45;&gt;y</title>
<path fill="none" stroke="#ff0051" stroke-width="0.05" d="M484.85,-94.35C457.59,-82.96 409.85,-64.29 367.2,-54 286.41,-34.51 189.09,-25.21 137.14,-21.35"/>
<polygon fill="#ff0051" stroke="#ff0051" stroke-width="0.05" points="137.29,-17.85 127.07,-20.63 136.79,-24.83 137.29,-17.85"/>
<text text-anchor="middle" x="429.7" y="-57.8" font-family="Times,serif" font-size="14.00" fill="#ff0051" fill-opacity="0.235294">0.00</text>
</g>
<!-- f2&#45;&gt;y -->
<g id="edge19" class="edge">
<title>f2&#45;&gt;y</title>
<path fill="none" stroke="#008bfb" stroke-width="2.01" d="M758.08,-95.39C725.88,-83.82 665.5,-63.59 612.2,-54 436.65,-22.43 222.57,-18.83 137.56,-18.76"/>
<polygon fill="#008bfb" stroke="#008bfb" stroke-width="2.01" points="137.37,-15.26 127.38,-18.77 137.38,-22.26 137.37,-15.26"/>
<text text-anchor="middle" x="687.7" y="-57.8" font-family="Times,serif" font-size="14.00" fill="#008bfb" fill-opacity="0.537255">&#45;0.03</text>
</g>
<!-- f4&#45;&gt;y -->
<g id="edge20" class="edge">
<title>f4&#45;&gt;y</title>
<path fill="none" stroke="#008bfb" stroke-width="1.44" d="M277.14,-94.58C241.8,-79.48 172.36,-49.82 131.77,-32.49"/>
<polygon fill="#008bfb" stroke="#008bfb" stroke-width="1.44" points="132.92,-29.17 122.35,-28.46 130.17,-35.61 132.92,-29.17"/>
<text text-anchor="middle" x="226.7" y="-57.8" font-family="Times,serif" font-size="14.00" fill="#008bfb" fill-opacity="0.447059">&#45;0.02</text>
</g>
<!-- f8&#45;&gt;y -->
<g id="edge21" class="edge">
<title>f8&#45;&gt;y</title>
<path fill="none" stroke="#ff0051" stroke-width="0.05" d="M569.9,-94.55C541.65,-83 491.22,-63.8 446.2,-54 335.55,-29.91 201.31,-22.33 137.44,-20"/>
<polygon fill="#ff0051" stroke="#ff0051" stroke-width="0.05" points="137.56,-16.5 127.44,-19.66 137.32,-23.5 137.56,-16.5"/>
<text text-anchor="middle" x="511.7" y="-57.8" font-family="Times,serif" font-size="14.00" fill="#ff0051" fill-opacity="0.235294">0.00</text>
</g>
<!-- NAV -->
<g id="node13" class="node">
<title>NAV</title>
<ellipse fill="none" stroke="black" cx="556.2" cy="-192" rx="28.7" ry="18"/>
<text text-anchor="middle" x="556.2" y="-188.3" font-family="Times,serif" font-size="14.00">NAV</text>
</g>
<!-- NAV&#45;&gt;f3 -->
<g id="edge22" class="edge">
<title>NAV&#45;&gt;f3</title>
<path fill="none" stroke="#ff0051" stroke-width="0.05" d="M577.88,-179.93C583.11,-177.65 588.76,-175.49 594.2,-174 628.07,-164.72 727.82,-182.21 751.2,-156 768.37,-136.75 734.48,-122.38 705.42,-114.11"/>
<polygon fill="#ff0051" stroke="#ff0051" stroke-width="0.05" points="706,-110.64 695.43,-111.43 704.19,-117.4 706,-110.64"/>
<text text-anchor="middle" x="767.7" y="-144.8" font-family="Times,serif" font-size="14.00" fill="#ff0051" fill-opacity="0.235294">0.00</text>
</g>
<!-- VolFrac -->
<g id="node14" class="node">
<title>VolFrac</title>
<ellipse fill="none" stroke="black" cx="154.2" cy="-192" rx="38.19" ry="18"/>
<text text-anchor="middle" x="154.2" y="-188.3" font-family="Times,serif" font-size="14.00">VolFrac</text>
</g>
<!-- VolFrac&#45;&gt;f7 -->
<g id="edge23" class="edge">
<title>VolFrac&#45;&gt;f7</title>
<path fill="none" stroke="#ff0051" stroke-width="4.23" d="M137.69,-175.41C123.3,-161.82 102.3,-141.99 86.43,-127"/>
<polygon fill="#ff0051" stroke="#ff0051" stroke-width="4.23" points="88.92,-124.25 79.11,-120.08 83.83,-129.64 88.92,-124.25"/>
<text text-anchor="middle" x="127.7" y="-144.8" font-family="Times,serif" font-size="14.00" fill="#ff0051" fill-opacity="0.878431">0.07</text>
</g>
<!-- VolFrac&#45;&gt;f4 -->
<g id="edge24" class="edge">
<title>VolFrac&#45;&gt;f4</title>
<path fill="none" stroke="#008bfb" stroke-width="1.79" d="M183.96,-180.57C191.48,-178.19 199.58,-175.82 207.2,-174 231.93,-168.1 303.69,-175.34 320.2,-156 326.77,-148.29 324.11,-138.23 318.81,-129.15"/>
<polygon fill="#008bfb" stroke="#008bfb" stroke-width="1.79" points="321.68,-127.14 313.14,-120.86 315.9,-131.09 321.68,-127.14"/>
<text text-anchor="middle" x="338.7" y="-144.8" font-family="Times,serif" font-size="14.00" fill="#008bfb" fill-opacity="0.501961">&#45;0.03</text>
</g>
<!-- largest_included_sphere_free -->
<g id="node15" class="node">
<title>largest_included_sphere_free</title>
<ellipse fill="none" stroke="black" cx="958.2" cy="-192" rx="114.28" ry="18"/>
<text text-anchor="middle" x="958.2" y="-188.3" font-family="Times,serif" font-size="14.00">largest_included_sphere_free</text>
</g>
<!-- largest_included_sphere_free&#45;&gt;f5 -->
<g id="edge25" class="edge">
<title>largest_included_sphere_free&#45;&gt;f5</title>
<path fill="none" stroke="#008bfb" stroke-width="0.06" d="M1038.57,-179.06C1063.98,-173.53 1087.48,-165.94 1095.2,-156 1099.29,-150.73 1099.44,-146.14 1095.2,-141 1077.19,-119.21 998.16,-110.84 950.36,-107.74"/>
<polygon fill="#008bfb" stroke="#008bfb" stroke-width="0.06" points="950.28,-104.23 940.09,-107.12 949.86,-111.21 950.28,-104.23"/>
<text text-anchor="middle" x="1112.7" y="-144.8" font-family="Times,serif" font-size="14.00" fill="#008bfb" fill-opacity="0.235294">&#45;0.00</text>
</g>
<!-- largest_included_sphere_free&#45;&gt;f2 -->
<g id="edge26" class="edge">
<title>largest_included_sphere_free&#45;&gt;f2</title>
<path fill="none" stroke="#ff0051" stroke-width="3.04" d="M1019.8,-176.73C1043.22,-168.48 1061.24,-156.61 1047.2,-141 1021.79,-112.76 914.81,-128.32 877.2,-123 857.07,-120.16 834.7,-116.24 816.62,-112.88"/>
<polygon fill="#ff0051" stroke="#ff0051" stroke-width="3.04" points="817.26,-109.44 806.79,-111.03 815.97,-116.32 817.26,-109.44"/>
<text text-anchor="middle" x="1063.7" y="-144.8" font-family="Times,serif" font-size="14.00" fill="#ff0051" fill-opacity="0.694118">0.05</text>
</g>
<!-- density -->
<g id="node16" class="node">
<title>density</title>
<ellipse fill="none" stroke="black" cx="252.2" cy="-192" rx="36.29" ry="18"/>
<text text-anchor="middle" x="252.2" y="-188.3" font-family="Times,serif" font-size="14.00">density</text>
</g>
<!-- density&#45;&gt;f4 -->
<g id="edge27" class="edge">
<title>density&#45;&gt;f4</title>
<path fill="none" stroke="#ff0051" stroke-width="0.4" d="M280.33,-180.12C286.49,-177.94 293.02,-175.77 299.2,-174 335.9,-163.48 359.19,-185.69 383.2,-156 399.97,-135.25 364.46,-121.13 334.55,-113.32"/>
<polygon fill="#ff0051" stroke="#ff0051" stroke-width="0.4" points="335.26,-109.89 324.71,-110.91 333.59,-116.69 335.26,-109.89"/>
<text text-anchor="middle" x="400.7" y="-144.8" font-family="Times,serif" font-size="14.00" fill="#ff0051" fill-opacity="0.286275">0.01</text>
</g>
<!-- largest_free_sphere -->
<g id="node17" class="node">
<title>largest_free_sphere</title>
<ellipse fill="none" stroke="black" cx="1170.2" cy="-192" rx="79.09" ry="18"/>
<text text-anchor="middle" x="1170.2" y="-188.3" font-family="Times,serif" font-size="14.00">largest_free_sphere</text>
</g>
<!-- largest_free_sphere&#45;&gt;f5 -->
<g id="edge28" class="edge">
<title>largest_free_sphere&#45;&gt;f5</title>
<path fill="none" stroke="#008bfb" stroke-width="0.05" d="M1161.31,-173.85C1154.59,-162.66 1144.27,-148.73 1131.2,-141 1101.26,-123.31 1004.29,-113.12 950.31,-108.68"/>
<polygon fill="#008bfb" stroke="#008bfb" stroke-width="0.05" points="950.37,-105.17 940.12,-107.87 949.81,-112.15 950.37,-105.17"/>
<text text-anchor="middle" x="1161.7" y="-144.8" font-family="Times,serif" font-size="14.00" fill="#008bfb" fill-opacity="0.235294">&#45;0.00</text>
</g>
<!-- surf_area_m2g -->
<g id="node18" class="node">
<title>surf_area_m2g</title>
<ellipse fill="none" stroke="black" cx="445.2" cy="-192" rx="63.89" ry="18"/>
<text text-anchor="middle" x="445.2" y="-188.3" font-family="Times,serif" font-size="14.00">surf_area_m2g</text>
</g>
<!-- surf_area_m2g&#45;&gt;f8 -->
<g id="edge29" class="edge">
<title>surf_area_m2g&#45;&gt;f8</title>
<path fill="none" stroke="#ff0051" stroke-width="0.05" d="M490.96,-179.37C499.95,-177.36 509.34,-175.46 518.2,-174 558.95,-167.3 675.44,-186.59 703.2,-156 740.28,-115.13 712.04,-148.79 634.2,-123 630.81,-121.88 627.3,-120.62 623.82,-119.31"/>
<polygon fill="#ff0051" stroke="#ff0051" stroke-width="0.05" points="624.82,-115.94 614.23,-115.54 622.26,-122.45 624.82,-115.94"/>
<text text-anchor="middle" x="727.7" y="-144.8" font-family="Times,serif" font-size="14.00" fill="#ff0051" fill-opacity="0.235294">0.00</text>
</g>
<!-- surf_area_m2cm3 -->
<g id="node19" class="node">
<title>surf_area_m2cm3</title>
<ellipse fill="none" stroke="black" cx="750.2" cy="-192" rx="75.29" ry="18"/>
<text text-anchor="middle" x="750.2" y="-188.3" font-family="Times,serif" font-size="14.00">surf_area_m2cm3</text>
</g>
<!-- surf_area_m2cm3&#45;&gt;f2 -->
<g id="edge30" class="edge">
<title>surf_area_m2cm3&#45;&gt;f2</title>
<path fill="none" stroke="#008bfb" stroke-width="5" d="M805.33,-179.71C846.49,-171.02 896.13,-159.87 899.2,-156 903.34,-150.77 903.18,-146.34 899.2,-141 889.29,-127.73 848.13,-117.7 817.19,-111.85"/>
<polygon fill="#008bfb" stroke="#008bfb" stroke-width="5" points="817.77,-107.51 807.15,-110.03 816.21,-116.12 817.77,-107.51"/>
<text text-anchor="middle" x="916.7" y="-144.8" font-family="Times,serif" font-size="14.00" fill="#008bfb">&#45;0.09</text>
</g>
</g>
</svg>
